<?xml version="1.0" standalone="no"?>
<!DOCTYPE svg PUBLIC "-//W3C//DTD SVG 1.1//EN" "http://www.w3.org/Graphics/SVG/1.1/DTD/svg11.dtd">
<svg width="47.0mm" height="46.6050425072378mm"
 viewBox="0 0 47.0 46.6050425072378"
 xmlns="http://www.w3.org/2000/svg" version="1.1"
 xmlns:xlink="http://www.w3.org/1999/xlink">
<desc>Output from Flights of Ideas SVG Sketchup Plugin</desc>

<g id="text_annotations" font-size="10" stroke="rgb(255,0,0)" stroke-width="1">
</g>
  <g id="face0" fill="none" stroke="rgb(0,0,255)" stroke-width="1" stroke-miterlimit="4" stroke-dasharray="none" stroke-linejoin="round" stroke-linecap="round">
    <line x1="24.4999999999949" y1="14.8025212536174" x2="22.4999999999943" y2="14.8025212536174"/>
    <line x1="22.4999999999943" y1="14.8025212536174" x2="22.4999999999943" y2="10.0"/>
    <line x1="22.4999999999943" y1="10.0" x2="22.0" y2="10.0"/>
    <line x1="22.0" y1="10.0" x2="20.005942891116" y2="10.2625225987165"/>
    <line x1="20.005942891116" y1="10.2625225987165" x2="16.75" y2="11.611178302529"/>
    <line x1="16.75" y1="11.611178302529" x2="13.9540584539816" y2="13.7565797076005"/>
    <line x1="13.9540584539816" y1="13.7565797076005" x2="11.8086570489101" y2="16.5525212536189"/>
    <line x1="11.8086570489101" y1="16.5525212536189" x2="10.4600013450976" y2="19.8084641447349"/>
    <line x1="10.4600013450976" y1="19.8084641447349" x2="10.0" y2="23.3025212536189"/>
    <line x1="10.0" y1="23.3025212536189" x2="10.4600013450976" y2="26.7965783625029"/>
    <line x1="10.4600013450976" y1="26.7965783625029" x2="11.8086570489101" y2="30.0525212536189"/>
    <line x1="11.8086570489101" y1="30.0525212536189" x2="13.9540584539816" y2="32.8484627996373"/>
    <line x1="13.9540584539816" y1="32.8484627996373" x2="16.75" y2="34.9938642047088"/>
    <line x1="16.75" y1="34.9938642047088" x2="20.005942891116" y2="36.3425199085213"/>
    <line x1="20.005942891116" y1="36.3425199085213" x2="22.0" y2="36.6050425072378"/>
    <line x1="22.0" y1="36.6050425072378" x2="22.5000000000075" y2="36.6050425072378"/>
    <line x1="22.5000000000075" y1="36.6050425072378" x2="22.5000000000075" y2="31.8025212536174"/>
    <line x1="22.5000000000075" y1="31.8025212536174" x2="24.5000000000072" y2="31.8025212536174"/>
    <line x1="24.5000000000072" y1="31.8025212536174" x2="24.5000000000072" y2="36.6050425072378"/>
    <line x1="24.5000000000072" y1="36.6050425072378" x2="25.0" y2="36.6050425072378"/>
    <line x1="25.0" y1="36.6050425072378" x2="26.994057108884" y2="36.3425199085213"/>
    <line x1="26.994057108884" y1="36.3425199085213" x2="30.25" y2="34.9938642047088"/>
    <line x1="30.25" y1="34.9938642047088" x2="33.0459415460184" y2="32.8484627996373"/>
    <line x1="33.0459415460184" y1="32.8484627996373" x2="35.1913429510899" y2="30.0525212536189"/>
    <line x1="35.1913429510899" y1="30.0525212536189" x2="36.5399986549024" y2="26.7965783625029"/>
    <line x1="36.5399986549024" y1="26.7965783625029" x2="37.0" y2="23.3025212536189"/>
    <line x1="37.0" y1="23.3025212536189" x2="36.5399986549024" y2="19.8084641447349"/>
    <line x1="36.5399986549024" y1="19.8084641447349" x2="35.1913429510899" y2="16.5525212536189"/>
    <line x1="35.1913429510899" y1="16.5525212536189" x2="33.0459415460184" y2="13.7565797076005"/>
    <line x1="33.0459415460184" y1="13.7565797076005" x2="30.25" y2="11.611178302529"/>
    <line x1="30.25" y1="11.611178302529" x2="26.994057108884" y2="10.2625225987165"/>
    <line x1="26.994057108884" y1="10.2625225987165" x2="25.0" y2="10.0"/>
    <line x1="25.0" y1="10.0" x2="24.4999999999949" y2="10.0"/>
    <line x1="24.4999999999949" y1="10.0" x2="24.4999999999949" y2="14.8025212536174"/>
    <line x1="26.9641016151378" y1="21.3025212536189" x2="27.3637033051563" y2="22.2672450732088"/>
    <line x1="27.3637033051563" y1="22.2672450732088" x2="27.5" y2="23.3025212536189"/>
    <line x1="27.5" y1="23.3025212536189" x2="27.3637033051563" y2="24.337797434029"/>
    <line x1="27.3637033051563" y1="24.337797434029" x2="26.9641016151378" y2="25.3025212536189"/>
    <line x1="26.9641016151378" y1="25.3025212536189" x2="26.3284271247462" y2="26.1309483783651"/>
    <line x1="26.3284271247462" y1="26.1309483783651" x2="25.5" y2="26.7666228687567"/>
    <line x1="25.5" y1="26.7666228687567" x2="24.5352761804101" y2="27.1662245587752"/>
    <line x1="24.5352761804101" y1="27.1662245587752" x2="23.5" y2="27.3025212536189"/>
    <line x1="23.5" y1="27.3025212536189" x2="22.4647238195899" y2="27.1662245587752"/>
    <line x1="22.4647238195899" y1="27.1662245587752" x2="21.5" y2="26.7666228687567"/>
    <line x1="21.5" y1="26.7666228687567" x2="20.6715728752538" y2="26.1309483783651"/>
    <line x1="20.6715728752538" y1="26.1309483783651" x2="20.0358983848622" y2="25.3025212536189"/>
    <line x1="20.0358983848622" y1="25.3025212536189" x2="19.6362966948437" y2="24.337797434029"/>
    <line x1="19.6362966948437" y1="24.337797434029" x2="19.5" y2="23.3025212536189"/>
    <line x1="19.5" y1="23.3025212536189" x2="19.6362966948437" y2="22.2672450732088"/>
    <line x1="19.6362966948437" y1="22.2672450732088" x2="20.0358983848622" y2="21.3025212536189"/>
    <line x1="20.0358983848622" y1="21.3025212536189" x2="20.6715728752538" y2="20.4740941288727"/>
    <line x1="20.6715728752538" y1="20.4740941288727" x2="21.5" y2="19.8384196384812"/>
    <line x1="21.5" y1="19.8384196384812" x2="22.4647238195899" y2="19.4388179484626"/>
    <line x1="22.4647238195899" y1="19.4388179484626" x2="23.5" y2="19.3025212536189"/>
    <line x1="23.5" y1="19.3025212536189" x2="24.5352761804101" y2="19.4388179484626"/>
    <line x1="24.5352761804101" y1="19.4388179484626" x2="25.5" y2="19.8384196384812"/>
    <line x1="25.5" y1="19.8384196384812" x2="26.3284271247462" y2="20.4740941288727"/>
    <line x1="26.3284271247462" y1="20.4740941288727" x2="26.9641016151378" y2="21.3025212536189"/>
    <line x1="15.4659258262891" y1="23.0437022085164" x2="15.5" y2="23.3025212536189"/>
    <line x1="15.5" y1="23.3025212536189" x2="15.4659258262891" y2="23.5613402987214"/>
    <line x1="15.4659258262891" y1="23.5613402987214" x2="15.3660254037844" y2="23.8025212536189"/>
    <line x1="15.3660254037844" y1="23.8025212536189" x2="15.2071067811865" y2="24.0096280348055"/>
    <line x1="15.2071067811865" y1="24.0096280348055" x2="15.0" y2="24.1685466574033"/>
    <line x1="15.0" y1="24.1685466574033" x2="14.7588190451025" y2="24.268447079908"/>
    <line x1="14.7588190451025" y1="24.268447079908" x2="14.5" y2="24.3025212536189"/>
    <line x1="14.5" y1="24.3025212536189" x2="14.2411809548975" y2="24.268447079908"/>
    <line x1="14.2411809548975" y1="24.268447079908" x2="14.0" y2="24.1685466574033"/>
    <line x1="14.0" y1="24.1685466574033" x2="13.7928932188135" y2="24.0096280348055"/>
    <line x1="13.7928932188135" y1="24.0096280348055" x2="13.6339745962156" y2="23.8025212536189"/>
    <line x1="13.6339745962156" y1="23.8025212536189" x2="13.5340741737109" y2="23.5613402987214"/>
    <line x1="13.5340741737109" y1="23.5613402987214" x2="13.5" y2="23.3025212536189"/>
    <line x1="13.5" y1="23.3025212536189" x2="13.5340741737109" y2="23.0437022085164"/>
    <line x1="13.5340741737109" y1="23.0437022085164" x2="13.6339745962156" y2="22.8025212536189"/>
    <line x1="13.6339745962156" y1="22.8025212536189" x2="13.7928932188135" y2="22.5954144724324"/>
    <line x1="13.7928932188135" y1="22.5954144724324" x2="14.0" y2="22.4364958498345"/>
    <line x1="14.0" y1="22.4364958498345" x2="14.2411809548975" y2="22.3365954273298"/>
    <line x1="14.2411809548975" y1="22.3365954273298" x2="14.5" y2="22.3025212536189"/>
    <line x1="14.5" y1="22.3025212536189" x2="14.7588190451025" y2="22.3365954273298"/>
    <line x1="14.7588190451025" y1="22.3365954273298" x2="15.0" y2="22.4364958498345"/>
    <line x1="15.0" y1="22.4364958498345" x2="15.2071067811865" y2="22.5954144724324"/>
    <line x1="15.2071067811865" y1="22.5954144724324" x2="15.3660254037844" y2="22.8025212536189"/>
    <line x1="15.3660254037844" y1="22.8025212536189" x2="15.4659258262891" y2="23.0437022085164"/>
  </g>
</svg>
