<?xml version="1.0" standalone="no"?>
<!DOCTYPE svg PUBLIC "-//W3C//DTD SVG 1.1//EN" "http://www.w3.org/Graphics/SVG/1.1/DTD/svg11.dtd">
<svg width="120.0mm" height="130.710678118655mm"
 viewBox="0 0 120.0 130.710678118655"
 xmlns="http://www.w3.org/2000/svg" version="1.1"
 xmlns:xlink="http://www.w3.org/1999/xlink">
<desc>Output from Flights of Ideas SVG Sketchup Plugin</desc>

<g id="text_annotations" font-size="10" stroke="rgb(255,0,0)" stroke-width="1">
</g>
  <g id="face0" fill="none" stroke="rgb(0,0,255)" stroke-width="1" stroke-miterlimit="4" stroke-dasharray="none" stroke-linejoin="round" stroke-linecap="round">
    <line x1="11.7037086855466" y1="52.4143868042013" x2="10.0" y2="65.3553390593274"/>
    <line x1="10.0" y1="65.3553390593274" x2="11.7037086855466" y2="78.2962913144534"/>
    <line x1="11.7037086855466" y1="78.2962913144534" x2="16.6987298107781" y2="90.3553390593274"/>
    <line x1="16.6987298107781" y1="90.3553390593274" x2="24.6446609406726" y2="100.710678118655"/>
    <line x1="24.6446609406726" y1="100.710678118655" x2="24.6446609406726" y2="120.710678118655"/>
    <line x1="24.6446609406726" y1="120.710678118655" x2="95.3553390593273" y2="120.710678118655"/>
    <line x1="95.3553390593273" y1="120.710678118655" x2="95.3553390593273" y2="100.710678118655"/>
    <line x1="95.3553390593273" y1="100.710678118655" x2="103.301270189222" y2="90.3553390593274"/>
    <line x1="103.301270189222" y1="90.3553390593274" x2="108.296291314453" y2="78.2962913144535"/>
    <line x1="108.296291314453" y1="78.2962913144535" x2="110.0" y2="65.3553390593273"/>
    <line x1="110.0" y1="65.3553390593273" x2="108.296291314453" y2="52.4143868042013"/>
    <line x1="108.296291314453" y1="52.4143868042013" x2="103.301270189222" y2="40.3553390593274"/>
    <line x1="103.301270189222" y1="40.3553390593274" x2="95.3553390593274" y2="30.0"/>
    <line x1="95.3553390593274" y1="30.0" x2="95.3553390593274" y2="10.0"/>
    <line x1="95.3553390593274" y1="10.0" x2="24.6446609406726" y2="10.0"/>
    <line x1="24.6446609406726" y1="10.0" x2="24.6446609406726" y2="30.0"/>
    <line x1="24.6446609406726" y1="30.0" x2="16.6987298107781" y2="40.3553390593274"/>
    <line x1="16.6987298107781" y1="40.3553390593274" x2="11.7037086855466" y2="52.4143868042013"/>
    <line x1="40.758819045103" y1="29.7712648856149" x2="40.5000000000005" y2="29.8053390593258"/>
    <line x1="40.5000000000005" y1="29.8053390593258" x2="38.5000000000005" y2="29.8053390593258"/>
    <line x1="38.5000000000005" y1="29.8053390593258" x2="38.241180954898" y2="29.7712648856149"/>
    <line x1="38.241180954898" y1="29.7712648856149" x2="38.0000000000005" y2="29.6713644631103"/>
    <line x1="38.0000000000005" y1="29.6713644631103" x2="37.792893218814" y2="29.5124458405124"/>
    <line x1="37.792893218814" y1="29.5124458405124" x2="37.6339745962161" y2="29.3053390593258"/>
    <line x1="37.6339745962161" y1="29.3053390593258" x2="37.5340741737114" y2="29.0641581044283"/>
    <line x1="37.5340741737114" y1="29.0641581044283" x2="37.5000000000005" y2="28.8053390593258"/>
    <line x1="37.5000000000005" y1="28.8053390593258" x2="37.5340741737114" y2="28.5465200142233"/>
    <line x1="37.5340741737114" y1="28.5465200142233" x2="37.6339745962161" y2="28.3053390593258"/>
    <line x1="37.6339745962161" y1="28.3053390593258" x2="37.792893218814" y2="28.0982322781393"/>
    <line x1="37.792893218814" y1="28.0982322781393" x2="38.0000000000005" y2="27.9393136555414"/>
    <line x1="38.0000000000005" y1="27.9393136555414" x2="38.241180954898" y2="27.8394132330368"/>
    <line x1="38.241180954898" y1="27.8394132330368" x2="38.5000000000005" y2="27.8053390593258"/>
    <line x1="38.5000000000005" y1="27.8053390593258" x2="40.5000000000005" y2="27.8053390593258"/>
    <line x1="40.5000000000005" y1="27.8053390593258" x2="40.758819045103" y2="27.8394132330367"/>
    <line x1="40.758819045103" y1="27.8394132330367" x2="41.0000000000005" y2="27.9393136555414"/>
    <line x1="41.0000000000005" y1="27.9393136555414" x2="41.2071067811871" y2="28.0982322781393"/>
    <line x1="41.2071067811871" y1="28.0982322781393" x2="41.3660254037849" y2="28.3053390593258"/>
    <line x1="41.3660254037849" y1="28.3053390593258" x2="41.4659258262896" y2="28.5465200142233"/>
    <line x1="41.4659258262896" y1="28.5465200142233" x2="41.5000000000005" y2="28.8053390593258"/>
    <line x1="41.5000000000005" y1="28.8053390593258" x2="41.4659258262896" y2="29.0641581044283"/>
    <line x1="41.4659258262896" y1="29.0641581044283" x2="41.3660254037849" y2="29.3053390593258"/>
    <line x1="41.3660254037849" y1="29.3053390593258" x2="41.2071067811871" y2="29.5124458405124"/>
    <line x1="41.2071067811871" y1="29.5124458405124" x2="41.0000000000005" y2="29.6713644631102"/>
    <line x1="41.0000000000005" y1="29.6713644631102" x2="40.758819045103" y2="29.7712648856149"/>
    <line x1="38.241180954898" y1="94.4000251108761" x2="38.5000000000005" y2="94.3659509371652"/>
    <line x1="38.5000000000005" y1="94.3659509371652" x2="40.5000000000005" y2="94.3659509371652"/>
    <line x1="40.5000000000005" y1="94.3659509371652" x2="40.758819045103" y2="94.4000251108761"/>
    <line x1="40.758819045103" y1="94.4000251108761" x2="41.0000000000005" y2="94.4999255333807"/>
    <line x1="41.0000000000005" y1="94.4999255333807" x2="41.2071067811871" y2="94.6588441559786"/>
    <line x1="41.2071067811871" y1="94.6588441559786" x2="41.3660254037849" y2="94.8659509371651"/>
    <line x1="41.3660254037849" y1="94.8659509371651" x2="41.4659258262896" y2="95.1071318920626"/>
    <line x1="41.4659258262896" y1="95.1071318920626" x2="41.5000000000005" y2="95.3659509371652"/>
    <line x1="41.5000000000005" y1="95.3659509371652" x2="41.4659258262896" y2="95.6247699822677"/>
    <line x1="41.4659258262896" y1="95.6247699822677" x2="41.3660254037849" y2="95.8659509371652"/>
    <line x1="41.3660254037849" y1="95.8659509371652" x2="41.2071067811871" y2="96.0730577183517"/>
    <line x1="41.2071067811871" y1="96.0730577183517" x2="41.0000000000005" y2="96.2319763409496"/>
    <line x1="41.0000000000005" y1="96.2319763409496" x2="40.758819045103" y2="96.3318767634542"/>
    <line x1="40.758819045103" y1="96.3318767634542" x2="40.5000000000005" y2="96.3659509371651"/>
    <line x1="40.5000000000005" y1="96.3659509371651" x2="38.5000000000005" y2="96.3659509371652"/>
    <line x1="38.5000000000005" y1="96.3659509371652" x2="38.241180954898" y2="96.3318767634542"/>
    <line x1="38.241180954898" y1="96.3318767634542" x2="38.0000000000005" y2="96.2319763409496"/>
    <line x1="38.0000000000005" y1="96.2319763409496" x2="37.792893218814" y2="96.0730577183517"/>
    <line x1="37.792893218814" y1="96.0730577183517" x2="37.6339745962161" y2="95.8659509371652"/>
    <line x1="37.6339745962161" y1="95.8659509371652" x2="37.5340741737114" y2="95.6247699822677"/>
    <line x1="37.5340741737114" y1="95.6247699822677" x2="37.5000000000005" y2="95.3659509371652"/>
    <line x1="37.5000000000005" y1="95.3659509371652" x2="37.5340741737114" y2="95.1071318920626"/>
    <line x1="37.5340741737114" y1="95.1071318920626" x2="37.6339745962161" y2="94.8659509371652"/>
    <line x1="37.6339745962161" y1="94.8659509371652" x2="37.792893218814" y2="94.6588441559786"/>
    <line x1="37.792893218814" y1="94.6588441559786" x2="38.0000000000005" y2="94.4999255333807"/>
    <line x1="38.0000000000005" y1="94.4999255333807" x2="38.241180954898" y2="94.4000251108761"/>
    <line x1="66.841180954898" y1="94.4000251108761" x2="67.1000000000005" y2="94.3659509371651"/>
    <line x1="67.1000000000005" y1="94.3659509371651" x2="69.1000000000005" y2="94.3659509371652"/>
    <line x1="69.1000000000005" y1="94.3659509371652" x2="69.358819045103" y2="94.4000251108761"/>
    <line x1="69.358819045103" y1="94.4000251108761" x2="69.6000000000005" y2="94.4999255333807"/>
    <line x1="69.6000000000005" y1="94.4999255333807" x2="69.8071067811871" y2="94.6588441559786"/>
    <line x1="69.8071067811871" y1="94.6588441559786" x2="69.9660254037849" y2="94.8659509371652"/>
    <line x1="69.9660254037849" y1="94.8659509371652" x2="70.0659258262896" y2="95.1071318920626"/>
    <line x1="70.0659258262896" y1="95.1071318920626" x2="70.1000000000005" y2="95.3659509371651"/>
    <line x1="70.1000000000005" y1="95.3659509371651" x2="70.0659258262895" y2="95.6247699822677"/>
    <line x1="70.0659258262895" y1="95.6247699822677" x2="69.9660254037849" y2="95.8659509371652"/>
    <line x1="69.9660254037849" y1="95.8659509371652" x2="69.8071067811871" y2="96.0730577183517"/>
    <line x1="69.8071067811871" y1="96.0730577183517" x2="69.6000000000005" y2="96.2319763409496"/>
    <line x1="69.6000000000005" y1="96.2319763409496" x2="69.358819045103" y2="96.3318767634542"/>
    <line x1="69.358819045103" y1="96.3318767634542" x2="69.1000000000005" y2="96.3659509371652"/>
    <line x1="69.1000000000005" y1="96.3659509371652" x2="67.1000000000005" y2="96.3659509371652"/>
    <line x1="67.1000000000005" y1="96.3659509371652" x2="66.841180954898" y2="96.3318767634542"/>
    <line x1="66.841180954898" y1="96.3318767634542" x2="66.6000000000005" y2="96.2319763409496"/>
    <line x1="66.6000000000005" y1="96.2319763409496" x2="66.3928932188139" y2="96.0730577183517"/>
    <line x1="66.3928932188139" y1="96.0730577183517" x2="66.233974596216" y2="95.8659509371652"/>
    <line x1="66.233974596216" y1="95.8659509371652" x2="66.1340741737114" y2="95.6247699822677"/>
    <line x1="66.1340741737114" y1="95.6247699822677" x2="66.1000000000005" y2="95.3659509371652"/>
    <line x1="66.1000000000005" y1="95.3659509371652" x2="66.1340741737114" y2="95.1071318920626"/>
    <line x1="66.1340741737114" y1="95.1071318920626" x2="66.233974596216" y2="94.8659509371652"/>
    <line x1="66.233974596216" y1="94.8659509371652" x2="66.3928932188139" y2="94.6588441559786"/>
    <line x1="66.3928932188139" y1="94.6588441559786" x2="66.6000000000004" y2="94.4999255333807"/>
    <line x1="66.6000000000004" y1="94.4999255333807" x2="66.841180954898" y2="94.4000251108761"/>
    <line x1="69.358819045103" y1="29.7712648856149" x2="69.1000000000005" y2="29.8053390593258"/>
    <line x1="69.1000000000005" y1="29.8053390593258" x2="67.1000000000005" y2="29.8053390593258"/>
    <line x1="67.1000000000005" y1="29.8053390593258" x2="66.841180954898" y2="29.7712648856149"/>
    <line x1="66.841180954898" y1="29.7712648856149" x2="66.6000000000005" y2="29.6713644631103"/>
    <line x1="66.6000000000005" y1="29.6713644631103" x2="66.392893218814" y2="29.5124458405124"/>
    <line x1="66.392893218814" y1="29.5124458405124" x2="66.2339745962161" y2="29.3053390593258"/>
    <line x1="66.2339745962161" y1="29.3053390593258" x2="66.1340741737114" y2="29.0641581044283"/>
    <line x1="66.1340741737114" y1="29.0641581044283" x2="66.1000000000005" y2="28.8053390593258"/>
    <line x1="66.1000000000005" y1="28.8053390593258" x2="66.1340741737114" y2="28.5465200142233"/>
    <line x1="66.1340741737114" y1="28.5465200142233" x2="66.2339745962161" y2="28.3053390593258"/>
    <line x1="66.2339745962161" y1="28.3053390593258" x2="66.392893218814" y2="28.0982322781393"/>
    <line x1="66.392893218814" y1="28.0982322781393" x2="66.6000000000005" y2="27.9393136555414"/>
    <line x1="66.6000000000005" y1="27.9393136555414" x2="66.841180954898" y2="27.8394132330368"/>
    <line x1="66.841180954898" y1="27.8394132330368" x2="67.1000000000005" y2="27.8053390593258"/>
    <line x1="67.1000000000005" y1="27.8053390593258" x2="69.1000000000005" y2="27.8053390593258"/>
    <line x1="69.1000000000005" y1="27.8053390593258" x2="69.358819045103" y2="27.8394132330368"/>
    <line x1="69.358819045103" y1="27.8394132330368" x2="69.6000000000005" y2="27.9393136555414"/>
    <line x1="69.6000000000005" y1="27.9393136555414" x2="69.8071067811871" y2="28.0982322781393"/>
    <line x1="69.8071067811871" y1="28.0982322781393" x2="69.9660254037849" y2="28.3053390593258"/>
    <line x1="69.9660254037849" y1="28.3053390593258" x2="70.0659258262896" y2="28.5465200142233"/>
    <line x1="70.0659258262896" y1="28.5465200142233" x2="70.1000000000005" y2="28.8053390593258"/>
    <line x1="70.1000000000005" y1="28.8053390593258" x2="70.0659258262896" y2="29.0641581044283"/>
    <line x1="70.0659258262896" y1="29.0641581044283" x2="69.9660254037849" y2="29.3053390593258"/>
    <line x1="69.9660254037849" y1="29.3053390593258" x2="69.8071067811871" y2="29.5124458405124"/>
    <line x1="69.8071067811871" y1="29.5124458405124" x2="69.6000000000005" y2="29.6713644631102"/>
    <line x1="69.6000000000005" y1="29.6713644631102" x2="69.358819045103" y2="29.7712648856149"/>
    <line x1="52.0000000000002" y1="80.8053390593256" x2="52.0000000000002" y2="76.8053390593256"/>
    <line x1="52.0000000000002" y1="76.8053390593256" x2="68.0000000000002" y2="76.8053390593256"/>
    <line x1="68.0000000000002" y1="76.8053390593256" x2="68.0000000000002" y2="80.8053390593256"/>
    <line x1="68.0000000000002" y1="80.8053390593256" x2="52.0000000000002" y2="80.8053390593256"/>
    <line x1="52.101770824912" y1="43.3053390593258" x2="68.101770824912" y2="43.3053390593258"/>
    <line x1="68.101770824912" y1="43.3053390593258" x2="68.101770824912" y2="47.3053390593257"/>
    <line x1="68.101770824912" y1="47.3053390593257" x2="52.101770824912" y2="47.3053390593258"/>
    <line x1="52.101770824912" y1="47.3053390593258" x2="52.101770824912" y2="43.3053390593258"/>
    <line x1="96.5000000000002" y1="78.8053390593256" x2="96.5511112605666" y2="78.4171104916718"/>
    <line x1="96.5511112605666" y1="78.4171104916718" x2="96.7009618943236" y2="78.0553390593256"/>
    <line x1="96.7009618943236" y1="78.0553390593256" x2="96.9393398282204" y2="77.7446788875458"/>
    <line x1="96.9393398282204" y1="77.7446788875458" x2="97.2500000000002" y2="77.5063009536489"/>
    <line x1="97.2500000000002" y1="77.5063009536489" x2="97.6117714323464" y2="77.356450319892"/>
    <line x1="97.6117714323464" y1="77.356450319892" x2="98.0000000000002" y2="77.3053390593256"/>
    <line x1="98.0000000000002" y1="77.3053390593256" x2="98.388228567654" y2="77.356450319892"/>
    <line x1="98.388228567654" y1="77.356450319892" x2="98.7500000000002" y2="77.506300953649"/>
    <line x1="98.7500000000002" y1="77.506300953649" x2="99.0606601717801" y2="77.7446788875458"/>
    <line x1="99.0606601717801" y1="77.7446788875458" x2="99.2990381056769" y2="78.0553390593256"/>
    <line x1="99.2990381056769" y1="78.0553390593256" x2="99.4488887394338" y2="78.4171104916718"/>
    <line x1="99.4488887394338" y1="78.4171104916718" x2="99.5000000000002" y2="78.8053390593256"/>
    <line x1="99.5000000000002" y1="78.8053390593256" x2="99.4488887394338" y2="79.1935676269794"/>
    <line x1="99.4488887394338" y1="79.1935676269794" x2="99.2990381056769" y2="79.5553390593256"/>
    <line x1="99.2990381056769" y1="79.5553390593256" x2="99.0606601717801" y2="79.8659992311054"/>
    <line x1="99.0606601717801" y1="79.8659992311054" x2="98.7500000000003" y2="80.1043771650023"/>
    <line x1="98.7500000000003" y1="80.1043771650023" x2="98.388228567654" y2="80.2542277987592"/>
    <line x1="98.388228567654" y1="80.2542277987592" x2="98.0000000000002" y2="80.3053390593256"/>
    <line x1="98.0000000000002" y1="80.3053390593256" x2="97.6117714323464" y2="80.2542277987592"/>
    <line x1="97.6117714323464" y1="80.2542277987592" x2="97.2500000000003" y2="80.1043771650023"/>
    <line x1="97.2500000000003" y1="80.1043771650023" x2="96.9393398282204" y2="79.8659992311055"/>
    <line x1="96.9393398282204" y1="79.8659992311055" x2="96.7009618943236" y2="79.5553390593256"/>
    <line x1="96.7009618943236" y1="79.5553390593256" x2="96.5511112605666" y2="79.1935676269794"/>
    <line x1="96.5511112605666" y1="79.1935676269794" x2="96.5000000000002" y2="78.8053390593256"/>
    <line x1="96.6528820854784" y1="45.6935676269796" x2="96.601770824912" y2="45.3053390593258"/>
    <line x1="96.601770824912" y1="45.3053390593258" x2="96.6528820854784" y2="44.917110491672"/>
    <line x1="96.6528820854784" y1="44.917110491672" x2="96.8027327192354" y2="44.5553390593258"/>
    <line x1="96.8027327192354" y1="44.5553390593258" x2="97.0411106531322" y2="44.2446788875458"/>
    <line x1="97.0411106531322" y1="44.2446788875458" x2="97.351770824912" y2="44.0063009536491"/>
    <line x1="97.351770824912" y1="44.0063009536491" x2="97.7135422572582" y2="43.856450319892"/>
    <line x1="97.7135422572582" y1="43.856450319892" x2="98.101770824912" y2="43.8053390593257"/>
    <line x1="98.101770824912" y1="43.8053390593257" x2="98.4899993925658" y2="43.8564503198922"/>
    <line x1="98.4899993925658" y1="43.8564503198922" x2="98.851770824912" y2="44.0063009536492"/>
    <line x1="98.851770824912" y1="44.0063009536492" x2="99.1624309966918" y2="44.2446788875458"/>
    <line x1="99.1624309966918" y1="44.2446788875458" x2="99.4008089305887" y2="44.5553390593257"/>
    <line x1="99.4008089305887" y1="44.5553390593257" x2="99.5506595643456" y2="44.9171104916719"/>
    <line x1="99.5506595643456" y1="44.9171104916719" x2="99.601770824912" y2="45.3053390593257"/>
    <line x1="99.601770824912" y1="45.3053390593257" x2="99.5506595643456" y2="45.6935676269795"/>
    <line x1="99.5506595643456" y1="45.6935676269795" x2="99.4008089305887" y2="46.0553390593259"/>
    <line x1="99.4008089305887" y1="46.0553390593259" x2="99.1624309966918" y2="46.3659992311056"/>
    <line x1="99.1624309966918" y1="46.3659992311056" x2="98.851770824912" y2="46.6043771650023"/>
    <line x1="98.851770824912" y1="46.6043771650023" x2="98.4899993925658" y2="46.7542277987595"/>
    <line x1="98.4899993925658" y1="46.7542277987595" x2="98.101770824912" y2="46.8053390593257"/>
    <line x1="98.101770824912" y1="46.8053390593257" x2="97.7135422572582" y2="46.7542277987593"/>
    <line x1="97.7135422572582" y1="46.7542277987593" x2="97.351770824912" y2="46.6043771650026"/>
    <line x1="97.351770824912" y1="46.6043771650026" x2="97.0411106531322" y2="46.3659992311056"/>
    <line x1="97.0411106531322" y1="46.3659992311056" x2="96.8027327192354" y2="46.0553390593259"/>
    <line x1="96.8027327192354" y1="46.0553390593259" x2="96.6528820854784" y2="45.6935676269796"/>
    <line x1="63.5739255572696" y1="64.3977085924481" x2="63.7" y2="65.3553390593274"/>
    <line x1="63.7" y1="65.3553390593274" x2="63.5739255572696" y2="66.3129695262067"/>
    <line x1="63.5739255572696" y1="66.3129695262067" x2="63.2042939940024" y2="67.2053390593274"/>
    <line x1="63.2042939940024" y1="67.2053390593274" x2="62.6162950903902" y2="67.9716341497176"/>
    <line x1="62.6162950903902" y1="67.9716341497176" x2="61.85" y2="68.5596330533298"/>
    <line x1="61.85" y1="68.5596330533298" x2="60.9576304668793" y2="68.929264616597"/>
    <line x1="60.9576304668793" y1="68.929264616597" x2="60.0" y2="69.0553390593274"/>
    <line x1="60.0" y1="69.0553390593274" x2="59.0423695331207" y2="68.929264616597"/>
    <line x1="59.0423695331207" y1="68.929264616597" x2="58.15" y2="68.5596330533298"/>
    <line x1="58.15" y1="68.5596330533298" x2="57.3837049096098" y2="67.9716341497176"/>
    <line x1="57.3837049096098" y1="67.9716341497176" x2="56.7957060059976" y2="67.2053390593274"/>
    <line x1="56.7957060059976" y1="67.2053390593274" x2="56.4260744427304" y2="66.3129695262067"/>
    <line x1="56.4260744427304" y1="66.3129695262067" x2="56.3" y2="65.3553390593274"/>
    <line x1="56.3" y1="65.3553390593274" x2="56.4260744427304" y2="64.397708592448"/>
    <line x1="56.4260744427304" y1="64.397708592448" x2="56.7957060059976" y2="63.5053390593274"/>
    <line x1="56.7957060059976" y1="63.5053390593274" x2="57.3837049096098" y2="62.7390439689372"/>
    <line x1="57.3837049096098" y1="62.7390439689372" x2="58.15" y2="62.151045065325"/>
    <line x1="58.15" y1="62.151045065325" x2="59.0423695331207" y2="61.7814135020578"/>
    <line x1="59.0423695331207" y1="61.7814135020578" x2="60.0" y2="61.6553390593274"/>
    <line x1="60.0" y1="61.6553390593274" x2="60.9576304668793" y2="61.7814135020578"/>
    <line x1="60.9576304668793" y1="61.7814135020578" x2="61.85" y2="62.151045065325"/>
    <line x1="61.85" y1="62.151045065325" x2="62.6162950903902" y2="62.7390439689371"/>
    <line x1="62.6162950903902" y1="62.7390439689371" x2="63.2042939940024" y2="63.5053390593274"/>
    <line x1="63.2042939940024" y1="63.5053390593274" x2="63.5739255572696" y2="64.3977085924481"/>
    <line x1="40.0" y1="68.8553390593274" x2="40.3882285676538" y2="68.9064503198938"/>
    <line x1="40.3882285676538" y1="68.9064503198938" x2="40.75" y2="69.0563009536507"/>
    <line x1="40.75" y1="69.0563009536507" x2="41.0606601717798" y2="69.2946788875476"/>
    <line x1="41.0606601717798" y1="69.2946788875476" x2="41.2990381056767" y2="69.6053390593274"/>
    <line x1="41.2990381056767" y1="69.6053390593274" x2="41.4488887394336" y2="69.9671104916736"/>
    <line x1="41.4488887394336" y1="69.9671104916736" x2="41.5" y2="70.3553390593274"/>
    <line x1="41.5" y1="70.3553390593274" x2="41.4488887394336" y2="70.7435676269812"/>
    <line x1="41.4488887394336" y1="70.7435676269812" x2="41.2990381056767" y2="71.1053390593274"/>
    <line x1="41.2990381056767" y1="71.1053390593274" x2="41.0606601717798" y2="71.4159992311072"/>
    <line x1="41.0606601717798" y1="71.4159992311072" x2="40.75" y2="71.654377165004"/>
    <line x1="40.75" y1="71.654377165004" x2="40.3882285676538" y2="71.804227798761"/>
    <line x1="40.3882285676538" y1="71.804227798761" x2="40.0" y2="71.8553390593274"/>
    <line x1="40.0" y1="71.8553390593274" x2="39.6117714323462" y2="71.804227798761"/>
    <line x1="39.6117714323462" y1="71.804227798761" x2="39.25" y2="71.654377165004"/>
    <line x1="39.25" y1="71.654377165004" x2="38.9393398282202" y2="71.4159992311072"/>
    <line x1="38.9393398282202" y1="71.4159992311072" x2="38.7009618943233" y2="71.1053390593274"/>
    <line x1="38.7009618943233" y1="71.1053390593274" x2="38.5511112605664" y2="70.7435676269812"/>
    <line x1="38.5511112605664" y1="70.7435676269812" x2="38.5" y2="70.3553390593274"/>
    <line x1="38.5" y1="70.3553390593274" x2="38.5511112605664" y2="69.9671104916736"/>
    <line x1="38.5511112605664" y1="69.9671104916736" x2="38.7009618943233" y2="69.6053390593274"/>
    <line x1="38.7009618943233" y1="69.6053390593274" x2="38.9393398282202" y2="69.2946788875475"/>
    <line x1="38.9393398282202" y1="69.2946788875475" x2="39.25" y2="69.0563009536507"/>
    <line x1="39.25" y1="69.0563009536507" x2="39.6117714323462" y2="68.9064503198938"/>
    <line x1="39.6117714323462" y1="68.9064503198938" x2="40.0" y2="68.8553390593274"/>
    <line x1="40.0" y1="61.8553390593274" x2="39.6117714323462" y2="61.804227798761"/>
    <line x1="39.6117714323462" y1="61.804227798761" x2="39.25" y2="61.654377165004"/>
    <line x1="39.25" y1="61.654377165004" x2="38.9393398282202" y2="61.4159992311072"/>
    <line x1="38.9393398282202" y1="61.4159992311072" x2="38.7009618943233" y2="61.1053390593274"/>
    <line x1="38.7009618943233" y1="61.1053390593274" x2="38.5511112605664" y2="60.7435676269812"/>
    <line x1="38.5511112605664" y1="60.7435676269812" x2="38.5" y2="60.3553390593274"/>
    <line x1="38.5" y1="60.3553390593274" x2="38.5511112605664" y2="59.9671104916736"/>
    <line x1="38.5511112605664" y1="59.9671104916736" x2="38.7009618943233" y2="59.6053390593274"/>
    <line x1="38.7009618943233" y1="59.6053390593274" x2="38.9393398282202" y2="59.2946788875475"/>
    <line x1="38.9393398282202" y1="59.2946788875475" x2="39.25" y2="59.0563009536507"/>
    <line x1="39.25" y1="59.0563009536507" x2="39.6117714323462" y2="58.9064503198938"/>
    <line x1="39.6117714323462" y1="58.9064503198938" x2="40.0" y2="58.8553390593274"/>
    <line x1="40.0" y1="58.8553390593274" x2="40.3882285676538" y2="58.9064503198938"/>
    <line x1="40.3882285676538" y1="58.9064503198938" x2="40.75" y2="59.0563009536507"/>
    <line x1="40.75" y1="59.0563009536507" x2="41.0606601717798" y2="59.2946788875476"/>
    <line x1="41.0606601717798" y1="59.2946788875476" x2="41.2990381056767" y2="59.6053390593274"/>
    <line x1="41.2990381056767" y1="59.6053390593274" x2="41.4488887394336" y2="59.9671104916736"/>
    <line x1="41.4488887394336" y1="59.9671104916736" x2="41.5" y2="60.3553390593274"/>
    <line x1="41.5" y1="60.3553390593274" x2="41.4488887394336" y2="60.7435676269812"/>
    <line x1="41.4488887394336" y1="60.7435676269812" x2="41.2990381056767" y2="61.1053390593274"/>
    <line x1="41.2990381056767" y1="61.1053390593274" x2="41.0606601717798" y2="61.4159992311072"/>
    <line x1="41.0606601717798" y1="61.4159992311072" x2="40.75" y2="61.654377165004"/>
    <line x1="40.75" y1="61.654377165004" x2="40.3882285676538" y2="61.804227798761"/>
    <line x1="40.3882285676538" y1="61.804227798761" x2="40.0" y2="61.8553390593274"/>
    <line x1="13.5511112605664" y1="65.7435676269812" x2="13.5" y2="65.3553390593274"/>
    <line x1="13.5" y1="65.3553390593274" x2="13.5511112605664" y2="64.9671104916736"/>
    <line x1="13.5511112605664" y1="64.9671104916736" x2="13.7009618943233" y2="64.6053390593274"/>
    <line x1="13.7009618943233" y1="64.6053390593274" x2="13.9393398282202" y2="64.2946788875475"/>
    <line x1="13.9393398282202" y1="64.2946788875475" x2="14.25" y2="64.0563009536507"/>
    <line x1="14.25" y1="64.0563009536507" x2="14.6117714323462" y2="63.9064503198938"/>
    <line x1="14.6117714323462" y1="63.9064503198938" x2="15.0" y2="63.8553390593274"/>
    <line x1="15.0" y1="63.8553390593274" x2="15.3882285676538" y2="63.9064503198938"/>
    <line x1="15.3882285676538" y1="63.9064503198938" x2="15.75" y2="64.0563009536507"/>
    <line x1="15.75" y1="64.0563009536507" x2="16.0606601717798" y2="64.2946788875475"/>
    <line x1="16.0606601717798" y1="64.2946788875475" x2="16.2990381056767" y2="64.6053390593274"/>
    <line x1="16.2990381056767" y1="64.6053390593274" x2="16.4488887394336" y2="64.9671104916736"/>
    <line x1="16.4488887394336" y1="64.9671104916736" x2="16.5" y2="65.3553390593274"/>
    <line x1="16.5" y1="65.3553390593274" x2="16.4488887394336" y2="65.7435676269812"/>
    <line x1="16.4488887394336" y1="65.7435676269812" x2="16.2990381056767" y2="66.1053390593274"/>
    <line x1="16.2990381056767" y1="66.1053390593274" x2="16.0606601717798" y2="66.4159992311072"/>
    <line x1="16.0606601717798" y1="66.4159992311072" x2="15.75" y2="66.654377165004"/>
    <line x1="15.75" y1="66.654377165004" x2="15.3882285676538" y2="66.804227798761"/>
    <line x1="15.3882285676538" y1="66.804227798761" x2="15.0" y2="66.8553390593274"/>
    <line x1="15.0" y1="66.8553390593274" x2="14.6117714323462" y2="66.804227798761"/>
    <line x1="14.6117714323462" y1="66.804227798761" x2="14.25" y2="66.654377165004"/>
    <line x1="14.25" y1="66.654377165004" x2="13.9393398282202" y2="66.4159992311072"/>
    <line x1="13.9393398282202" y1="66.4159992311072" x2="13.7009618943233" y2="66.1053390593274"/>
    <line x1="13.7009618943233" y1="66.1053390593274" x2="13.5511112605664" y2="65.7435676269812"/>
    <line x1="51.9659258262891" y1="65.0965200142249" x2="52.0" y2="65.3553390593274"/>
    <line x1="52.0" y1="65.3553390593274" x2="51.9659258262891" y2="65.6141581044299"/>
    <line x1="51.9659258262891" y1="65.6141581044299" x2="51.8660254037844" y2="65.8553390593274"/>
    <line x1="51.8660254037844" y1="65.8553390593274" x2="51.7071067811865" y2="66.0624458405139"/>
    <line x1="51.7071067811865" y1="66.0624458405139" x2="51.5" y2="66.2213644631118"/>
    <line x1="51.5" y1="66.2213644631118" x2="51.2588190451025" y2="66.3212648856165"/>
    <line x1="51.2588190451025" y1="66.3212648856165" x2="51.0" y2="66.3553390593274"/>
    <line x1="51.0" y1="66.3553390593274" x2="50.7411809548975" y2="66.3212648856165"/>
    <line x1="50.7411809548975" y1="66.3212648856165" x2="50.5" y2="66.2213644631118"/>
    <line x1="50.5" y1="66.2213644631118" x2="50.2928932188135" y2="66.0624458405139"/>
    <line x1="50.2928932188135" y1="66.0624458405139" x2="50.1339745962156" y2="65.8553390593274"/>
    <line x1="50.1339745962156" y1="65.8553390593274" x2="50.0340741737109" y2="65.6141581044299"/>
    <line x1="50.0340741737109" y1="65.6141581044299" x2="50.0" y2="65.3553390593274"/>
    <line x1="50.0" y1="65.3553390593274" x2="50.0340741737109" y2="65.0965200142248"/>
    <line x1="50.0340741737109" y1="65.0965200142248" x2="50.1339745962156" y2="64.8553390593274"/>
    <line x1="50.1339745962156" y1="64.8553390593274" x2="50.2928932188135" y2="64.6482322781408"/>
    <line x1="50.2928932188135" y1="64.6482322781408" x2="50.5" y2="64.4893136555429"/>
    <line x1="50.5" y1="64.4893136555429" x2="50.7411809548975" y2="64.3894132330383"/>
    <line x1="50.7411809548975" y1="64.3894132330383" x2="51.0" y2="64.3553390593274"/>
    <line x1="51.0" y1="64.3553390593274" x2="51.2588190451025" y2="64.3894132330383"/>
    <line x1="51.2588190451025" y1="64.3894132330383" x2="51.5" y2="64.489313655543"/>
    <line x1="51.5" y1="64.489313655543" x2="51.7071067811865" y2="64.6482322781408"/>
    <line x1="51.7071067811865" y1="64.6482322781408" x2="51.8660254037844" y2="64.8553390593274"/>
    <line x1="51.8660254037844" y1="64.8553390593274" x2="51.9659258262891" y2="65.0965200142249"/>
    <line x1="68.0340741737109" y1="65.6141581044299" x2="68.0" y2="65.3553390593274"/>
    <line x1="68.0" y1="65.3553390593274" x2="68.0340741737109" y2="65.0965200142248"/>
    <line x1="68.0340741737109" y1="65.0965200142248" x2="68.1339745962156" y2="64.8553390593274"/>
    <line x1="68.1339745962156" y1="64.8553390593274" x2="68.2928932188134" y2="64.6482322781408"/>
    <line x1="68.2928932188134" y1="64.6482322781408" x2="68.5" y2="64.4893136555429"/>
    <line x1="68.5" y1="64.4893136555429" x2="68.7411809548975" y2="64.3894132330383"/>
    <line x1="68.7411809548975" y1="64.3894132330383" x2="69.0" y2="64.3553390593274"/>
    <line x1="69.0" y1="64.3553390593274" x2="69.2588190451025" y2="64.3894132330383"/>
    <line x1="69.2588190451025" y1="64.3894132330383" x2="69.5" y2="64.4893136555429"/>
    <line x1="69.5" y1="64.4893136555429" x2="69.7071067811866" y2="64.6482322781408"/>
    <line x1="69.7071067811866" y1="64.6482322781408" x2="69.8660254037844" y2="64.8553390593274"/>
    <line x1="69.8660254037844" y1="64.8553390593274" x2="69.9659258262891" y2="65.0965200142249"/>
    <line x1="69.9659258262891" y1="65.0965200142249" x2="70.0" y2="65.3553390593274"/>
    <line x1="70.0" y1="65.3553390593274" x2="69.9659258262891" y2="65.6141581044299"/>
    <line x1="69.9659258262891" y1="65.6141581044299" x2="69.8660254037844" y2="65.8553390593274"/>
    <line x1="69.8660254037844" y1="65.8553390593274" x2="69.7071067811866" y2="66.0624458405139"/>
    <line x1="69.7071067811866" y1="66.0624458405139" x2="69.5" y2="66.2213644631118"/>
    <line x1="69.5" y1="66.2213644631118" x2="69.2588190451025" y2="66.3212648856164"/>
    <line x1="69.2588190451025" y1="66.3212648856164" x2="69.0" y2="66.3553390593273"/>
    <line x1="69.0" y1="66.3553390593273" x2="68.7411809548975" y2="66.3212648856164"/>
    <line x1="68.7411809548975" y1="66.3212648856164" x2="68.5" y2="66.2213644631118"/>
    <line x1="68.5" y1="66.2213644631118" x2="68.2928932188134" y2="66.0624458405139"/>
    <line x1="68.2928932188134" y1="66.0624458405139" x2="68.1339745962156" y2="65.8553390593274"/>
    <line x1="68.1339745962156" y1="65.8553390593274" x2="68.0340741737109" y2="65.6141581044299"/>
  </g>
</svg>
