<?xml version="1.0" standalone="no"?>
<!DOCTYPE svg PUBLIC "-//W3C//DTD SVG 1.1//EN" "http://www.w3.org/Graphics/SVG/1.1/DTD/svg11.dtd">
<svg width="120.0mm" height="120.0mm"
 viewBox="0 0 120.0 120.0"
 xmlns="http://www.w3.org/2000/svg" version="1.1"
 xmlns:xlink="http://www.w3.org/1999/xlink">
<desc>Output from Flights of Ideas SVG Sketchup Plugin</desc>

<g id="text_annotations" font-size="10" stroke="rgb(255,0,0)" stroke-width="1">
</g>
  <g id="face0" fill="none" stroke="rgb(0,0,255)" stroke-width="1" stroke-miterlimit="4" stroke-dasharray="none" stroke-linejoin="round" stroke-linecap="round">
    <line x1="95.3553390593274" y1="95.3553390593273" x2="103.301270189222" y2="85.0"/>
    <line x1="103.301270189222" y1="85.0" x2="108.296291314453" y2="72.940952255126"/>
    <line x1="108.296291314453" y1="72.940952255126" x2="110.0" y2="60.0"/>
    <line x1="110.0" y1="60.0" x2="108.296291314453" y2="47.059047744874"/>
    <line x1="108.296291314453" y1="47.059047744874" x2="103.301270189222" y2="35.0"/>
    <line x1="103.301270189222" y1="35.0" x2="95.3553390593274" y2="24.6446609406726"/>
    <line x1="95.3553390593274" y1="24.6446609406726" x2="85.0" y2="16.6987298107781"/>
    <line x1="85.0" y1="16.6987298107781" x2="72.9409522551261" y2="11.7037086855466"/>
    <line x1="72.9409522551261" y1="11.7037086855466" x2="60.0" y2="10.0"/>
    <line x1="60.0" y1="10.0" x2="47.059047744874" y2="11.7037086855466"/>
    <line x1="47.059047744874" y1="11.7037086855466" x2="35.0" y2="16.698729810778"/>
    <line x1="35.0" y1="16.698729810778" x2="24.6446609406726" y2="24.6446609406726"/>
    <line x1="24.6446609406726" y1="24.6446609406726" x2="16.6987298107781" y2="35.0"/>
    <line x1="16.6987298107781" y1="35.0" x2="11.7037086855466" y2="47.0590477448739"/>
    <line x1="11.7037086855466" y1="47.0590477448739" x2="10.0" y2="60.0"/>
    <line x1="10.0" y1="60.0" x2="11.7037086855466" y2="72.940952255126"/>
    <line x1="11.7037086855466" y1="72.940952255126" x2="16.6987298107781" y2="84.9999999999999"/>
    <line x1="16.6987298107781" y1="84.9999999999999" x2="24.6446609406726" y2="95.3553390593274"/>
    <line x1="24.6446609406726" y1="95.3553390593274" x2="35.0" y2="103.301270189222"/>
    <line x1="35.0" y1="103.301270189222" x2="47.0590477448739" y2="108.296291314453"/>
    <line x1="47.0590477448739" y1="108.296291314453" x2="60.0" y2="110.0"/>
    <line x1="60.0" y1="110.0" x2="72.940952255126" y2="108.296291314453"/>
    <line x1="72.940952255126" y1="108.296291314453" x2="85.0" y2="103.301270189222"/>
    <line x1="85.0" y1="103.301270189222" x2="95.3553390593274" y2="95.3553390593273"/>
    <line x1="60.3882285676538" y1="21.4488887394336" x2="60.0" y2="21.5"/>
    <line x1="60.0" y1="21.5" x2="59.6117714323462" y2="21.4488887394336"/>
    <line x1="59.6117714323462" y1="21.4488887394336" x2="59.25" y2="21.2990381056766"/>
    <line x1="59.25" y1="21.2990381056766" x2="58.9393398282202" y2="21.0606601717798"/>
    <line x1="58.9393398282202" y1="21.0606601717798" x2="58.7009618943233" y2="20.75"/>
    <line x1="58.7009618943233" y1="20.75" x2="58.5511112605664" y2="20.3882285676538"/>
    <line x1="58.5511112605664" y1="20.3882285676538" x2="58.5" y2="20.0"/>
    <line x1="58.5" y1="20.0" x2="58.5511112605664" y2="19.6117714323462"/>
    <line x1="58.5511112605664" y1="19.6117714323462" x2="58.7009618943233" y2="19.25"/>
    <line x1="58.7009618943233" y1="19.25" x2="58.9393398282202" y2="18.9393398282202"/>
    <line x1="58.9393398282202" y1="18.9393398282202" x2="59.25" y2="18.7009618943233"/>
    <line x1="59.25" y1="18.7009618943233" x2="59.6117714323462" y2="18.5511112605664"/>
    <line x1="59.6117714323462" y1="18.5511112605664" x2="60.0" y2="18.5"/>
    <line x1="60.0" y1="18.5" x2="60.3882285676538" y2="18.5511112605664"/>
    <line x1="60.3882285676538" y1="18.5511112605664" x2="60.75" y2="18.7009618943233"/>
    <line x1="60.75" y1="18.7009618943233" x2="61.0606601717798" y2="18.9393398282202"/>
    <line x1="61.0606601717798" y1="18.9393398282202" x2="61.2990381056767" y2="19.25"/>
    <line x1="61.2990381056767" y1="19.25" x2="61.4488887394336" y2="19.6117714323462"/>
    <line x1="61.4488887394336" y1="19.6117714323462" x2="61.5" y2="20.0"/>
    <line x1="61.5" y1="20.0" x2="61.4488887394336" y2="20.3882285676538"/>
    <line x1="61.4488887394336" y1="20.3882285676538" x2="61.2990381056767" y2="20.75"/>
    <line x1="61.2990381056767" y1="20.75" x2="61.0606601717798" y2="21.0606601717798"/>
    <line x1="61.0606601717798" y1="21.0606601717798" x2="60.75" y2="21.2990381056766"/>
    <line x1="60.75" y1="21.2990381056766" x2="60.3882285676538" y2="21.4488887394336"/>
    <line x1="21.4488887394336" y1="59.6117714323462" x2="21.5" y2="60.0"/>
    <line x1="21.5" y1="60.0" x2="21.4488887394336" y2="60.3882285676538"/>
    <line x1="21.4488887394336" y1="60.3882285676538" x2="21.2990381056767" y2="60.75"/>
    <line x1="21.2990381056767" y1="60.75" x2="21.0606601717798" y2="61.0606601717798"/>
    <line x1="21.0606601717798" y1="61.0606601717798" x2="20.75" y2="61.2990381056767"/>
    <line x1="20.75" y1="61.2990381056767" x2="20.3882285676538" y2="61.4488887394336"/>
    <line x1="20.3882285676538" y1="61.4488887394336" x2="20.0" y2="61.5"/>
    <line x1="20.0" y1="61.5" x2="19.6117714323462" y2="61.4488887394336"/>
    <line x1="19.6117714323462" y1="61.4488887394336" x2="19.25" y2="61.2990381056767"/>
    <line x1="19.25" y1="61.2990381056767" x2="18.9393398282201" y2="61.0606601717798"/>
    <line x1="18.9393398282201" y1="61.0606601717798" x2="18.7009618943233" y2="60.75"/>
    <line x1="18.7009618943233" y1="60.75" x2="18.5511112605664" y2="60.3882285676538"/>
    <line x1="18.5511112605664" y1="60.3882285676538" x2="18.5" y2="60.0"/>
    <line x1="18.5" y1="60.0" x2="18.5511112605664" y2="59.6117714323462"/>
    <line x1="18.5511112605664" y1="59.6117714323462" x2="18.7009618943233" y2="59.25"/>
    <line x1="18.7009618943233" y1="59.25" x2="18.9393398282201" y2="58.9393398282202"/>
    <line x1="18.9393398282201" y1="58.9393398282202" x2="19.25" y2="58.7009618943233"/>
    <line x1="19.25" y1="58.7009618943233" x2="19.6117714323462" y2="58.5511112605664"/>
    <line x1="19.6117714323462" y1="58.5511112605664" x2="20.0" y2="58.5"/>
    <line x1="20.0" y1="58.5" x2="20.3882285676538" y2="58.5511112605664"/>
    <line x1="20.3882285676538" y1="58.5511112605664" x2="20.75" y2="58.7009618943233"/>
    <line x1="20.75" y1="58.7009618943233" x2="21.0606601717798" y2="58.9393398282202"/>
    <line x1="21.0606601717798" y1="58.9393398282202" x2="21.2990381056766" y2="59.25"/>
    <line x1="21.2990381056766" y1="59.25" x2="21.4488887394336" y2="59.6117714323462"/>
    <line x1="59.6117714323462" y1="98.5511112605664" x2="60.0" y2="98.5000000000001"/>
    <line x1="60.0" y1="98.5000000000001" x2="60.3882285676538" y2="98.5511112605663"/>
    <line x1="60.3882285676538" y1="98.5511112605663" x2="60.75" y2="98.7009618943234"/>
    <line x1="60.75" y1="98.7009618943234" x2="61.0606601717798" y2="98.9393398282202"/>
    <line x1="61.0606601717798" y1="98.9393398282202" x2="61.2990381056767" y2="99.25"/>
    <line x1="61.2990381056767" y1="99.25" x2="61.4488887394336" y2="99.6117714323462"/>
    <line x1="61.4488887394336" y1="99.6117714323462" x2="61.5" y2="100.0"/>
    <line x1="61.5" y1="100.0" x2="61.4488887394336" y2="100.388228567654"/>
    <line x1="61.4488887394336" y1="100.388228567654" x2="61.2990381056767" y2="100.75"/>
    <line x1="61.2990381056767" y1="100.75" x2="61.0606601717798" y2="101.06066017178"/>
    <line x1="61.0606601717798" y1="101.06066017178" x2="60.75" y2="101.299038105677"/>
    <line x1="60.75" y1="101.299038105677" x2="60.3882285676538" y2="101.448888739434"/>
    <line x1="60.3882285676538" y1="101.448888739434" x2="60.0" y2="101.5"/>
    <line x1="60.0" y1="101.5" x2="59.6117714323462" y2="101.448888739434"/>
    <line x1="59.6117714323462" y1="101.448888739434" x2="59.25" y2="101.299038105677"/>
    <line x1="59.25" y1="101.299038105677" x2="58.9393398282202" y2="101.06066017178"/>
    <line x1="58.9393398282202" y1="101.06066017178" x2="58.7009618943233" y2="100.75"/>
    <line x1="58.7009618943233" y1="100.75" x2="58.5511112605664" y2="100.388228567654"/>
    <line x1="58.5511112605664" y1="100.388228567654" x2="58.5" y2="100.0"/>
    <line x1="58.5" y1="100.0" x2="58.5511112605664" y2="99.6117714323462"/>
    <line x1="58.5511112605664" y1="99.6117714323462" x2="58.7009618943233" y2="99.25"/>
    <line x1="58.7009618943233" y1="99.25" x2="58.9393398282202" y2="98.9393398282202"/>
    <line x1="58.9393398282202" y1="98.9393398282202" x2="59.25" y2="98.7009618943233"/>
    <line x1="59.25" y1="98.7009618943233" x2="59.6117714323462" y2="98.5511112605664"/>
    <line x1="98.5511112605664" y1="60.3882285676538" x2="98.5" y2="60.0"/>
    <line x1="98.5" y1="60.0" x2="98.5511112605664" y2="59.6117714323462"/>
    <line x1="98.5511112605664" y1="59.6117714323462" x2="98.7009618943233" y2="59.25"/>
    <line x1="98.7009618943233" y1="59.25" x2="98.9393398282202" y2="58.9393398282202"/>
    <line x1="98.9393398282202" y1="58.9393398282202" x2="99.25" y2="58.7009618943233"/>
    <line x1="99.25" y1="58.7009618943233" x2="99.6117714323462" y2="58.5511112605664"/>
    <line x1="99.6117714323462" y1="58.5511112605664" x2="100.0" y2="58.5"/>
    <line x1="100.0" y1="58.5" x2="100.388228567654" y2="58.5511112605664"/>
    <line x1="100.388228567654" y1="58.5511112605664" x2="100.75" y2="58.7009618943233"/>
    <line x1="100.75" y1="58.7009618943233" x2="101.06066017178" y2="58.9393398282202"/>
    <line x1="101.06066017178" y1="58.9393398282202" x2="101.299038105677" y2="59.25"/>
    <line x1="101.299038105677" y1="59.25" x2="101.448888739434" y2="59.6117714323462"/>
    <line x1="101.448888739434" y1="59.6117714323462" x2="101.5" y2="60.0"/>
    <line x1="101.5" y1="60.0" x2="101.448888739434" y2="60.3882285676538"/>
    <line x1="101.448888739434" y1="60.3882285676538" x2="101.299038105677" y2="60.75"/>
    <line x1="101.299038105677" y1="60.75" x2="101.06066017178" y2="61.0606601717798"/>
    <line x1="101.06066017178" y1="61.0606601717798" x2="100.75" y2="61.2990381056766"/>
    <line x1="100.75" y1="61.2990381056766" x2="100.388228567654" y2="61.4488887394336"/>
    <line x1="100.388228567654" y1="61.4488887394336" x2="100.0" y2="61.5"/>
    <line x1="100.0" y1="61.5" x2="99.6117714323462" y2="61.4488887394336"/>
    <line x1="99.6117714323462" y1="61.4488887394336" x2="99.25" y2="61.2990381056766"/>
    <line x1="99.25" y1="61.2990381056766" x2="98.9393398282202" y2="61.0606601717798"/>
    <line x1="98.9393398282202" y1="61.0606601717798" x2="98.7009618943233" y2="60.75"/>
    <line x1="98.7009618943233" y1="60.75" x2="98.5511112605664" y2="60.3882285676538"/>
    <line x1="37.4877584587269" y1="38.0367965644036" x2="37.7261363926237" y2="37.7261363926238"/>
    <line x1="37.7261363926237" y1="37.7261363926238" x2="38.0367965644036" y2="37.4877584587269"/>
    <line x1="38.0367965644036" y1="37.4877584587269" x2="38.3985679967498" y2="37.3379078249699"/>
    <line x1="38.3985679967498" y1="37.3379078249699" x2="38.7867965644036" y2="37.2867965644035"/>
    <line x1="38.7867965644036" y1="37.2867965644035" x2="39.1750251320573" y2="37.3379078249699"/>
    <line x1="39.1750251320573" y1="37.3379078249699" x2="39.5367965644036" y2="37.4877584587269"/>
    <line x1="39.5367965644036" y1="37.4877584587269" x2="39.8474567361834" y2="37.7261363926237"/>
    <line x1="39.8474567361834" y1="37.7261363926237" x2="40.0858346700802" y2="38.0367965644035"/>
    <line x1="40.0858346700802" y1="38.0367965644035" x2="40.2356853038372" y2="38.3985679967498"/>
    <line x1="40.2356853038372" y1="38.3985679967498" x2="40.2867965644036" y2="38.7867965644035"/>
    <line x1="40.2867965644036" y1="38.7867965644035" x2="40.2356853038372" y2="39.1750251320573"/>
    <line x1="40.2356853038372" y1="39.1750251320573" x2="40.0858346700802" y2="39.5367965644036"/>
    <line x1="40.0858346700802" y1="39.5367965644036" x2="39.8474567361834" y2="39.8474567361834"/>
    <line x1="39.8474567361834" y1="39.8474567361834" x2="39.5367965644036" y2="40.0858346700802"/>
    <line x1="39.5367965644036" y1="40.0858346700802" x2="39.1750251320574" y2="40.2356853038372"/>
    <line x1="39.1750251320574" y1="40.2356853038372" x2="38.7867965644036" y2="40.2867965644036"/>
    <line x1="38.7867965644036" y1="40.2867965644036" x2="38.3985679967498" y2="40.2356853038372"/>
    <line x1="38.3985679967498" y1="40.2356853038372" x2="38.0367965644036" y2="40.0858346700802"/>
    <line x1="38.0367965644036" y1="40.0858346700802" x2="37.7261363926238" y2="39.8474567361834"/>
    <line x1="37.7261363926238" y1="39.8474567361834" x2="37.4877584587269" y2="39.5367965644036"/>
    <line x1="37.4877584587269" y1="39.5367965644036" x2="37.33790782497" y2="39.1750251320574"/>
    <line x1="37.33790782497" y1="39.1750251320574" x2="37.2867965644036" y2="38.7867965644036"/>
    <line x1="37.2867965644036" y1="38.7867965644036" x2="37.33790782497" y2="38.3985679967498"/>
    <line x1="37.33790782497" y1="38.3985679967498" x2="37.4877584587269" y2="38.0367965644036"/>
    <line x1="39.5367965644035" y1="79.9141653299198" x2="39.8474567361834" y2="80.1525432638165"/>
    <line x1="39.8474567361834" y1="80.1525432638165" x2="40.0858346700802" y2="80.4632034355964"/>
    <line x1="40.0858346700802" y1="80.4632034355964" x2="40.2356853038372" y2="80.8249748679426"/>
    <line x1="40.2356853038372" y1="80.8249748679426" x2="40.2867965644035" y2="81.2132034355964"/>
    <line x1="40.2867965644035" y1="81.2132034355964" x2="40.2356853038372" y2="81.6014320032501"/>
    <line x1="40.2356853038372" y1="81.6014320032501" x2="40.0858346700802" y2="81.9632034355963"/>
    <line x1="40.0858346700802" y1="81.9632034355963" x2="39.8474567361834" y2="82.2738636073762"/>
    <line x1="39.8474567361834" y1="82.2738636073762" x2="39.5367965644036" y2="82.512241541273"/>
    <line x1="39.5367965644036" y1="82.512241541273" x2="39.1750251320574" y2="82.66209217503"/>
    <line x1="39.1750251320574" y1="82.66209217503" x2="38.7867965644036" y2="82.7132034355964"/>
    <line x1="38.7867965644036" y1="82.7132034355964" x2="38.3985679967498" y2="82.66209217503"/>
    <line x1="38.3985679967498" y1="82.66209217503" x2="38.0367965644036" y2="82.5122415412731"/>
    <line x1="38.0367965644036" y1="82.5122415412731" x2="37.7261363926238" y2="82.2738636073763"/>
    <line x1="37.7261363926238" y1="82.2738636073763" x2="37.4877584587269" y2="81.9632034355965"/>
    <line x1="37.4877584587269" y1="81.9632034355965" x2="37.33790782497" y2="81.6014320032502"/>
    <line x1="37.33790782497" y1="81.6014320032502" x2="37.2867965644036" y2="81.2132034355965"/>
    <line x1="37.2867965644036" y1="81.2132034355965" x2="37.33790782497" y2="80.8249748679426"/>
    <line x1="37.33790782497" y1="80.8249748679426" x2="37.4877584587269" y2="80.4632034355965"/>
    <line x1="37.4877584587269" y1="80.4632034355965" x2="37.7261363926237" y2="80.1525432638166"/>
    <line x1="37.7261363926237" y1="80.1525432638166" x2="38.0367965644036" y2="79.9141653299198"/>
    <line x1="38.0367965644036" y1="79.9141653299198" x2="38.3985679967498" y2="79.7643146961628"/>
    <line x1="38.3985679967498" y1="79.7643146961628" x2="38.7867965644035" y2="79.7132034355964"/>
    <line x1="38.7867965644035" y1="79.7132034355964" x2="39.1750251320573" y2="79.7643146961628"/>
    <line x1="39.1750251320573" y1="79.7643146961628" x2="39.5367965644035" y2="79.9141653299198"/>
    <line x1="79.9141653299198" y1="80.4632034355964" x2="80.1525432638166" y2="80.1525432638166"/>
    <line x1="80.1525432638166" y1="80.1525432638166" x2="80.4632034355964" y2="79.9141653299197"/>
    <line x1="80.4632034355964" y1="79.9141653299197" x2="80.8249748679426" y2="79.7643146961628"/>
    <line x1="80.8249748679426" y1="79.7643146961628" x2="81.2132034355964" y2="79.7132034355964"/>
    <line x1="81.2132034355964" y1="79.7132034355964" x2="81.6014320032502" y2="79.7643146961628"/>
    <line x1="81.6014320032502" y1="79.7643146961628" x2="81.9632034355964" y2="79.9141653299197"/>
    <line x1="81.9632034355964" y1="79.9141653299197" x2="82.2738636073762" y2="80.1525432638166"/>
    <line x1="82.2738636073762" y1="80.1525432638166" x2="82.5122415412731" y2="80.4632034355964"/>
    <line x1="82.5122415412731" y1="80.4632034355964" x2="82.66209217503" y2="80.8249748679426"/>
    <line x1="82.66209217503" y1="80.8249748679426" x2="82.7132034355964" y2="81.2132034355964"/>
    <line x1="82.7132034355964" y1="81.2132034355964" x2="82.66209217503" y2="81.6014320032502"/>
    <line x1="82.66209217503" y1="81.6014320032502" x2="82.5122415412731" y2="81.9632034355964"/>
    <line x1="82.5122415412731" y1="81.9632034355964" x2="82.2738636073762" y2="82.2738636073763"/>
    <line x1="82.2738636073762" y1="82.2738636073763" x2="81.9632034355964" y2="82.5122415412731"/>
    <line x1="81.9632034355964" y1="82.5122415412731" x2="81.6014320032502" y2="82.66209217503"/>
    <line x1="81.6014320032502" y1="82.66209217503" x2="81.2132034355964" y2="82.7132034355964"/>
    <line x1="81.2132034355964" y1="82.7132034355964" x2="80.8249748679426" y2="82.66209217503"/>
    <line x1="80.8249748679426" y1="82.66209217503" x2="80.4632034355964" y2="82.5122415412731"/>
    <line x1="80.4632034355964" y1="82.5122415412731" x2="80.1525432638166" y2="82.2738636073763"/>
    <line x1="80.1525432638166" y1="82.2738636073763" x2="79.9141653299198" y2="81.9632034355964"/>
    <line x1="79.9141653299198" y1="81.9632034355964" x2="79.7643146961628" y2="81.6014320032502"/>
    <line x1="79.7643146961628" y1="81.6014320032502" x2="79.7132034355964" y2="81.2132034355964"/>
    <line x1="79.7132034355964" y1="81.2132034355964" x2="79.7643146961628" y2="80.8249748679426"/>
    <line x1="79.7643146961628" y1="80.8249748679426" x2="79.9141653299198" y2="80.4632034355964"/>
    <line x1="80.4632034355964" y1="40.0858346700802" x2="80.1525432638166" y2="39.8474567361834"/>
    <line x1="80.1525432638166" y1="39.8474567361834" x2="79.9141653299198" y2="39.5367965644036"/>
    <line x1="79.9141653299198" y1="39.5367965644036" x2="79.7643146961628" y2="39.1750251320574"/>
    <line x1="79.7643146961628" y1="39.1750251320574" x2="79.7132034355964" y2="38.7867965644036"/>
    <line x1="79.7132034355964" y1="38.7867965644036" x2="79.7643146961628" y2="38.3985679967498"/>
    <line x1="79.7643146961628" y1="38.3985679967498" x2="79.9141653299198" y2="38.0367965644036"/>
    <line x1="79.9141653299198" y1="38.0367965644036" x2="80.1525432638166" y2="37.7261363926237"/>
    <line x1="80.1525432638166" y1="37.7261363926237" x2="80.4632034355964" y2="37.4877584587269"/>
    <line x1="80.4632034355964" y1="37.4877584587269" x2="80.8249748679427" y2="37.33790782497"/>
    <line x1="80.8249748679427" y1="37.33790782497" x2="81.2132034355964" y2="37.2867965644036"/>
    <line x1="81.2132034355964" y1="37.2867965644036" x2="81.6014320032502" y2="37.33790782497"/>
    <line x1="81.6014320032502" y1="37.33790782497" x2="81.9632034355964" y2="37.4877584587269"/>
    <line x1="81.9632034355964" y1="37.4877584587269" x2="82.2738636073763" y2="37.7261363926237"/>
    <line x1="82.2738636073763" y1="37.7261363926237" x2="82.5122415412731" y2="38.0367965644036"/>
    <line x1="82.5122415412731" y1="38.0367965644036" x2="82.66209217503" y2="38.3985679967498"/>
    <line x1="82.66209217503" y1="38.3985679967498" x2="82.7132034355964" y2="38.7867965644036"/>
    <line x1="82.7132034355964" y1="38.7867965644036" x2="82.66209217503" y2="39.1750251320573"/>
    <line x1="82.66209217503" y1="39.1750251320573" x2="82.5122415412731" y2="39.5367965644036"/>
    <line x1="82.5122415412731" y1="39.5367965644036" x2="82.2738636073763" y2="39.8474567361834"/>
    <line x1="82.2738636073763" y1="39.8474567361834" x2="81.9632034355964" y2="40.0858346700802"/>
    <line x1="81.9632034355964" y1="40.0858346700802" x2="81.6014320032502" y2="40.2356853038372"/>
    <line x1="81.6014320032502" y1="40.2356853038372" x2="81.2132034355964" y2="40.2867965644036"/>
    <line x1="81.2132034355964" y1="40.2867965644036" x2="80.8249748679427" y2="40.2356853038372"/>
    <line x1="80.8249748679427" y1="40.2356853038372" x2="80.4632034355964" y2="40.0858346700802"/>
    <line x1="38.4044230990189" y1="59.0340741737109" x2="38.6632421441215" y2="59.0"/>
    <line x1="38.6632421441215" y1="59.0" x2="40.6632421441215" y2="59.0"/>
    <line x1="40.6632421441215" y1="59.0" x2="40.922061189224" y2="59.0340741737109"/>
    <line x1="40.922061189224" y1="59.0340741737109" x2="41.1632421441215" y2="59.1339745962156"/>
    <line x1="41.1632421441215" y1="59.1339745962156" x2="41.370348925308" y2="59.2928932188135"/>
    <line x1="41.370348925308" y1="59.2928932188135" x2="41.5292675479059" y2="59.5"/>
    <line x1="41.5292675479059" y1="59.5" x2="41.6291679704105" y2="59.7411809548975"/>
    <line x1="41.6291679704105" y1="59.7411809548975" x2="41.6632421441215" y2="60.0"/>
    <line x1="41.6632421441215" y1="60.0" x2="41.6291679704106" y2="60.2588190451025"/>
    <line x1="41.6291679704106" y1="60.2588190451025" x2="41.5292675479059" y2="60.5"/>
    <line x1="41.5292675479059" y1="60.5" x2="41.370348925308" y2="60.7071067811866"/>
    <line x1="41.370348925308" y1="60.7071067811866" x2="41.1632421441215" y2="60.8660254037844"/>
    <line x1="41.1632421441215" y1="60.8660254037844" x2="40.922061189224" y2="60.9659258262891"/>
    <line x1="40.922061189224" y1="60.9659258262891" x2="40.6632421441215" y2="61.0"/>
    <line x1="40.6632421441215" y1="61.0" x2="38.6632421441215" y2="61.0"/>
    <line x1="38.6632421441215" y1="61.0" x2="38.4044230990189" y2="60.9659258262891"/>
    <line x1="38.4044230990189" y1="60.9659258262891" x2="38.1632421441215" y2="60.8660254037844"/>
    <line x1="38.1632421441215" y1="60.8660254037844" x2="37.9561353629349" y2="60.7071067811865"/>
    <line x1="37.9561353629349" y1="60.7071067811865" x2="37.7972167403371" y2="60.5"/>
    <line x1="37.7972167403371" y1="60.5" x2="37.6973163178324" y2="60.2588190451025"/>
    <line x1="37.6973163178324" y1="60.2588190451025" x2="37.6632421441215" y2="60.0"/>
    <line x1="37.6632421441215" y1="60.0" x2="37.6973163178324" y2="59.7411809548975"/>
    <line x1="37.6973163178324" y1="59.7411809548975" x2="37.7972167403371" y2="59.5"/>
    <line x1="37.7972167403371" y1="59.5" x2="37.9561353629349" y2="59.2928932188134"/>
    <line x1="37.9561353629349" y1="59.2928932188134" x2="38.1632421441214" y2="59.1339745962156"/>
    <line x1="38.1632421441214" y1="59.1339745962156" x2="38.4044230990189" y2="59.0340741737109"/>
    <line x1="66.804423099019" y1="59.0340741737109" x2="67.0632421441215" y2="59.0"/>
    <line x1="67.0632421441215" y1="59.0" x2="69.0632421441215" y2="59.0"/>
    <line x1="69.0632421441215" y1="59.0" x2="69.322061189224" y2="59.0340741737109"/>
    <line x1="69.322061189224" y1="59.0340741737109" x2="69.5632421441215" y2="59.1339745962155"/>
    <line x1="69.5632421441215" y1="59.1339745962155" x2="69.770348925308" y2="59.2928932188134"/>
    <line x1="69.770348925308" y1="59.2928932188134" x2="69.9292675479059" y2="59.5"/>
    <line x1="69.9292675479059" y1="59.5" x2="70.0291679704106" y2="59.7411809548974"/>
    <line x1="70.0291679704106" y1="59.7411809548974" x2="70.0632421441215" y2="60.0"/>
    <line x1="70.0632421441215" y1="60.0" x2="70.0291679704106" y2="60.2588190451025"/>
    <line x1="70.0291679704106" y1="60.2588190451025" x2="69.9292675479059" y2="60.5"/>
    <line x1="69.9292675479059" y1="60.5" x2="69.770348925308" y2="60.7071067811865"/>
    <line x1="69.770348925308" y1="60.7071067811865" x2="69.5632421441215" y2="60.8660254037844"/>
    <line x1="69.5632421441215" y1="60.8660254037844" x2="69.322061189224" y2="60.965925826289"/>
    <line x1="69.322061189224" y1="60.965925826289" x2="69.0632421441215" y2="61.0"/>
    <line x1="69.0632421441215" y1="61.0" x2="67.0632421441215" y2="61.0"/>
    <line x1="67.0632421441215" y1="61.0" x2="66.804423099019" y2="60.965925826289"/>
    <line x1="66.804423099019" y1="60.965925826289" x2="66.5632421441215" y2="60.8660254037844"/>
    <line x1="66.5632421441215" y1="60.8660254037844" x2="66.356135362935" y2="60.7071067811865"/>
    <line x1="66.356135362935" y1="60.7071067811865" x2="66.1972167403371" y2="60.5"/>
    <line x1="66.1972167403371" y1="60.5" x2="66.0973163178324" y2="60.2588190451025"/>
    <line x1="66.0973163178324" y1="60.2588190451025" x2="66.0632421441215" y2="60.0"/>
    <line x1="66.0632421441215" y1="60.0" x2="66.0973163178324" y2="59.7411809548974"/>
    <line x1="66.0973163178324" y1="59.7411809548974" x2="66.1972167403371" y2="59.5"/>
    <line x1="66.1972167403371" y1="59.5" x2="66.356135362935" y2="59.2928932188134"/>
    <line x1="66.356135362935" y1="59.2928932188134" x2="66.5632421441215" y2="59.1339745962155"/>
    <line x1="66.5632421441215" y1="59.1339745962155" x2="66.804423099019" y2="59.0340741737109"/>
  </g>
</svg>
