<?xml version="1.0" standalone="no"?>
<!DOCTYPE svg PUBLIC "-//W3C//DTD SVG 1.1//EN" "http://www.w3.org/Graphics/SVG/1.1/DTD/svg11.dtd">
<svg width="36.0mm" height="130.0mm"
 viewBox="0 0 36.0 130.0"
 xmlns="http://www.w3.org/2000/svg" version="1.1"
 xmlns:xlink="http://www.w3.org/1999/xlink">
<desc>Output from Flights of Ideas SVG Sketchup Plugin</desc>

<g id="text_annotations" font-size="10" stroke="rgb(255,0,0)" stroke-width="1">
</g>
  <g id="face0" fill="none" stroke="rgb(0,0,255)" stroke-width="1" stroke-miterlimit="4" stroke-dasharray="none" stroke-linejoin="round" stroke-linecap="round">
    <line x1="11.0717967697245" y1="22.0" x2="12.3431457505076" y2="23.6568542494924"/>
    <line x1="12.3431457505076" y1="23.6568542494924" x2="12.3431457505076" y2="106.343145750508"/>
    <line x1="12.3431457505076" y1="106.343145750508" x2="11.0717967697245" y2="108.0"/>
    <line x1="11.0717967697245" y1="108.0" x2="10.2725933896875" y2="109.92944763918"/>
    <line x1="10.2725933896875" y1="109.92944763918" x2="10.0" y2="112.0"/>
    <line x1="10.0" y1="112.0" x2="10.2725933896875" y2="114.07055236082"/>
    <line x1="10.2725933896875" y1="114.07055236082" x2="11.0717967697245" y2="116.0"/>
    <line x1="11.0717967697245" y1="116.0" x2="12.3431457505076" y2="117.656854249492"/>
    <line x1="12.3431457505076" y1="117.656854249492" x2="14.0" y2="118.928203230276"/>
    <line x1="14.0" y1="118.928203230276" x2="15.9294476391798" y2="119.727406610313"/>
    <line x1="15.9294476391798" y1="119.727406610313" x2="18.0" y2="120.0"/>
    <line x1="18.0" y1="120.0" x2="20.0705523608202" y2="119.727406610313"/>
    <line x1="20.0705523608202" y1="119.727406610313" x2="22.0" y2="118.928203230276"/>
    <line x1="22.0" y1="118.928203230276" x2="23.6568542494924" y2="117.656854249492"/>
    <line x1="23.6568542494924" y1="117.656854249492" x2="24.9282032302755" y2="116.0"/>
    <line x1="24.9282032302755" y1="116.0" x2="25.7274066103125" y2="114.07055236082"/>
    <line x1="25.7274066103125" y1="114.07055236082" x2="26.0" y2="112.0"/>
    <line x1="26.0" y1="112.0" x2="26.0" y2="18.0"/>
    <line x1="26.0" y1="18.0" x2="25.7274066103125" y2="15.9294476391798"/>
    <line x1="25.7274066103125" y1="15.9294476391798" x2="24.9282032302755" y2="14.0"/>
    <line x1="24.9282032302755" y1="14.0" x2="23.6568542494924" y2="12.3431457505076"/>
    <line x1="23.6568542494924" y1="12.3431457505076" x2="22.0" y2="11.0717967697245"/>
    <line x1="22.0" y1="11.0717967697245" x2="20.0705523608202" y2="10.2725933896875"/>
    <line x1="20.0705523608202" y1="10.2725933896875" x2="18.0" y2="10.0"/>
    <line x1="18.0" y1="10.0" x2="15.9294476391798" y2="10.2725933896875"/>
    <line x1="15.9294476391798" y1="10.2725933896875" x2="14.0" y2="11.0717967697245"/>
    <line x1="14.0" y1="11.0717967697245" x2="12.3431457505076" y2="12.3431457505076"/>
    <line x1="12.3431457505076" y1="12.3431457505076" x2="11.0717967697245" y2="14.0"/>
    <line x1="11.0717967697245" y1="14.0" x2="10.2725933896875" y2="15.9294476391798"/>
    <line x1="10.2725933896875" y1="15.9294476391798" x2="10.0" y2="18.0"/>
    <line x1="10.0" y1="18.0" x2="10.2725933896875" y2="20.0705523608202"/>
    <line x1="10.2725933896875" y1="20.0705523608202" x2="11.0717967697245" y2="22.0"/>
    <line x1="18.9576304668793" y1="21.5739255572695" x2="18.0" y2="21.7"/>
    <line x1="18.0" y1="21.7" x2="17.0423695331207" y2="21.5739255572695"/>
    <line x1="17.0423695331207" y1="21.5739255572695" x2="16.15" y2="21.2042939940024"/>
    <line x1="16.15" y1="21.2042939940024" x2="15.3837049096098" y2="20.6162950903902"/>
    <line x1="15.3837049096098" y1="20.6162950903902" x2="14.7957060059976" y2="19.85"/>
    <line x1="14.7957060059976" y1="19.85" x2="14.4260744427305" y2="18.9576304668794"/>
    <line x1="14.4260744427305" y1="18.9576304668794" x2="14.3" y2="18.0"/>
    <line x1="14.3" y1="18.0" x2="14.4260744427305" y2="17.0423695331207"/>
    <line x1="14.4260744427305" y1="17.0423695331207" x2="14.7957060059976" y2="16.15"/>
    <line x1="14.7957060059976" y1="16.15" x2="15.3837049096098" y2="15.3837049096098"/>
    <line x1="15.3837049096098" y1="15.3837049096098" x2="16.15" y2="14.7957060059976"/>
    <line x1="16.15" y1="14.7957060059976" x2="17.0423695331207" y2="14.4260744427305"/>
    <line x1="17.0423695331207" y1="14.4260744427305" x2="18.0" y2="14.3"/>
    <line x1="18.0" y1="14.3" x2="18.9576304668793" y2="14.4260744427305"/>
    <line x1="18.9576304668793" y1="14.4260744427305" x2="19.85" y2="14.7957060059976"/>
    <line x1="19.85" y1="14.7957060059976" x2="20.6162950903902" y2="15.3837049096098"/>
    <line x1="20.6162950903902" y1="15.3837049096098" x2="21.2042939940024" y2="16.15"/>
    <line x1="21.2042939940024" y1="16.15" x2="21.5739255572696" y2="17.0423695331207"/>
    <line x1="21.5739255572696" y1="17.0423695331207" x2="21.7" y2="18.0"/>
    <line x1="21.7" y1="18.0" x2="21.5739255572696" y2="18.9576304668794"/>
    <line x1="21.5739255572696" y1="18.9576304668794" x2="21.2042939940024" y2="19.85"/>
    <line x1="21.2042939940024" y1="19.85" x2="20.6162950903902" y2="20.6162950903902"/>
    <line x1="20.6162950903902" y1="20.6162950903902" x2="19.85" y2="21.2042939940024"/>
    <line x1="19.85" y1="21.2042939940024" x2="18.9576304668793" y2="21.5739255572695"/>
    <line x1="16.7009618943234" y1="111.25" x2="16.9393398282202" y2="110.93933982822"/>
    <line x1="16.9393398282202" y1="110.93933982822" x2="17.25" y2="110.700961894323"/>
    <line x1="17.25" y1="110.700961894323" x2="17.6117714323462" y2="110.551111260566"/>
    <line x1="17.6117714323462" y1="110.551111260566" x2="18.0" y2="110.5"/>
    <line x1="18.0" y1="110.5" x2="18.3882285676538" y2="110.551111260566"/>
    <line x1="18.3882285676538" y1="110.551111260566" x2="18.75" y2="110.700961894323"/>
    <line x1="18.75" y1="110.700961894323" x2="19.0606601717798" y2="110.93933982822"/>
    <line x1="19.0606601717798" y1="110.93933982822" x2="19.2990381056767" y2="111.25"/>
    <line x1="19.2990381056767" y1="111.25" x2="19.4488887394336" y2="111.611771432346"/>
    <line x1="19.4488887394336" y1="111.611771432346" x2="19.5" y2="112.0"/>
    <line x1="19.5" y1="112.0" x2="19.4488887394336" y2="112.388228567654"/>
    <line x1="19.4488887394336" y1="112.388228567654" x2="19.2990381056767" y2="112.75"/>
    <line x1="19.2990381056767" y1="112.75" x2="19.0606601717798" y2="113.06066017178"/>
    <line x1="19.0606601717798" y1="113.06066017178" x2="18.75" y2="113.299038105677"/>
    <line x1="18.75" y1="113.299038105677" x2="18.3882285676538" y2="113.448888739434"/>
    <line x1="18.3882285676538" y1="113.448888739434" x2="18.0" y2="113.5"/>
    <line x1="18.0" y1="113.5" x2="17.6117714323462" y2="113.448888739434"/>
    <line x1="17.6117714323462" y1="113.448888739434" x2="17.25" y2="113.299038105677"/>
    <line x1="17.25" y1="113.299038105677" x2="16.9393398282202" y2="113.06066017178"/>
    <line x1="16.9393398282202" y1="113.06066017178" x2="16.7009618943234" y2="112.75"/>
    <line x1="16.7009618943234" y1="112.75" x2="16.5511112605664" y2="112.388228567654"/>
    <line x1="16.5511112605664" y1="112.388228567654" x2="16.5" y2="112.0"/>
    <line x1="16.5" y1="112.0" x2="16.5511112605664" y2="111.611771432346"/>
    <line x1="16.5511112605664" y1="111.611771432346" x2="16.7009618943234" y2="111.25"/>
    <line x1="17.7411809548975" y1="26.0340741737109" x2="18.0" y2="26.0"/>
    <line x1="18.0" y1="26.0" x2="18.2588190451025" y2="26.0340741737109"/>
    <line x1="18.2588190451025" y1="26.0340741737109" x2="18.5" y2="26.1339745962156"/>
    <line x1="18.5" y1="26.1339745962156" x2="18.7071067811866" y2="26.2928932188134"/>
    <line x1="18.7071067811866" y1="26.2928932188134" x2="18.8660254037844" y2="26.5"/>
    <line x1="18.8660254037844" y1="26.5" x2="18.9659258262891" y2="26.7411809548975"/>
    <line x1="18.9659258262891" y1="26.7411809548975" x2="19.0" y2="27.0"/>
    <line x1="19.0" y1="27.0" x2="18.9659258262891" y2="27.2588190451025"/>
    <line x1="18.9659258262891" y1="27.2588190451025" x2="18.8660254037844" y2="27.5"/>
    <line x1="18.8660254037844" y1="27.5" x2="18.7071067811866" y2="27.7071067811865"/>
    <line x1="18.7071067811866" y1="27.7071067811865" x2="18.5" y2="27.8660254037844"/>
    <line x1="18.5" y1="27.8660254037844" x2="18.2588190451025" y2="27.9659258262891"/>
    <line x1="18.2588190451025" y1="27.9659258262891" x2="18.0" y2="28.0"/>
    <line x1="18.0" y1="28.0" x2="17.7411809548975" y2="27.9659258262891"/>
    <line x1="17.7411809548975" y1="27.9659258262891" x2="17.5" y2="27.8660254037844"/>
    <line x1="17.5" y1="27.8660254037844" x2="17.2928932188135" y2="27.7071067811865"/>
    <line x1="17.2928932188135" y1="27.7071067811865" x2="17.1339745962156" y2="27.5"/>
    <line x1="17.1339745962156" y1="27.5" x2="17.0340741737109" y2="27.2588190451025"/>
    <line x1="17.0340741737109" y1="27.2588190451025" x2="17.0" y2="27.0"/>
    <line x1="17.0" y1="27.0" x2="17.0340741737109" y2="26.7411809548975"/>
    <line x1="17.0340741737109" y1="26.7411809548975" x2="17.1339745962156" y2="26.5"/>
    <line x1="17.1339745962156" y1="26.5" x2="17.2928932188135" y2="26.2928932188134"/>
    <line x1="17.2928932188135" y1="26.2928932188134" x2="17.5" y2="26.1339745962156"/>
    <line x1="17.5" y1="26.1339745962156" x2="17.7411809548975" y2="26.0340741737109"/>
    <line x1="18.3882285676538" y1="43.4488887394336" x2="18.0" y2="43.5"/>
    <line x1="18.0" y1="43.5" x2="17.6117714323462" y2="43.4488887394336"/>
    <line x1="17.6117714323462" y1="43.4488887394336" x2="17.25" y2="43.2990381056766"/>
    <line x1="17.25" y1="43.2990381056766" x2="16.9393398282202" y2="43.0606601717798"/>
    <line x1="16.9393398282202" y1="43.0606601717798" x2="16.7009618943234" y2="42.75"/>
    <line x1="16.7009618943234" y1="42.75" x2="16.5511112605664" y2="42.3882285676538"/>
    <line x1="16.5511112605664" y1="42.3882285676538" x2="16.5" y2="42.0"/>
    <line x1="16.5" y1="42.0" x2="16.5511112605664" y2="41.6117714323462"/>
    <line x1="16.5511112605664" y1="41.6117714323462" x2="16.7009618943234" y2="41.25"/>
    <line x1="16.7009618943234" y1="41.25" x2="16.9393398282202" y2="40.9393398282202"/>
    <line x1="16.9393398282202" y1="40.9393398282202" x2="17.25" y2="40.7009618943233"/>
    <line x1="17.25" y1="40.7009618943233" x2="17.6117714323462" y2="40.5511112605664"/>
    <line x1="17.6117714323462" y1="40.5511112605664" x2="18.0" y2="40.5"/>
    <line x1="18.0" y1="40.5" x2="18.3882285676538" y2="40.5511112605664"/>
    <line x1="18.3882285676538" y1="40.5511112605664" x2="18.75" y2="40.7009618943233"/>
    <line x1="18.75" y1="40.7009618943233" x2="19.0606601717798" y2="40.9393398282202"/>
    <line x1="19.0606601717798" y1="40.9393398282202" x2="19.2990381056767" y2="41.25"/>
    <line x1="19.2990381056767" y1="41.25" x2="19.4488887394336" y2="41.6117714323462"/>
    <line x1="19.4488887394336" y1="41.6117714323462" x2="19.5" y2="42.0"/>
    <line x1="19.5" y1="42.0" x2="19.4488887394336" y2="42.3882285676538"/>
    <line x1="19.4488887394336" y1="42.3882285676538" x2="19.2990381056767" y2="42.75"/>
    <line x1="19.2990381056767" y1="42.75" x2="19.0606601717798" y2="43.0606601717798"/>
    <line x1="19.0606601717798" y1="43.0606601717798" x2="18.75" y2="43.2990381056766"/>
    <line x1="18.75" y1="43.2990381056766" x2="18.3882285676538" y2="43.4488887394336"/>
    <line x1="17.25" y1="73.2990381056766" x2="16.9393398282202" y2="73.0606601717798"/>
    <line x1="16.9393398282202" y1="73.0606601717798" x2="16.7009618943234" y2="72.75"/>
    <line x1="16.7009618943234" y1="72.75" x2="16.5511112605664" y2="72.3882285676538"/>
    <line x1="16.5511112605664" y1="72.3882285676538" x2="16.5" y2="72.0"/>
    <line x1="16.5" y1="72.0" x2="16.5511112605664" y2="71.6117714323462"/>
    <line x1="16.5511112605664" y1="71.6117714323462" x2="16.7009618943234" y2="71.25"/>
    <line x1="16.7009618943234" y1="71.25" x2="16.9393398282202" y2="70.9393398282201"/>
    <line x1="16.9393398282202" y1="70.9393398282201" x2="17.25" y2="70.7009618943233"/>
    <line x1="17.25" y1="70.7009618943233" x2="17.6117714323462" y2="70.5511112605664"/>
    <line x1="17.6117714323462" y1="70.5511112605664" x2="18.0" y2="70.5"/>
    <line x1="18.0" y1="70.5" x2="18.3882285676538" y2="70.5511112605664"/>
    <line x1="18.3882285676538" y1="70.5511112605664" x2="18.75" y2="70.7009618943233"/>
    <line x1="18.75" y1="70.7009618943233" x2="19.0606601717798" y2="70.9393398282201"/>
    <line x1="19.0606601717798" y1="70.9393398282201" x2="19.2990381056767" y2="71.25"/>
    <line x1="19.2990381056767" y1="71.25" x2="19.4488887394336" y2="71.6117714323462"/>
    <line x1="19.4488887394336" y1="71.6117714323462" x2="19.5" y2="72.0"/>
    <line x1="19.5" y1="72.0" x2="19.4488887394336" y2="72.3882285676538"/>
    <line x1="19.4488887394336" y1="72.3882285676538" x2="19.2990381056767" y2="72.75"/>
    <line x1="19.2990381056767" y1="72.75" x2="19.0606601717798" y2="73.0606601717798"/>
    <line x1="19.0606601717798" y1="73.0606601717798" x2="18.75" y2="73.2990381056766"/>
    <line x1="18.75" y1="73.2990381056766" x2="18.3882285676538" y2="73.4488887394336"/>
    <line x1="18.3882285676538" y1="73.4488887394336" x2="18.0" y2="73.5"/>
    <line x1="18.0" y1="73.5" x2="17.6117714323462" y2="73.4488887394336"/>
    <line x1="17.6117714323462" y1="73.4488887394336" x2="17.25" y2="73.2990381056766"/>
  </g>
</svg>
