<?xml version="1.0" standalone="no"?>
<!DOCTYPE svg PUBLIC "-//W3C//DTD SVG 1.1//EN" "http://www.w3.org/Graphics/SVG/1.1/DTD/svg11.dtd">
<svg width="120.0mm" height="120.0mm"
 viewBox="0 0 120.0 120.0"
 xmlns="http://www.w3.org/2000/svg" version="1.1"
 xmlns:xlink="http://www.w3.org/1999/xlink">
<desc>Output from Flights of Ideas SVG Sketchup Plugin</desc>

<g id="text_annotations" font-size="10" stroke="rgb(255,0,0)" stroke-width="1">
</g>
  <g id="face0" fill="none" stroke="rgb(0,0,255)" stroke-width="1" stroke-miterlimit="4" stroke-dasharray="none" stroke-linejoin="round" stroke-linecap="round">
    <line x1="11.7037086855466" y1="47.0590477448739" x2="10.0" y2="60.0"/>
    <line x1="10.0" y1="60.0" x2="11.7037086855466" y2="72.940952255126"/>
    <line x1="11.7037086855466" y1="72.940952255126" x2="16.698729810778" y2="85.0"/>
    <line x1="16.698729810778" y1="85.0" x2="24.6446609406726" y2="95.3553390593274"/>
    <line x1="24.6446609406726" y1="95.3553390593274" x2="35.0" y2="103.301270189222"/>
    <line x1="35.0" y1="103.301270189222" x2="47.0590477448739" y2="108.296291314453"/>
    <line x1="47.0590477448739" y1="108.296291314453" x2="60.0" y2="110.0"/>
    <line x1="60.0" y1="110.0" x2="72.940952255126" y2="108.296291314453"/>
    <line x1="72.940952255126" y1="108.296291314453" x2="85.0" y2="103.301270189222"/>
    <line x1="85.0" y1="103.301270189222" x2="95.3553390593274" y2="95.3553390593274"/>
    <line x1="95.3553390593274" y1="95.3553390593274" x2="103.301270189222" y2="85.0"/>
    <line x1="103.301270189222" y1="85.0" x2="108.296291314453" y2="72.9409522551261"/>
    <line x1="108.296291314453" y1="72.9409522551261" x2="110.0" y2="60.0000000000001"/>
    <line x1="110.0" y1="60.0000000000001" x2="108.296291314453" y2="47.0590477448739"/>
    <line x1="108.296291314453" y1="47.0590477448739" x2="103.301270189222" y2="35.0"/>
    <line x1="103.301270189222" y1="35.0" x2="95.3553390593274" y2="24.6446609406727"/>
    <line x1="95.3553390593274" y1="24.6446609406727" x2="85.0" y2="16.6987298107781"/>
    <line x1="85.0" y1="16.6987298107781" x2="72.9409522551261" y2="11.7037086855466"/>
    <line x1="72.9409522551261" y1="11.7037086855466" x2="60.0" y2="10.0"/>
    <line x1="60.0" y1="10.0" x2="47.059047744874" y2="11.7037086855466"/>
    <line x1="47.059047744874" y1="11.7037086855466" x2="35.0" y2="16.6987298107781"/>
    <line x1="35.0" y1="16.6987298107781" x2="24.6446609406726" y2="24.6446609406726"/>
    <line x1="24.6446609406726" y1="24.6446609406726" x2="16.6987298107781" y2="35.0"/>
    <line x1="16.6987298107781" y1="35.0" x2="11.7037086855466" y2="47.0590477448739"/>
    <line x1="40.0858346700802" y1="80.4632034355964" x2="40.2356853038372" y2="80.8249748679426"/>
    <line x1="40.2356853038372" y1="80.8249748679426" x2="40.2867965644036" y2="81.2132034355964"/>
    <line x1="40.2867965644036" y1="81.2132034355964" x2="40.2356853038372" y2="81.6014320032502"/>
    <line x1="40.2356853038372" y1="81.6014320032502" x2="40.0858346700802" y2="81.9632034355964"/>
    <line x1="40.0858346700802" y1="81.9632034355964" x2="39.8474567361834" y2="82.2738636073762"/>
    <line x1="39.8474567361834" y1="82.2738636073762" x2="39.5367965644036" y2="82.5122415412731"/>
    <line x1="39.5367965644036" y1="82.5122415412731" x2="39.1750251320574" y2="82.66209217503"/>
    <line x1="39.1750251320574" y1="82.66209217503" x2="38.7867965644036" y2="82.7132034355964"/>
    <line x1="38.7867965644036" y1="82.7132034355964" x2="38.3985679967498" y2="82.66209217503"/>
    <line x1="38.3985679967498" y1="82.66209217503" x2="38.0367965644036" y2="82.5122415412731"/>
    <line x1="38.0367965644036" y1="82.5122415412731" x2="37.7261363926237" y2="82.2738636073763"/>
    <line x1="37.7261363926237" y1="82.2738636073763" x2="37.4877584587269" y2="81.9632034355964"/>
    <line x1="37.4877584587269" y1="81.9632034355964" x2="37.33790782497" y2="81.6014320032502"/>
    <line x1="37.33790782497" y1="81.6014320032502" x2="37.2867965644035" y2="81.2132034355964"/>
    <line x1="37.2867965644035" y1="81.2132034355964" x2="37.33790782497" y2="80.8249748679426"/>
    <line x1="37.33790782497" y1="80.8249748679426" x2="37.4877584587269" y2="80.4632034355964"/>
    <line x1="37.4877584587269" y1="80.4632034355964" x2="37.7261363926237" y2="80.1525432638166"/>
    <line x1="37.7261363926237" y1="80.1525432638166" x2="38.0367965644036" y2="79.9141653299197"/>
    <line x1="38.0367965644036" y1="79.9141653299197" x2="38.3985679967498" y2="79.7643146961628"/>
    <line x1="38.3985679967498" y1="79.7643146961628" x2="38.7867965644036" y2="79.7132034355964"/>
    <line x1="38.7867965644036" y1="79.7132034355964" x2="39.1750251320574" y2="79.7643146961628"/>
    <line x1="39.1750251320574" y1="79.7643146961628" x2="39.5367965644036" y2="79.9141653299197"/>
    <line x1="39.5367965644036" y1="79.9141653299197" x2="39.8474567361834" y2="80.1525432638166"/>
    <line x1="39.8474567361834" y1="80.1525432638166" x2="40.0858346700802" y2="80.4632034355964"/>
    <line x1="82.66209217503" y1="80.8249748679426" x2="82.7132034355964" y2="81.2132034355964"/>
    <line x1="82.7132034355964" y1="81.2132034355964" x2="82.66209217503" y2="81.6014320032502"/>
    <line x1="82.66209217503" y1="81.6014320032502" x2="82.512241541273" y2="81.9632034355965"/>
    <line x1="82.512241541273" y1="81.9632034355965" x2="82.2738636073762" y2="82.2738636073763"/>
    <line x1="82.2738636073762" y1="82.2738636073763" x2="81.9632034355964" y2="82.5122415412731"/>
    <line x1="81.9632034355964" y1="82.5122415412731" x2="81.6014320032502" y2="82.66209217503"/>
    <line x1="81.6014320032502" y1="82.66209217503" x2="81.2132034355964" y2="82.7132034355964"/>
    <line x1="81.2132034355964" y1="82.7132034355964" x2="80.8249748679426" y2="82.66209217503"/>
    <line x1="80.8249748679426" y1="82.66209217503" x2="80.4632034355964" y2="82.5122415412731"/>
    <line x1="80.4632034355964" y1="82.5122415412731" x2="80.1525432638166" y2="82.2738636073763"/>
    <line x1="80.1525432638166" y1="82.2738636073763" x2="79.9141653299198" y2="81.9632034355964"/>
    <line x1="79.9141653299198" y1="81.9632034355964" x2="79.7643146961628" y2="81.6014320032502"/>
    <line x1="79.7643146961628" y1="81.6014320032502" x2="79.7132034355964" y2="81.2132034355965"/>
    <line x1="79.7132034355964" y1="81.2132034355965" x2="79.7643146961628" y2="80.8249748679427"/>
    <line x1="79.7643146961628" y1="80.8249748679427" x2="79.9141653299198" y2="80.4632034355964"/>
    <line x1="79.9141653299198" y1="80.4632034355964" x2="80.1525432638166" y2="80.1525432638166"/>
    <line x1="80.1525432638166" y1="80.1525432638166" x2="80.4632034355964" y2="79.9141653299198"/>
    <line x1="80.4632034355964" y1="79.9141653299198" x2="80.8249748679426" y2="79.7643146961628"/>
    <line x1="80.8249748679426" y1="79.7643146961628" x2="81.2132034355964" y2="79.7132034355964"/>
    <line x1="81.2132034355964" y1="79.7132034355964" x2="81.6014320032502" y2="79.7643146961628"/>
    <line x1="81.6014320032502" y1="79.7643146961628" x2="81.9632034355964" y2="79.9141653299198"/>
    <line x1="81.9632034355964" y1="79.9141653299198" x2="82.2738636073762" y2="80.1525432638166"/>
    <line x1="82.2738636073762" y1="80.1525432638166" x2="82.5122415412731" y2="80.4632034355964"/>
    <line x1="82.5122415412731" y1="80.4632034355964" x2="82.66209217503" y2="80.8249748679426"/>
    <line x1="38.0367965644036" y1="37.4877584587269" x2="38.3985679967498" y2="37.33790782497"/>
    <line x1="38.3985679967498" y1="37.33790782497" x2="38.7867965644036" y2="37.2867965644036"/>
    <line x1="38.7867965644036" y1="37.2867965644036" x2="39.1750251320574" y2="37.33790782497"/>
    <line x1="39.1750251320574" y1="37.33790782497" x2="39.5367965644036" y2="37.4877584587269"/>
    <line x1="39.5367965644036" y1="37.4877584587269" x2="39.8474567361834" y2="37.7261363926237"/>
    <line x1="39.8474567361834" y1="37.7261363926237" x2="40.0858346700802" y2="38.0367965644036"/>
    <line x1="40.0858346700802" y1="38.0367965644036" x2="40.2356853038372" y2="38.3985679967498"/>
    <line x1="40.2356853038372" y1="38.3985679967498" x2="40.2867965644036" y2="38.7867965644036"/>
    <line x1="40.2867965644036" y1="38.7867965644036" x2="40.2356853038372" y2="39.1750251320574"/>
    <line x1="40.2356853038372" y1="39.1750251320574" x2="40.0858346700802" y2="39.5367965644036"/>
    <line x1="40.0858346700802" y1="39.5367965644036" x2="39.8474567361834" y2="39.8474567361834"/>
    <line x1="39.8474567361834" y1="39.8474567361834" x2="39.5367965644036" y2="40.0858346700803"/>
    <line x1="39.5367965644036" y1="40.0858346700803" x2="39.1750251320574" y2="40.2356853038372"/>
    <line x1="39.1750251320574" y1="40.2356853038372" x2="38.7867965644036" y2="40.2867965644036"/>
    <line x1="38.7867965644036" y1="40.2867965644036" x2="38.3985679967498" y2="40.2356853038372"/>
    <line x1="38.3985679967498" y1="40.2356853038372" x2="38.0367965644036" y2="40.0858346700803"/>
    <line x1="38.0367965644036" y1="40.0858346700803" x2="37.7261363926237" y2="39.8474567361834"/>
    <line x1="37.7261363926237" y1="39.8474567361834" x2="37.4877584587269" y2="39.5367965644036"/>
    <line x1="37.4877584587269" y1="39.5367965644036" x2="37.33790782497" y2="39.1750251320574"/>
    <line x1="37.33790782497" y1="39.1750251320574" x2="37.2867965644035" y2="38.7867965644036"/>
    <line x1="37.2867965644035" y1="38.7867965644036" x2="37.33790782497" y2="38.3985679967498"/>
    <line x1="37.33790782497" y1="38.3985679967498" x2="37.4877584587269" y2="38.0367965644036"/>
    <line x1="37.4877584587269" y1="38.0367965644036" x2="37.7261363926237" y2="37.7261363926237"/>
    <line x1="37.7261363926237" y1="37.7261363926237" x2="38.0367965644036" y2="37.4877584587269"/>
    <line x1="79.9141653299198" y1="39.5367965644036" x2="79.7643146961628" y2="39.1750251320573"/>
    <line x1="79.7643146961628" y1="39.1750251320573" x2="79.7132034355964" y2="38.7867965644036"/>
    <line x1="79.7132034355964" y1="38.7867965644036" x2="79.7643146961628" y2="38.3985679967499"/>
    <line x1="79.7643146961628" y1="38.3985679967499" x2="79.9141653299198" y2="38.0367965644036"/>
    <line x1="79.9141653299198" y1="38.0367965644036" x2="80.1525432638166" y2="37.7261363926238"/>
    <line x1="80.1525432638166" y1="37.7261363926238" x2="80.4632034355964" y2="37.487758458727"/>
    <line x1="80.4632034355964" y1="37.487758458727" x2="80.8249748679426" y2="37.33790782497"/>
    <line x1="80.8249748679426" y1="37.33790782497" x2="81.2132034355964" y2="37.2867965644036"/>
    <line x1="81.2132034355964" y1="37.2867965644036" x2="81.6014320032502" y2="37.33790782497"/>
    <line x1="81.6014320032502" y1="37.33790782497" x2="81.9632034355965" y2="37.4877584587269"/>
    <line x1="81.9632034355965" y1="37.4877584587269" x2="82.2738636073762" y2="37.7261363926238"/>
    <line x1="82.2738636073762" y1="37.7261363926238" x2="82.5122415412731" y2="38.0367965644036"/>
    <line x1="82.5122415412731" y1="38.0367965644036" x2="82.66209217503" y2="38.3985679967498"/>
    <line x1="82.66209217503" y1="38.3985679967498" x2="82.7132034355964" y2="38.7867965644036"/>
    <line x1="82.7132034355964" y1="38.7867965644036" x2="82.66209217503" y2="39.1750251320573"/>
    <line x1="82.66209217503" y1="39.1750251320573" x2="82.5122415412731" y2="39.5367965644036"/>
    <line x1="82.5122415412731" y1="39.5367965644036" x2="82.2738636073762" y2="39.8474567361833"/>
    <line x1="82.2738636073762" y1="39.8474567361833" x2="81.9632034355964" y2="40.0858346700802"/>
    <line x1="81.9632034355964" y1="40.0858346700802" x2="81.6014320032502" y2="40.2356853038372"/>
    <line x1="81.6014320032502" y1="40.2356853038372" x2="81.2132034355964" y2="40.2867965644036"/>
    <line x1="81.2132034355964" y1="40.2867965644036" x2="80.8249748679426" y2="40.2356853038372"/>
    <line x1="80.8249748679426" y1="40.2356853038372" x2="80.4632034355964" y2="40.0858346700803"/>
    <line x1="80.4632034355964" y1="40.0858346700803" x2="80.1525432638166" y2="39.8474567361834"/>
    <line x1="80.1525432638166" y1="39.8474567361834" x2="79.9141653299198" y2="39.5367965644036"/>
    <line x1="54.8038475772934" y1="63.0" x2="54.5967407961068" y2="62.5"/>
    <line x1="54.5967407961068" y1="62.5" x2="50.0" y2="62.5"/>
    <line x1="50.0" y1="62.5" x2="50.0" y2="57.5"/>
    <line x1="50.0" y1="57.5" x2="54.5967407961068" y2="57.5"/>
    <line x1="54.5967407961068" y1="57.5" x2="54.8038475772934" y2="57.0"/>
    <line x1="54.8038475772934" y1="57.0" x2="55.7573593128807" y2="55.7573593128807"/>
    <line x1="55.7573593128807" y1="55.7573593128807" x2="57.0" y2="54.8038475772934"/>
    <line x1="57.0" y1="54.8038475772934" x2="58.4470857293849" y2="54.2044450422656"/>
    <line x1="58.4470857293849" y1="54.2044450422656" x2="60.0" y2="54.0"/>
    <line x1="60.0" y1="54.0" x2="61.5529142706151" y2="54.2044450422656"/>
    <line x1="61.5529142706151" y1="54.2044450422656" x2="63.0" y2="54.8038475772933"/>
    <line x1="63.0" y1="54.8038475772933" x2="64.2426406871193" y2="55.7573593128807"/>
    <line x1="64.2426406871193" y1="55.7573593128807" x2="65.1961524227066" y2="57.0000000000001"/>
    <line x1="65.1961524227066" y1="57.0000000000001" x2="65.7955549577344" y2="58.4470857293849"/>
    <line x1="65.7955549577344" y1="58.4470857293849" x2="66.0" y2="60.0"/>
    <line x1="66.0" y1="60.0" x2="65.7955549577344" y2="61.5529142706151"/>
    <line x1="65.7955549577344" y1="61.5529142706151" x2="65.1961524227066" y2="63.0"/>
    <line x1="65.1961524227066" y1="63.0" x2="64.2426406871193" y2="64.2426406871193"/>
    <line x1="64.2426406871193" y1="64.2426406871193" x2="63.0" y2="65.1961524227066"/>
    <line x1="63.0" y1="65.1961524227066" x2="61.5529142706151" y2="65.7955549577344"/>
    <line x1="61.5529142706151" y1="65.7955549577344" x2="60.0" y2="66.0"/>
    <line x1="60.0" y1="66.0" x2="58.4470857293849" y2="65.7955549577344"/>
    <line x1="58.4470857293849" y1="65.7955549577344" x2="57.0" y2="65.1961524227066"/>
    <line x1="57.0" y1="65.1961524227066" x2="55.7573593128807" y2="64.2426406871193"/>
    <line x1="55.7573593128807" y1="64.2426406871193" x2="54.8038475772934" y2="63.0"/>
  </g>
</svg>
