<?xml version="1.0" standalone="no"?>
<!DOCTYPE svg PUBLIC "-//W3C//DTD SVG 1.1//EN" "http://www.w3.org/Graphics/SVG/1.1/DTD/svg11.dtd">
<svg width="55.1551948944768mm" height="39.7029047249228mm"
 viewBox="0 0 55.1551948944768 39.7029047249228"
 xmlns="http://www.w3.org/2000/svg" version="1.1"
 xmlns:xlink="http://www.w3.org/1999/xlink">
<desc>Output from Flights of Ideas SVG Sketchup Plugin</desc>

<g id="text_annotations" font-size="10" stroke="rgb(255,0,0)" stroke-width="1">
</g>
  <g id="face0" fill="none" stroke="rgb(0,0,255)" stroke-width="1" stroke-miterlimit="4" stroke-dasharray="none" stroke-linejoin="round" stroke-linecap="round">
    <line x1="19.5722943208986" y1="29.428685662185" x2="21.6551948944768" y2="29.7029047249228"/>
    <line x1="21.6551948944768" y1="29.7029047249228" x2="23.738095468055" y2="29.428685662185"/>
    <line x1="23.738095468055" y1="29.428685662185" x2="25.6790498096998" y2="28.6247160499288"/>
    <line x1="25.6790498096998" y1="28.6247160499288" x2="27.3457850886068" y2="27.3457850886068"/>
    <line x1="27.3457850886068" y1="27.3457850886068" x2="28.6247160499288" y2="25.6790498096998"/>
    <line x1="28.6247160499288" y1="25.6790498096998" x2="28.84170386053" y2="25.1551948944768"/>
    <line x1="28.84170386053" y1="25.1551948944768" x2="41.6551948944768" y2="25.1551948944768"/>
    <line x1="41.6551948944768" y1="25.1551948944768" x2="42.5610615523356" y2="25.0359352864885"/>
    <line x1="42.5610615523356" y1="25.0359352864885" x2="43.4051948944768" y2="24.6862838077223"/>
    <line x1="43.4051948944768" y1="24.6862838077223" x2="44.1300686286297" y2="24.1300686286297"/>
    <line x1="44.1300686286297" y1="24.1300686286297" x2="44.6862838077223" y2="23.4051948944768"/>
    <line x1="44.6862838077223" y1="23.4051948944768" x2="45.0359352864886" y2="22.5610615523356"/>
    <line x1="45.0359352864886" y1="22.5610615523356" x2="45.1551948944768" y2="21.6551948944768"/>
    <line x1="45.1551948944768" y1="21.6551948944768" x2="45.0359352864886" y2="20.749328236618"/>
    <line x1="45.0359352864886" y1="20.749328236618" x2="44.6862838077223" y2="19.9051948944768"/>
    <line x1="44.6862838077223" y1="19.9051948944768" x2="44.1300686286297" y2="19.1803211603239"/>
    <line x1="44.1300686286297" y1="19.1803211603239" x2="43.4051948944768" y2="18.6241059812312"/>
    <line x1="43.4051948944768" y1="18.6241059812312" x2="42.5610615523356" y2="18.2744545024651"/>
    <line x1="42.5610615523356" y1="18.2744545024651" x2="41.6551948944768" y2="18.1551948944768"/>
    <line x1="41.6551948944768" y1="18.1551948944768" x2="28.84170386053" y2="18.1551948944768"/>
    <line x1="28.84170386053" y1="18.1551948944768" x2="28.6247160499288" y2="17.6313399792538"/>
    <line x1="28.6247160499288" y1="17.6313399792538" x2="27.3457850886068" y2="15.9646047003468"/>
    <line x1="27.3457850886068" y1="15.9646047003468" x2="26.8690048944059" y2="15.4878245061458"/>
    <line x1="26.8690048944059" y1="15.4878245061458" x2="26.788159694205" y2="15.3791489065405"/>
    <line x1="26.788159694205" y1="15.3791489065405" x2="26.7724834968597" y2="15.2446104764103"/>
    <line x1="26.7724834968597" y1="15.2446104764103" x2="26.826176726789" y2="15.1202586794597"/>
    <line x1="26.826176726789" y1="15.1202586794597" x2="27.525037349998" y2="14.2278674436393"/>
    <line x1="27.525037349998" y1="14.2278674436393" x2="27.6220130773513" y2="14.0413004663221"/>
    <line x1="27.6220130773513" y1="14.0413004663221" x2="27.7454292025976" y2="13.7133147357218"/>
    <line x1="27.7454292025976" y1="13.7133147357218" x2="27.8615182946616" y2="13.2366371945654"/>
    <line x1="27.8615182946616" y1="13.2366371945654" x2="27.9353778906958" y2="12.6101930892637"/>
    <line x1="27.9353778906958" y1="12.6101930892637" x2="27.93198532717" y2="11.839243950653"/>
    <line x1="27.93198532717" y1="11.839243950653" x2="27.0348444517157" y2="11.302877194927"/>
    <line x1="27.0348444517157" y1="11.302877194927" x2="26.348304736958" y2="11.6938959767295"/>
    <line x1="26.348304736958" y1="11.6938959767295" x2="25.8427180257328" y2="12.0710823158593"/>
    <line x1="25.8427180257328" y1="12.0710823158593" x2="25.4879477117098" y2="12.4099571892671"/>
    <line x1="25.4879477117098" y1="12.4099571892671" x2="25.2656117995543" y2="12.6808315542673"/>
    <line x1="25.2656117995543" y1="12.6808315542673" x2="25.152527921367" y2="12.8580984863643"/>
    <line x1="25.152527921367" y1="12.8580984863643" x2="24.7291247526365" y2="13.9095251576781"/>
    <line x1="24.7291247526365" y1="13.9095251576781" x2="24.6482795524356" y2="14.0182007572834"/>
    <line x1="24.6482795524356" y1="14.0182007572834" x2="24.5239277554849" y2="14.0718939872127"/>
    <line x1="24.5239277554849" y1="14.0718939872127" x2="24.3893893253548" y2="14.0562177898674"/>
    <line x1="24.3893893253548" y1="14.0562177898674" x2="23.738095468055" y2="13.8817041267686"/>
    <line x1="23.738095468055" y1="13.8817041267686" x2="23.0868016107552" y2="13.7071904636697"/>
    <line x1="23.0868016107552" y1="13.7071904636697" x2="22.9624498138046" y2="13.6534972337404"/>
    <line x1="22.9624498138046" y1="13.6534972337404" x2="22.8816046136037" y2="13.5448216341351"/>
    <line x1="22.8816046136037" y1="13.5448216341351" x2="22.8659284162584" y2="13.410283204005"/>
    <line x1="22.8659284162584" y1="13.410283204005" x2="23.0249638517518" y2="12.2880194120654"/>
    <line x1="23.0249638517518" y1="12.2880194120654" x2="23.0156638065316" y2="12.0779598065248"/>
    <line x1="23.0156638065316" y1="12.0779598065248" x2="22.9585524409315" y2="11.732207769123"/>
    <line x1="22.9585524409315" y1="11.732207769123" x2="22.8207497731829" y2="11.2613483630361"/>
    <line x1="22.8207497731829" y1="11.2613483630361" x2="22.571492007011" y2="10.6819020557766"/>
    <line x1="22.571492007011" y1="10.6819020557766" x2="22.1830793915084" y2="10.0159367984769"/>
    <line x1="22.1830793915084" y1="10.0159367984769" x2="21.1379492247285" y2="10.0"/>
    <line x1="21.1379492247285" y1="10.0" x2="20.7388977819427" y2="10.6819020557766"/>
    <line x1="20.7388977819427" y1="10.6819020557766" x2="20.4896400157707" y2="11.2613483630361"/>
    <line x1="20.4896400157707" y1="11.2613483630361" x2="20.3518373480221" y2="11.732207769123"/>
    <line x1="20.3518373480221" y1="11.732207769123" x2="20.294725982422" y2="12.0779598065248"/>
    <line x1="20.294725982422" y1="12.0779598065248" x2="20.2854259372018" y2="12.2880194120654"/>
    <line x1="20.2854259372018" y1="12.2880194120654" x2="20.4444613726952" y2="13.410283204005"/>
    <line x1="20.4444613726952" y1="13.410283204005" x2="20.4287851753499" y2="13.5448216341351"/>
    <line x1="20.4287851753499" y1="13.5448216341351" x2="20.347939975149" y2="13.6534972337405"/>
    <line x1="20.347939975149" y1="13.6534972337405" x2="20.2235881781983" y2="13.7071904636697"/>
    <line x1="20.2235881781983" y1="13.7071904636697" x2="19.5722943208986" y2="13.8817041267685"/>
    <line x1="19.5722943208986" y1="13.8817041267685" x2="18.9210004635988" y2="14.0562177898674"/>
    <line x1="18.9210004635988" y1="14.0562177898674" x2="18.7864620334687" y2="14.0718939872127"/>
    <line x1="18.7864620334687" y1="14.0718939872127" x2="18.662110236518" y2="14.0182007572834"/>
    <line x1="18.662110236518" y1="14.0182007572834" x2="18.5812650363171" y2="13.9095251576781"/>
    <line x1="18.5812650363171" y1="13.9095251576781" x2="18.1578618675866" y2="12.8580984863643"/>
    <line x1="18.1578618675866" y1="12.8580984863643" x2="18.0447779893993" y2="12.6808315542673"/>
    <line x1="18.0447779893993" y1="12.6808315542673" x2="17.8224420772438" y2="12.4099571892671"/>
    <line x1="17.8224420772438" y1="12.4099571892671" x2="17.4676717632208" y2="12.0710823158593"/>
    <line x1="17.4676717632208" y1="12.0710823158593" x2="16.9620850519956" y2="11.6938959767295"/>
    <line x1="16.9620850519956" y1="11.6938959767295" x2="16.2927272311702" y2="11.3113594536214"/>
    <line x1="16.2927272311702" y1="11.3113594536214" x2="15.3796495572389" y2="11.8201228646754"/>
    <line x1="15.3796495572389" y1="11.8201228646754" x2="15.3750118982578" y2="12.6101930892637"/>
    <line x1="15.3750118982578" y1="12.6101930892637" x2="15.448871494292" y2="13.2366371945654"/>
    <line x1="15.448871494292" y1="13.2366371945654" x2="15.564960586356" y2="13.7133147357218"/>
    <line x1="15.564960586356" y1="13.7133147357218" x2="15.6883767116023" y2="14.0413004663221"/>
    <line x1="15.6883767116023" y1="14.0413004663221" x2="15.7853524389556" y2="14.2278674436393"/>
    <line x1="15.7853524389556" y1="14.2278674436393" x2="16.4842130621646" y2="15.1202586794597"/>
    <line x1="16.4842130621646" y1="15.1202586794597" x2="16.5379062920939" y2="15.2446104764103"/>
    <line x1="16.5379062920939" y1="15.2446104764103" x2="16.5222300947486" y2="15.3791489065405"/>
    <line x1="16.5222300947486" y1="15.3791489065405" x2="16.4413848945477" y2="15.4878245061458"/>
    <line x1="16.4413848945477" y1="15.4878245061458" x2="15.9646047003468" y2="15.9646047003468"/>
    <line x1="15.9646047003468" y1="15.9646047003468" x2="15.4878245061458" y2="16.4413848945477"/>
    <line x1="15.4878245061458" y1="16.4413848945477" x2="15.3791489065405" y2="16.5222300947486"/>
    <line x1="15.3791489065405" y1="16.5222300947486" x2="15.2446104764103" y2="16.5379062920939"/>
    <line x1="15.2446104764103" y1="16.5379062920939" x2="15.1202586794597" y2="16.4842130621646"/>
    <line x1="15.1202586794597" y1="16.4842130621646" x2="14.2278674436393" y2="15.7853524389556"/>
    <line x1="14.2278674436393" y1="15.7853524389556" x2="14.0413004663221" y2="15.6883767116023"/>
    <line x1="14.0413004663221" y1="15.6883767116023" x2="13.7133147357218" y2="15.564960586356"/>
    <line x1="13.7133147357218" y1="15.564960586356" x2="13.2366371945654" y2="15.448871494292"/>
    <line x1="13.2366371945654" y1="15.448871494292" x2="12.6101930892637" y2="15.3750118982578"/>
    <line x1="12.6101930892637" y1="15.3750118982578" x2="11.839243950653" y2="15.3784044617836"/>
    <line x1="11.839243950653" y1="15.3784044617836" x2="11.302877194927" y2="16.2755453372379"/>
    <line x1="11.302877194927" y1="16.2755453372379" x2="11.6938959767295" y2="16.9620850519956"/>
    <line x1="11.6938959767295" y1="16.9620850519956" x2="12.0710823158593" y2="17.4676717632208"/>
    <line x1="12.0710823158593" y1="17.4676717632208" x2="12.4099571892671" y2="17.8224420772438"/>
    <line x1="12.4099571892671" y1="17.8224420772438" x2="12.6808315542673" y2="18.0447779893992"/>
    <line x1="12.6808315542673" y1="18.0447779893992" x2="12.8580984863643" y2="18.1578618675866"/>
    <line x1="12.8580984863643" y1="18.1578618675866" x2="13.9095251576781" y2="18.5812650363171"/>
    <line x1="13.9095251576781" y1="18.5812650363171" x2="14.0182007572834" y2="18.662110236518"/>
    <line x1="14.0182007572834" y1="18.662110236518" x2="14.0718939872127" y2="18.7864620334687"/>
    <line x1="14.0718939872127" y1="18.7864620334687" x2="14.0562177898674" y2="18.9210004635988"/>
    <line x1="14.0562177898674" y1="18.9210004635988" x2="13.8817041267686" y2="19.5722943208986"/>
    <line x1="13.8817041267686" y1="19.5722943208986" x2="13.7071904636697" y2="20.2235881781983"/>
    <line x1="13.7071904636697" y1="20.2235881781983" x2="13.6534972337405" y2="20.347939975149"/>
    <line x1="13.6534972337405" y1="20.347939975149" x2="13.5448216341351" y2="20.4287851753499"/>
    <line x1="13.5448216341351" y1="20.4287851753499" x2="13.410283204005" y2="20.4444613726952"/>
    <line x1="13.410283204005" y1="20.4444613726952" x2="12.2880194120654" y2="20.2854259372018"/>
    <line x1="12.2880194120654" y1="20.2854259372018" x2="12.0779598065248" y2="20.294725982422"/>
    <line x1="12.0779598065248" y1="20.294725982422" x2="11.732207769123" y2="20.3518373480221"/>
    <line x1="11.732207769123" y1="20.3518373480221" x2="11.2613483630361" y2="20.4896400157706"/>
    <line x1="11.2613483630361" y1="20.4896400157706" x2="10.6819020557766" y2="20.7388977819426"/>
    <line x1="10.6819020557766" y1="20.7388977819426" x2="10.0159367984769" y2="21.1273103974452"/>
    <line x1="10.0159367984769" y1="21.1273103974452" x2="10.0" y2="22.1724405642251"/>
    <line x1="10.0" y1="22.1724405642251" x2="10.6819020557766" y2="22.571492007011"/>
    <line x1="10.6819020557766" y1="22.571492007011" x2="11.2613483630361" y2="22.8207497731829"/>
    <line x1="11.2613483630361" y1="22.8207497731829" x2="11.732207769123" y2="22.9585524409314"/>
    <line x1="11.732207769123" y1="22.9585524409314" x2="12.0779598065248" y2="23.0156638065316"/>
    <line x1="12.0779598065248" y1="23.0156638065316" x2="12.2880194120654" y2="23.0249638517518"/>
    <line x1="12.2880194120654" y1="23.0249638517518" x2="13.410283204005" y2="22.8659284162584"/>
    <line x1="13.410283204005" y1="22.8659284162584" x2="13.5448216341351" y2="22.8816046136037"/>
    <line x1="13.5448216341351" y1="22.8816046136037" x2="13.6534972337405" y2="22.9624498138046"/>
    <line x1="13.6534972337405" y1="22.9624498138046" x2="13.7071904636697" y2="23.0868016107552"/>
    <line x1="13.7071904636697" y1="23.0868016107552" x2="13.8817041267686" y2="23.738095468055"/>
    <line x1="13.8817041267686" y1="23.738095468055" x2="14.6856737390248" y2="25.6790498096998"/>
    <line x1="14.6856737390248" y1="25.6790498096998" x2="15.9646047003468" y2="27.3457850886068"/>
    <line x1="15.9646047003468" y1="27.3457850886068" x2="17.6313399792538" y2="28.6247160499288"/>
    <line x1="17.6313399792538" y1="28.6247160499288" x2="19.5722943208986" y2="29.428685662185"/>
    <line x1="25.5188981996331" y1="20.6199187140667" x2="25.6551948944768" y2="21.6551948944768"/>
    <line x1="25.6551948944768" y1="21.6551948944768" x2="25.5188981996331" y2="22.6904710748869"/>
    <line x1="25.5188981996331" y1="22.6904710748869" x2="25.1192965096146" y2="23.6551948944768"/>
    <line x1="25.1192965096146" y1="23.6551948944768" x2="24.483622019223" y2="24.483622019223"/>
    <line x1="24.483622019223" y1="24.483622019223" x2="23.6551948944768" y2="25.1192965096145"/>
    <line x1="23.6551948944768" y1="25.1192965096145" x2="22.6904710748869" y2="25.5188981996331"/>
    <line x1="22.6904710748869" y1="25.5188981996331" x2="21.6551948944768" y2="25.6551948944768"/>
    <line x1="21.6551948944768" y1="25.6551948944768" x2="20.6199187140667" y2="25.5188981996331"/>
    <line x1="20.6199187140667" y1="25.5188981996331" x2="19.6551948944768" y2="25.1192965096145"/>
    <line x1="19.6551948944768" y1="25.1192965096145" x2="18.8267677697306" y2="24.483622019223"/>
    <line x1="18.8267677697306" y1="24.483622019223" x2="18.191093279339" y2="23.6551948944768"/>
    <line x1="18.191093279339" y1="23.6551948944768" x2="17.7914915893205" y2="22.6904710748869"/>
    <line x1="17.7914915893205" y1="22.6904710748869" x2="17.6551948944768" y2="21.6551948944768"/>
    <line x1="17.6551948944768" y1="21.6551948944768" x2="17.7914915893205" y2="20.6199187140667"/>
    <line x1="17.7914915893205" y1="20.6199187140667" x2="18.191093279339" y2="19.6551948944768"/>
    <line x1="18.191093279339" y1="19.6551948944768" x2="18.8267677697306" y2="18.8267677697306"/>
    <line x1="18.8267677697306" y1="18.8267677697306" x2="19.6551948944768" y2="18.191093279339"/>
    <line x1="19.6551948944768" y1="18.191093279339" x2="20.6199187140667" y2="17.7914915893205"/>
    <line x1="20.6199187140667" y1="17.7914915893205" x2="21.6551948944768" y2="17.6551948944768"/>
    <line x1="21.6551948944768" y1="17.6551948944768" x2="22.6904710748869" y2="17.7914915893205"/>
    <line x1="22.6904710748869" y1="17.7914915893205" x2="23.6551948944768" y2="18.191093279339"/>
    <line x1="23.6551948944768" y1="18.191093279339" x2="24.483622019223" y2="18.8267677697306"/>
    <line x1="24.483622019223" y1="18.8267677697306" x2="25.1192965096146" y2="19.6551948944768"/>
    <line x1="25.1192965096146" y1="19.6551948944768" x2="25.5188981996331" y2="20.6199187140667"/>
    <line x1="31.6211207207659" y1="21.3963758493743" x2="31.6551948944768" y2="21.6551948944768"/>
    <line x1="31.6551948944768" y1="21.6551948944768" x2="31.6211207207659" y2="21.9140139395793"/>
    <line x1="31.6211207207659" y1="21.9140139395793" x2="31.5212202982612" y2="22.1551948944768"/>
    <line x1="31.5212202982612" y1="22.1551948944768" x2="31.3623016756634" y2="22.3623016756633"/>
    <line x1="31.3623016756634" y1="22.3623016756633" x2="31.1551948944768" y2="22.5212202982612"/>
    <line x1="31.1551948944768" y1="22.5212202982612" x2="30.9140139395793" y2="22.6211207207659"/>
    <line x1="30.9140139395793" y1="22.6211207207659" x2="30.6551948944768" y2="22.6551948944768"/>
    <line x1="30.6551948944768" y1="22.6551948944768" x2="30.3963758493743" y2="22.6211207207658"/>
    <line x1="30.3963758493743" y1="22.6211207207658" x2="30.1551948944768" y2="22.5212202982612"/>
    <line x1="30.1551948944768" y1="22.5212202982612" x2="29.9480881132903" y2="22.3623016756633"/>
    <line x1="29.9480881132903" y1="22.3623016756633" x2="29.7891694906924" y2="22.1551948944768"/>
    <line x1="29.7891694906924" y1="22.1551948944768" x2="29.6892690681877" y2="21.9140139395793"/>
    <line x1="29.6892690681877" y1="21.9140139395793" x2="29.6551948944768" y2="21.6551948944768"/>
    <line x1="29.6551948944768" y1="21.6551948944768" x2="29.6892690681877" y2="21.3963758493743"/>
    <line x1="29.6892690681877" y1="21.3963758493743" x2="29.7891694906924" y2="21.1551948944768"/>
    <line x1="29.7891694906924" y1="21.1551948944768" x2="29.9480881132903" y2="20.9480881132902"/>
    <line x1="29.9480881132903" y1="20.9480881132902" x2="30.1551948944768" y2="20.7891694906923"/>
    <line x1="30.1551948944768" y1="20.7891694906923" x2="30.3963758493743" y2="20.6892690681877"/>
    <line x1="30.3963758493743" y1="20.6892690681877" x2="30.6551948944768" y2="20.6551948944768"/>
    <line x1="30.6551948944768" y1="20.6551948944768" x2="30.9140139395793" y2="20.6892690681877"/>
    <line x1="30.9140139395793" y1="20.6892690681877" x2="31.1551948944768" y2="20.7891694906923"/>
    <line x1="31.1551948944768" y1="20.7891694906923" x2="31.3623016756634" y2="20.9480881132902"/>
    <line x1="31.3623016756634" y1="20.9480881132902" x2="31.5212202982612" y2="21.1551948944768"/>
    <line x1="31.5212202982612" y1="21.1551948944768" x2="31.6211207207659" y2="21.3963758493743"/>
    <line x1="40.2063061550432" y1="22.0434234621306" x2="40.1551948944768" y2="21.6551948944768"/>
    <line x1="40.1551948944768" y1="21.6551948944768" x2="40.2063061550432" y2="21.266966326823"/>
    <line x1="40.2063061550432" y1="21.266966326823" x2="40.3561567888001" y2="20.9051948944768"/>
    <line x1="40.3561567888001" y1="20.9051948944768" x2="40.594534722697" y2="20.594534722697"/>
    <line x1="40.594534722697" y1="20.594534722697" x2="40.9051948944768" y2="20.3561567888001"/>
    <line x1="40.9051948944768" y1="20.3561567888001" x2="41.266966326823" y2="20.2063061550432"/>
    <line x1="41.266966326823" y1="20.2063061550432" x2="41.6551948944768" y2="20.1551948944768"/>
    <line x1="41.6551948944768" y1="20.1551948944768" x2="42.0434234621306" y2="20.2063061550432"/>
    <line x1="42.0434234621306" y1="20.2063061550432" x2="42.4051948944768" y2="20.3561567888001"/>
    <line x1="42.4051948944768" y1="20.3561567888001" x2="42.7158550662566" y2="20.594534722697"/>
    <line x1="42.7158550662566" y1="20.594534722697" x2="42.9542330001535" y2="20.9051948944768"/>
    <line x1="42.9542330001535" y1="20.9051948944768" x2="43.1040836339104" y2="21.266966326823"/>
    <line x1="43.1040836339104" y1="21.266966326823" x2="43.1551948944768" y2="21.6551948944768"/>
    <line x1="43.1551948944768" y1="21.6551948944768" x2="43.1040836339104" y2="22.0434234621306"/>
    <line x1="43.1040836339104" y1="22.0434234621306" x2="42.9542330001535" y2="22.4051948944768"/>
    <line x1="42.9542330001535" y1="22.4051948944768" x2="42.7158550662566" y2="22.7158550662566"/>
    <line x1="42.7158550662566" y1="22.7158550662566" x2="42.4051948944768" y2="22.9542330001534"/>
    <line x1="42.4051948944768" y1="22.9542330001534" x2="42.0434234621306" y2="23.1040836339104"/>
    <line x1="42.0434234621306" y1="23.1040836339104" x2="41.6551948944768" y2="23.1551948944768"/>
    <line x1="41.6551948944768" y1="23.1551948944768" x2="41.266966326823" y2="23.1040836339104"/>
    <line x1="41.266966326823" y1="23.1040836339104" x2="40.9051948944768" y2="22.9542330001534"/>
    <line x1="40.9051948944768" y1="22.9542330001534" x2="40.594534722697" y2="22.7158550662566"/>
    <line x1="40.594534722697" y1="22.7158550662566" x2="40.3561567888001" y2="22.4051948944768"/>
    <line x1="40.3561567888001" y1="22.4051948944768" x2="40.2063061550432" y2="22.0434234621306"/>
  </g>
</svg>
