<?xml version="1.0" standalone="no"?>
<!DOCTYPE svg PUBLIC "-//W3C//DTD SVG 1.1//EN" "http://www.w3.org/Graphics/SVG/1.1/DTD/svg11.dtd">
<svg width="47.0mm" height="27.0mm"
 viewBox="0 0 47.0 27.0"
 xmlns="http://www.w3.org/2000/svg" version="1.1"
 xmlns:xlink="http://www.w3.org/1999/xlink">
<desc>Output from Flights of Ideas SVG Sketchup Plugin</desc>

<g id="text_annotations" font-size="10" stroke="rgb(255,0,0)" stroke-width="1">
</g>
  <g id="face0" fill="none" stroke="rgb(0,0,255)" stroke-width="1" stroke-miterlimit="4" stroke-dasharray="none" stroke-linejoin="round" stroke-linecap="round">
    <line x1="10.4689110867545" y1="15.25" x2="11.0251262658471" y2="15.9748737341529"/>
    <line x1="11.0251262658471" y1="15.9748737341529" x2="11.75" y2="16.5310889132455"/>
    <line x1="11.75" y1="16.5310889132455" x2="12.5941333421412" y2="16.8807403920117"/>
    <line x1="12.5941333421412" y1="16.8807403920117" x2="13.5" y2="17.0"/>
    <line x1="13.5" y1="17.0" x2="14.4058666578588" y2="16.8807403920117"/>
    <line x1="14.4058666578588" y1="16.8807403920117" x2="15.25" y2="16.5310889132455"/>
    <line x1="15.25" y1="16.5310889132455" x2="15.9748737341529" y2="15.9748737341529"/>
    <line x1="15.9748737341529" y1="15.9748737341529" x2="31.0251262658471" y2="15.9748737341529"/>
    <line x1="31.0251262658471" y1="15.9748737341529" x2="31.75" y2="16.5310889132456"/>
    <line x1="31.75" y1="16.5310889132456" x2="32.5941333421412" y2="16.8807403920118"/>
    <line x1="32.5941333421412" y1="16.8807403920118" x2="33.5" y2="17.0"/>
    <line x1="33.5" y1="17.0" x2="34.4058666578588" y2="16.8807403920118"/>
    <line x1="34.4058666578588" y1="16.8807403920118" x2="35.25" y2="16.5310889132455"/>
    <line x1="35.25" y1="16.5310889132455" x2="35.9748737341529" y2="15.9748737341528"/>
    <line x1="35.9748737341529" y1="15.9748737341528" x2="36.5310889132455" y2="15.25"/>
    <line x1="36.5310889132455" y1="15.25" x2="36.8807403920117" y2="14.4058666578588"/>
    <line x1="36.8807403920117" y1="14.4058666578588" x2="37.0" y2="13.5"/>
    <line x1="37.0" y1="13.5" x2="36.8807403920117" y2="12.5941333421411"/>
    <line x1="36.8807403920117" y1="12.5941333421411" x2="36.5310889132455" y2="11.75"/>
    <line x1="36.5310889132455" y1="11.75" x2="35.9748737341529" y2="11.0251262658471"/>
    <line x1="35.9748737341529" y1="11.0251262658471" x2="35.25" y2="10.4689110867545"/>
    <line x1="35.25" y1="10.4689110867545" x2="34.4058666578588" y2="10.1192596079883"/>
    <line x1="34.4058666578588" y1="10.1192596079883" x2="33.5" y2="10.0"/>
    <line x1="33.5" y1="10.0" x2="32.5941333421412" y2="10.1192596079883"/>
    <line x1="32.5941333421412" y1="10.1192596079883" x2="31.75" y2="10.4689110867545"/>
    <line x1="31.75" y1="10.4689110867545" x2="31.0251262658471" y2="11.0251262658471"/>
    <line x1="31.0251262658471" y1="11.0251262658471" x2="15.9748737341529" y2="11.0251262658471"/>
    <line x1="15.9748737341529" y1="11.0251262658471" x2="15.25" y2="10.4689110867545"/>
    <line x1="15.25" y1="10.4689110867545" x2="14.4058666578588" y2="10.1192596079883"/>
    <line x1="14.4058666578588" y1="10.1192596079883" x2="13.5" y2="10.0"/>
    <line x1="13.5" y1="10.0" x2="12.5941333421412" y2="10.1192596079883"/>
    <line x1="12.5941333421412" y1="10.1192596079883" x2="11.75" y2="10.4689110867545"/>
    <line x1="11.75" y1="10.4689110867545" x2="11.0251262658471" y2="11.0251262658471"/>
    <line x1="11.0251262658471" y1="11.0251262658471" x2="10.4689110867545" y2="11.75"/>
    <line x1="10.4689110867545" y1="11.75" x2="10.1192596079883" y2="12.5941333421412"/>
    <line x1="10.1192596079883" y1="12.5941333421412" x2="10.0" y2="13.5"/>
    <line x1="10.0" y1="13.5" x2="10.1192596079883" y2="14.4058666578588"/>
    <line x1="10.1192596079883" y1="14.4058666578588" x2="10.4689110867545" y2="15.25"/>
    <line x1="13.1117714323462" y1="12.0511112605664" x2="13.5" y2="12.0"/>
    <line x1="13.5" y1="12.0" x2="13.8882285676538" y2="12.0511112605664"/>
    <line x1="13.8882285676538" y1="12.0511112605664" x2="14.25" y2="12.2009618943234"/>
    <line x1="14.25" y1="12.2009618943234" x2="14.5606601717798" y2="12.4393398282202"/>
    <line x1="14.5606601717798" y1="12.4393398282202" x2="14.7990381056767" y2="12.75"/>
    <line x1="14.7990381056767" y1="12.75" x2="14.9488887394336" y2="13.1117714323462"/>
    <line x1="14.9488887394336" y1="13.1117714323462" x2="15.0" y2="13.5"/>
    <line x1="15.0" y1="13.5" x2="14.9488887394336" y2="13.8882285676538"/>
    <line x1="14.9488887394336" y1="13.8882285676538" x2="14.7990381056767" y2="14.25"/>
    <line x1="14.7990381056767" y1="14.25" x2="14.5606601717798" y2="14.5606601717798"/>
    <line x1="14.5606601717798" y1="14.5606601717798" x2="14.25" y2="14.7990381056767"/>
    <line x1="14.25" y1="14.7990381056767" x2="13.8882285676538" y2="14.9488887394336"/>
    <line x1="13.8882285676538" y1="14.9488887394336" x2="13.5" y2="15.0"/>
    <line x1="13.5" y1="15.0" x2="13.1117714323462" y2="14.9488887394336"/>
    <line x1="13.1117714323462" y1="14.9488887394336" x2="12.75" y2="14.7990381056767"/>
    <line x1="12.75" y1="14.7990381056767" x2="12.4393398282202" y2="14.5606601717798"/>
    <line x1="12.4393398282202" y1="14.5606601717798" x2="12.2009618943233" y2="14.25"/>
    <line x1="12.2009618943233" y1="14.25" x2="12.0511112605664" y2="13.8882285676538"/>
    <line x1="12.0511112605664" y1="13.8882285676538" x2="12.0" y2="13.5"/>
    <line x1="12.0" y1="13.5" x2="12.0511112605664" y2="13.1117714323462"/>
    <line x1="12.0511112605664" y1="13.1117714323462" x2="12.2009618943233" y2="12.75"/>
    <line x1="12.2009618943233" y1="12.75" x2="12.4393398282202" y2="12.4393398282202"/>
    <line x1="12.4393398282202" y1="12.4393398282202" x2="12.75" y2="12.2009618943234"/>
    <line x1="12.75" y1="12.2009618943234" x2="13.1117714323462" y2="12.0511112605664"/>
    <line x1="33.8882285676538" y1="14.9488887394335" x2="33.5" y2="14.9999999999998"/>
    <line x1="33.5" y1="14.9999999999998" x2="33.1117714323462" y2="14.9488887394337"/>
    <line x1="33.1117714323462" y1="14.9488887394337" x2="32.75" y2="14.7990381056766"/>
    <line x1="32.75" y1="14.7990381056766" x2="32.4393398282202" y2="14.5606601717798"/>
    <line x1="32.4393398282202" y1="14.5606601717798" x2="32.2009618943233" y2="14.2500000000001"/>
    <line x1="32.2009618943233" y1="14.2500000000001" x2="32.0511112605664" y2="13.8882285676538"/>
    <line x1="32.0511112605664" y1="13.8882285676538" x2="32.0" y2="13.5"/>
    <line x1="32.0" y1="13.5" x2="32.0511112605664" y2="13.1117714323462"/>
    <line x1="32.0511112605664" y1="13.1117714323462" x2="32.2009618943233" y2="12.75"/>
    <line x1="32.2009618943233" y1="12.75" x2="32.4393398282202" y2="12.4393398282202"/>
    <line x1="32.4393398282202" y1="12.4393398282202" x2="32.75" y2="12.2009618943234"/>
    <line x1="32.75" y1="12.2009618943234" x2="33.1117714323462" y2="12.0511112605664"/>
    <line x1="33.1117714323462" y1="12.0511112605664" x2="33.5" y2="12.0"/>
    <line x1="33.5" y1="12.0" x2="33.8882285676538" y2="12.0511112605664"/>
    <line x1="33.8882285676538" y1="12.0511112605664" x2="34.25" y2="12.2009618943234"/>
    <line x1="34.25" y1="12.2009618943234" x2="34.5606601717798" y2="12.4393398282202"/>
    <line x1="34.5606601717798" y1="12.4393398282202" x2="34.7990381056766" y2="12.75"/>
    <line x1="34.7990381056766" y1="12.75" x2="34.9488887394336" y2="13.1117714323462"/>
    <line x1="34.9488887394336" y1="13.1117714323462" x2="35.0" y2="13.5"/>
    <line x1="35.0" y1="13.5" x2="34.9488887394336" y2="13.8882285676538"/>
    <line x1="34.9488887394336" y1="13.8882285676538" x2="34.7990381056766" y2="14.25"/>
    <line x1="34.7990381056766" y1="14.25" x2="34.5606601717798" y2="14.5606601717797"/>
    <line x1="34.5606601717798" y1="14.5606601717797" x2="34.25" y2="14.7990381056767"/>
    <line x1="34.25" y1="14.7990381056767" x2="33.8882285676538" y2="14.9488887394335"/>
  </g>
</svg>
