<?xml version="1.0" standalone="no"?>
<!DOCTYPE svg PUBLIC "-//W3C//DTD SVG 1.1//EN" "http://www.w3.org/Graphics/SVG/1.1/DTD/svg11.dtd">
<svg width="59.9326204422979mm" height="38.6731064649719mm"
 viewBox="0 0 59.9326204422979 38.6731064649719"
 xmlns="http://www.w3.org/2000/svg" version="1.1"
 xmlns:xlink="http://www.w3.org/1999/xlink">
<desc>Output from Flights of Ideas SVG Sketchup Plugin</desc>

<g id="text_annotations" font-size="10" stroke="rgb(255,0,0)" stroke-width="1">
</g>
  <g id="face0" fill="none" stroke="rgb(0,0,255)" stroke-width="1" stroke-miterlimit="4" stroke-dasharray="none" stroke-linejoin="round" stroke-linecap="round">
    <line x1="34.9326204422979" y1="10.0" x2="31.9326204422979" y2="10.0"/>
    <line x1="31.9326204422979" y1="10.0" x2="27.1569197290121" y2="17.2765035157194"/>
    <line x1="27.1569197290121" y1="17.2765035157194" x2="12.4455023015443" y2="21.837978641276"/>
    <line x1="12.4455023015443" y1="21.837978641276" x2="11.61727978026" y2="22.223808540526"/>
    <line x1="11.61727978026" y1="22.223808540526" x2="10.9171383831331" y2="22.8108513668573"/>
    <line x1="10.9171383831331" y1="22.8108513668573" x2="10.3927915893395" y2="23.5591011217895"/>
    <line x1="10.3927915893395" y1="23.5591011217895" x2="10.0799727663521" y2="24.4175658210653"/>
    <line x1="10.0799727663521" y1="24.4175658210653" x2="10.0" y2="25.3277425141089"/>
    <line x1="10.0" y1="25.3277425141089" x2="10.1583233021489" y2="26.2276041634276"/>
    <line x1="10.1583233021489" y1="26.2276041634276" x2="10.5441532013988" y2="27.0558266847119"/>
    <line x1="10.5441532013988" y1="27.0558266847119" x2="11.1311960277301" y2="27.7559680818388"/>
    <line x1="11.1311960277301" y1="27.7559680818388" x2="11.8794457826624" y2="28.2803148756324"/>
    <line x1="11.8794457826624" y1="28.2803148756324" x2="12.7379104819381" y2="28.5931336986198"/>
    <line x1="12.7379104819381" y1="28.5931336986198" x2="13.6480871749818" y2="28.6731064649719"/>
    <line x1="13.6480871749818" y1="28.6731064649719" x2="14.5479488243004" y2="28.514783162823"/>
    <line x1="14.5479488243004" y1="28.514783162823" x2="38.9326204422979" y2="20.8363393973421"/>
    <line x1="38.9326204422979" y1="20.8363393973421" x2="41.4504792953464" y2="17.0"/>
    <line x1="41.4504792953464" y1="17.0" x2="46.9326204422979" y2="17.0"/>
    <line x1="46.9326204422979" y1="17.0" x2="49.9326204422979" y2="14.0"/>
    <line x1="49.9326204422979" y1="14.0" x2="49.9326204422979" y2="10.0"/>
    <line x1="49.9326204422979" y1="10.0" x2="48.9326204422979" y2="11.0"/>
    <line x1="48.9326204422979" y1="11.0" x2="47.9326204422979" y2="10.0"/>
    <line x1="47.9326204422979" y1="10.0" x2="46.9326204422979" y2="11.0"/>
    <line x1="46.9326204422979" y1="11.0" x2="45.9326204422978" y2="10.0"/>
    <line x1="45.9326204422978" y1="10.0" x2="44.9326204422978" y2="11.0"/>
    <line x1="44.9326204422978" y1="11.0" x2="43.9326204422979" y2="10.0"/>
    <line x1="43.9326204422979" y1="10.0" x2="42.9326204422979" y2="11.0"/>
    <line x1="42.9326204422979" y1="11.0" x2="41.9326204422979" y2="10.0"/>
    <line x1="41.9326204422979" y1="10.0" x2="38.9326204422979" y2="13.0"/>
    <line x1="38.9326204422979" y1="13.0" x2="34.9326204422979" y2="13.0"/>
    <line x1="34.9326204422979" y1="13.0" x2="34.9326204422979" y2="10.0"/>
    <line x1="14.9182308769618" y1="24.6975044647949" x2="14.9240161021595" y2="24.7269440462156"/>
    <line x1="14.9240161021595" y1="24.7269440462156" x2="14.9937366001726" y2="25.0817344316918"/>
    <line x1="14.9937366001726" y1="25.0817344316918" x2="14.9672234951224" y2="25.4724143991329"/>
    <line x1="14.9672234951224" y1="25.4724143991329" x2="14.8404983861056" y2="25.8429201729663"/>
    <line x1="14.8404983861056" y1="25.8429201729663" x2="14.6221973798784" y2="26.1680023969949"/>
    <line x1="14.6221973798784" y1="26.1680023969949" x2="14.3271973292558" y2="26.425507254875"/>
    <line x1="14.3271973292558" y1="26.425507254875" x2="13.975602000177" y2="26.5978862160889"/>
    <line x1="13.975602000177" y1="26.5978862160889" x2="13.5913720332801" y2="26.6733919392997"/>
    <line x1="13.5913720332801" y1="26.6733919392997" x2="13.2006920658389" y2="26.6468788342496"/>
    <line x1="13.2006920658389" y1="26.6468788342496" x2="12.8301862920056" y2="26.5201537252327"/>
    <line x1="12.8301862920056" y1="26.5201537252327" x2="12.505104067977" y2="26.3018527190055"/>
    <line x1="12.505104067977" y1="26.3018527190055" x2="12.2475992100969" y2="26.0068526683829"/>
    <line x1="12.2475992100969" y1="26.0068526683829" x2="12.075220248883" y2="25.6552573393041"/>
    <line x1="12.075220248883" y1="25.6552573393041" x2="11.9997145256722" y2="25.2710273724072"/>
    <line x1="11.9997145256722" y1="25.2710273724072" x2="12.0262276307224" y2="24.8803474049661"/>
    <line x1="12.0262276307224" y1="24.8803474049661" x2="12.1529527397392" y2="24.5098416311327"/>
    <line x1="12.1529527397392" y1="24.5098416311327" x2="12.3712537459664" y2="24.1847594071041"/>
    <line x1="12.3712537459664" y1="24.1847594071041" x2="12.666253796589" y2="23.927254549224"/>
    <line x1="12.666253796589" y1="23.927254549224" x2="13.0178491256678" y2="23.7548755880101"/>
    <line x1="13.0178491256678" y1="23.7548755880101" x2="13.4020790925647" y2="23.6793698647993"/>
    <line x1="13.4020790925647" y1="23.6793698647993" x2="13.7927590600058" y2="23.7058829698495"/>
    <line x1="13.7927590600058" y1="23.7058829698495" x2="14.1632648338392" y2="23.8326080788663"/>
    <line x1="14.1632648338392" y1="23.8326080788663" x2="14.4883470578678" y2="24.0509090850935"/>
    <line x1="14.4883470578678" y1="24.0509090850935" x2="14.7458519157479" y2="24.3459091357161"/>
    <line x1="14.7458519157479" y1="24.3459091357161" x2="14.9182308769618" y2="24.6975044647949"/>
    <line x1="27.5498539337651" y1="21.158238568098" x2="27.384498262658" y2="20.8032860589762"/>
    <line x1="27.384498262658" y1="20.8032860589762" x2="27.3166454188799" y2="20.417631066411"/>
    <line x1="27.3166454188799" y1="20.417631066411" x2="27.3509194616022" y2="20.0275553408209"/>
    <line x1="27.3509194616022" y1="20.0275553408209" x2="27.484984671454" y2="19.6596418982742"/>
    <line x1="27.484984671454" y1="19.6596418982742" x2="27.709704725937" y2="19.3389634318746"/>
    <line x1="27.709704725937" y1="19.3389634318746" x2="28.0097653247056" y2="19.0873736491612"/>
    <line x1="28.0097653247056" y1="19.0873736491612" x2="28.3647178338275" y2="18.9220179780541"/>
    <line x1="28.3647178338275" y1="18.9220179780541" x2="28.7503728263926" y2="18.854165134276"/>
    <line x1="28.7503728263926" y1="18.854165134276" x2="29.1404485519827" y2="18.8884391769983"/>
    <line x1="29.1404485519827" y1="18.8884391769983" x2="29.5083619945295" y2="19.0225043868501"/>
    <line x1="29.5083619945295" y1="19.0225043868501" x2="29.829040460929" y2="19.247224441333"/>
    <line x1="29.829040460929" y1="19.247224441333" x2="30.0806302436424" y2="19.5472850401017"/>
    <line x1="30.0806302436424" y1="19.5472850401017" x2="30.2459859147496" y2="19.9022375492236"/>
    <line x1="30.2459859147496" y1="19.9022375492236" x2="30.3138387585276" y2="20.2878925417887"/>
    <line x1="30.3138387585276" y1="20.2878925417887" x2="30.2795647158053" y2="20.6779682673788"/>
    <line x1="30.2795647158053" y1="20.6779682673788" x2="30.1454995059536" y2="21.0458817099256"/>
    <line x1="30.1454995059536" y1="21.0458817099256" x2="29.9207794514706" y2="21.3665601763251"/>
    <line x1="29.9207794514706" y1="21.3665601763251" x2="29.6207188527019" y2="21.6181499590385"/>
    <line x1="29.6207188527019" y1="21.6181499590385" x2="29.2657663435801" y2="21.7835056301457"/>
    <line x1="29.2657663435801" y1="21.7835056301457" x2="28.8801113510149" y2="21.8513584739237"/>
    <line x1="28.8801113510149" y1="21.8513584739237" x2="28.4900356254248" y2="21.8170844312014"/>
    <line x1="28.4900356254248" y1="21.8170844312014" x2="28.1221221828781" y2="21.6830192213497"/>
    <line x1="28.1221221828781" y1="21.6830192213497" x2="27.8014437164785" y2="21.4582991668667"/>
    <line x1="27.8014437164785" y1="21.4582991668667" x2="27.5498539337651" y2="21.158238568098"/>
  </g>
</svg>
