<?xml version="1.0" standalone="no"?>
<!DOCTYPE svg PUBLIC "-//W3C//DTD SVG 1.1//EN" "http://www.w3.org/Graphics/SVG/1.1/DTD/svg11.dtd">
<svg width="54.8919267893353mm" height="39.4396366197813mm"
 viewBox="0 0 54.8919267893353 39.4396366197813"
 xmlns="http://www.w3.org/2000/svg" version="1.1"
 xmlns:xlink="http://www.w3.org/1999/xlink">
<desc>Output from Flights of Ideas SVG Sketchup Plugin</desc>

<g id="text_annotations" font-size="10" stroke="rgb(255,0,0)" stroke-width="1">
</g>
  <g id="face0" fill="none" stroke="rgb(0,0,255)" stroke-width="1" stroke-miterlimit="4" stroke-dasharray="none" stroke-linejoin="round" stroke-linecap="round">
    <line x1="41.3919267893353" y1="21.547709830446" x2="42.2977934471941" y2="21.4284502224578"/>
    <line x1="42.2977934471941" y1="21.4284502224578" x2="43.1419267893353" y2="21.0787987436916"/>
    <line x1="43.1419267893353" y1="21.0787987436916" x2="43.8668005234882" y2="20.5225835645989"/>
    <line x1="43.8668005234882" y1="20.5225835645989" x2="44.4230157025808" y2="19.797709830446"/>
    <line x1="44.4230157025808" y1="19.797709830446" x2="44.772667181347" y2="18.9535764883048"/>
    <line x1="44.772667181347" y1="18.9535764883048" x2="44.8919267893353" y2="18.047709830446"/>
    <line x1="44.8919267893353" y1="18.047709830446" x2="44.772667181347" y2="17.1418431725872"/>
    <line x1="44.772667181347" y1="17.1418431725872" x2="44.4230157025808" y2="16.297709830446"/>
    <line x1="44.4230157025808" y1="16.297709830446" x2="43.8668005234882" y2="15.5728360962931"/>
    <line x1="43.8668005234882" y1="15.5728360962931" x2="43.1419267893353" y2="15.0166209172005"/>
    <line x1="43.1419267893353" y1="15.0166209172005" x2="42.2977934471941" y2="14.6669694384343"/>
    <line x1="42.2977934471941" y1="14.6669694384343" x2="41.3919267893353" y2="14.547709830446"/>
    <line x1="41.3919267893353" y1="14.547709830446" x2="28.5784357553885" y2="14.547709830446"/>
    <line x1="28.5784357553885" y1="14.547709830446" x2="28.3614479447873" y2="14.023854915223"/>
    <line x1="28.3614479447873" y1="14.023854915223" x2="27.0825169834653" y2="12.357119636316"/>
    <line x1="27.0825169834653" y1="12.357119636316" x2="25.4157817045583" y2="11.078188674994"/>
    <line x1="25.4157817045583" y1="11.078188674994" x2="23.4748273629135" y2="10.2742190627378"/>
    <line x1="23.4748273629135" y1="10.2742190627378" x2="21.3919267893353" y2="10.0"/>
    <line x1="21.3919267893353" y1="10.0" x2="19.3090262157571" y2="10.2742190627378"/>
    <line x1="19.3090262157571" y1="10.2742190627378" x2="17.3680718741123" y2="11.078188674994"/>
    <line x1="17.3680718741123" y1="11.078188674994" x2="15.7013365952053" y2="12.357119636316"/>
    <line x1="15.7013365952053" y1="12.357119636316" x2="14.4224056338833" y2="14.023854915223"/>
    <line x1="14.4224056338833" y1="14.023854915223" x2="14.0852711254283" y2="14.6077890128517"/>
    <line x1="14.0852711254283" y1="14.6077890128517" x2="14.0012228345992" y2="14.714006794573"/>
    <line x1="14.0012228345992" y1="14.714006794573" x2="13.8753259887359" y2="14.7639699464628"/>
    <line x1="13.8753259887359" y1="14.7639699464628" x2="13.741314546017" y2="14.7442908823207"/>
    <line x1="13.741314546017" y1="14.7442908823207" x2="12.6984523650254" y2="14.3002112048996"/>
    <line x1="12.6984523650254" y1="14.3002112048996" x2="12.4931433381503" y2="14.2548269322428"/>
    <line x1="12.4931433381503" y1="14.2548269322428" x2="12.1443910066227" y2="14.220505063088"/>
    <line x1="12.1443910066227" y1="14.220505063088" x2="11.6539097908529" y2="14.2317448369369"/>
    <line x1="11.6539097908529" y1="14.2317448369369" x2="11.0296949806982" y2="14.3225376107525"/>
    <line x1="11.0296949806982" y1="14.3225376107525" x2="10.285893357011" y2="14.5253508953572"/>
    <line x1="10.285893357011" y1="14.5253508953572" x2="10.0" y2="15.5307443683198"/>
    <line x1="10.0" y1="15.5307443683198" x2="10.5553846933056" y2="16.0926877018542"/>
    <line x1="10.5553846933056" y1="16.0926877018542" x2="11.0505741894103" y2="16.4834239555358"/>
    <line x1="11.0505741894103" y1="16.4834239555358" x2="11.4697234954216" y2="16.7383984931067"/>
    <line x1="11.4697234954216" y1="16.7383984931067" x2="11.7889128087309" y2="16.8830510482771"/>
    <line x1="11.7889128087309" y1="16.8830510482771" x2="11.9894077779594" y2="16.9464016286615"/>
    <line x1="11.9894077779594" y1="16.9464016286615" x2="13.1145927580548" y2="17.0832484372062"/>
    <line x1="13.1145927580548" y1="17.0832484372062" x2="13.2404896039181" y2="17.133211589096"/>
    <line x1="13.2404896039181" y1="17.133211589096" x2="13.3245378947472" y2="17.2394293708173"/>
    <line x1="13.3245378947472" y1="17.2394293708173" x2="13.3442169588893" y2="17.3734408135362"/>
    <line x1="13.3442169588893" y1="17.3734408135362" x2="13.3442169588893" y2="18.047709830446"/>
    <line x1="13.3442169588893" y1="18.047709830446" x2="13.3442169588893" y2="18.7219788473559"/>
    <line x1="13.3442169588893" y1="18.7219788473559" x2="13.3245378947472" y2="18.8559902900747"/>
    <line x1="13.3245378947472" y1="18.8559902900747" x2="13.2404896039181" y2="18.9622080717961"/>
    <line x1="13.2404896039181" y1="18.9622080717961" x2="13.1145927580548" y2="19.0121712236858"/>
    <line x1="13.1145927580548" y1="19.0121712236858" x2="11.9894077779594" y2="19.1490180322305"/>
    <line x1="11.9894077779594" y1="19.1490180322305" x2="11.7889128087309" y2="19.212368612615"/>
    <line x1="11.7889128087309" y1="19.212368612615" x2="11.4697234954216" y2="19.3570211677854"/>
    <line x1="11.4697234954216" y1="19.3570211677854" x2="11.0505741894103" y2="19.6119957053562"/>
    <line x1="11.0505741894103" y1="19.6119957053562" x2="10.5553846933056" y2="20.0027319590378"/>
    <line x1="10.5553846933056" y1="20.0027319590378" x2="10.0126402341188" y2="20.5502742275742"/>
    <line x1="10.0126402341188" y1="20.5502742275742" x2="10.2677418408072" y2="21.547709830446"/>
    <line x1="10.2677418408072" y1="21.547709830446" x2="11.0296949806982" y2="21.7728820501389"/>
    <line x1="11.0296949806982" y1="21.7728820501389" x2="11.6539097908529" y2="21.8636748239555"/>
    <line x1="11.6539097908529" y1="21.8636748239555" x2="12.1443910066227" y2="21.8749145978045"/>
    <line x1="12.1443910066227" y1="21.8749145978045" x2="12.4931433381503" y2="21.8405927286495"/>
    <line x1="12.4931433381503" y1="21.8405927286495" x2="12.6984523650254" y2="21.7952084559924"/>
    <line x1="12.6984523650254" y1="21.7952084559924" x2="13.741314546017" y2="21.351128778571"/>
    <line x1="13.741314546017" y1="21.351128778571" x2="13.8753259887359" y2="21.3314497144293"/>
    <line x1="13.8753259887359" y1="21.3314497144293" x2="14.0012228345992" y2="21.3814128663194"/>
    <line x1="14.0012228345992" y1="21.3814128663194" x2="14.0852711254283" y2="21.4876306480401"/>
    <line x1="14.0852711254283" y1="21.4876306480401" x2="14.4224056338833" y2="22.0715647456691"/>
    <line x1="14.4224056338833" y1="22.0715647456691" x2="14.7595401423382" y2="22.6554988432977"/>
    <line x1="14.7595401423382" y1="22.6554988432977" x2="14.8095032942279" y2="22.7813956891611"/>
    <line x1="14.8095032942279" y1="22.7813956891611" x2="14.7898242300859" y2="22.9154071318799"/>
    <line x1="14.7898242300859" y1="22.9154071318799" x2="14.7057759392568" y2="23.0216249136013"/>
    <line x1="14.7057759392568" y1="23.0216249136013" x2="13.7997605668098" y2="23.7027302162755"/>
    <line x1="13.7997605668098" y1="23.7027302162755" x2="13.6578021203193" y2="23.8578409128471"/>
    <line x1="13.6578021203193" y1="23.8578409128471" x2="13.4537023439621" y2="24.1427083570017"/>
    <line x1="13.4537023439621" y1="24.1427083570017" x2="13.2181956657631" y2="24.5730974368618"/>
    <line x1="13.2181956657631" y1="24.5730974368618" x2="12.9847171092901" y2="25.1590797067821"/>
    <line x1="12.9847171092901" y1="25.1590797067821" x2="12.7884577541391" y2="25.9046374505737"/>
    <line x1="12.7884577541391" y1="25.9046374505737" x2="13.5349991692076" y2="26.6511788656422"/>
    <line x1="13.5349991692076" y1="26.6511788656422" x2="14.2805569129992" y2="26.4549195104912"/>
    <line x1="14.2805569129992" y1="26.4549195104912" x2="14.8665391829195" y2="26.2214409540182"/>
    <line x1="14.8665391829195" y1="26.2214409540182" x2="15.2969282627796" y2="25.9859342758193"/>
    <line x1="15.2969282627796" y1="25.9859342758193" x2="15.5817957069342" y2="25.7818344994621"/>
    <line x1="15.5817957069342" y1="25.7818344994621" x2="15.7369064035058" y2="25.6398760529715"/>
    <line x1="15.7369064035058" y1="25.6398760529715" x2="16.41801170618" y2="24.7338606805245"/>
    <line x1="16.41801170618" y1="24.7338606805245" x2="16.5242294879014" y2="24.6498123896954"/>
    <line x1="16.5242294879014" y1="24.6498123896954" x2="16.6582409306202" y2="24.6301333255534"/>
    <line x1="16.6582409306202" y1="24.6301333255534" x2="16.7841377764836" y2="24.6800964774431"/>
    <line x1="16.7841377764836" y1="24.6800964774431" x2="17.3680718741123" y2="25.017230985898"/>
    <line x1="17.3680718741123" y1="25.017230985898" x2="17.952005971741" y2="25.354365494353"/>
    <line x1="17.952005971741" y1="25.354365494353" x2="18.0582237534623" y2="25.4384137851821"/>
    <line x1="18.0582237534623" y1="25.4384137851821" x2="18.108186905352" y2="25.5643106310454"/>
    <line x1="18.108186905352" y1="25.5643106310454" x2="18.08850784121" y2="25.6983220737643"/>
    <line x1="18.08850784121" y1="25.6983220737643" x2="17.6444281637888" y2="26.741184254756"/>
    <line x1="17.6444281637888" y1="26.741184254756" x2="17.5990438911321" y2="26.946493281631"/>
    <line x1="17.5990438911321" y1="26.946493281631" x2="17.5647220219773" y2="27.2952456131586"/>
    <line x1="17.5647220219773" y1="27.2952456131586" x2="17.5759617958262" y2="27.7857268289284"/>
    <line x1="17.5759617958262" y1="27.7857268289284" x2="17.6667545696417" y2="28.4099416390831"/>
    <line x1="17.6667545696417" y1="28.4099416390831" x2="17.8695678542464" y2="29.1537432627703"/>
    <line x1="17.8695678542464" y1="29.1537432627703" x2="18.8749613272091" y2="29.4396366197813"/>
    <line x1="18.8749613272091" y1="29.4396366197813" x2="19.4369046607434" y2="28.8842519264757"/>
    <line x1="19.4369046607434" y1="28.8842519264757" x2="19.8276409144251" y2="28.389062430371"/>
    <line x1="19.8276409144251" y1="28.389062430371" x2="20.0826154519959" y2="27.9699131243598"/>
    <line x1="20.0826154519959" y1="27.9699131243598" x2="20.2272680071663" y2="27.6507238110504"/>
    <line x1="20.2272680071663" y1="27.6507238110504" x2="20.2906185875508" y2="27.4502288418219"/>
    <line x1="20.2906185875508" y1="27.4502288418219" x2="20.4274653960955" y2="26.3250438617265"/>
    <line x1="20.4274653960955" y1="26.3250438617265" x2="20.4774285479852" y2="26.1991470158632"/>
    <line x1="20.4774285479852" y1="26.1991470158632" x2="20.5836463297066" y2="26.1150987250341"/>
    <line x1="20.5836463297066" y1="26.1150987250341" x2="20.7176577724254" y2="26.0954196608921"/>
    <line x1="20.7176577724254" y1="26.0954196608921" x2="21.3919267893353" y2="26.095419660892"/>
    <line x1="21.3919267893353" y1="26.095419660892" x2="22.0661958062451" y2="26.095419660892"/>
    <line x1="22.0661958062451" y1="26.095419660892" x2="22.200207248964" y2="26.1150987250341"/>
    <line x1="22.200207248964" y1="26.1150987250341" x2="22.3064250306853" y2="26.1991470158632"/>
    <line x1="22.3064250306853" y1="26.1991470158632" x2="22.3563881825751" y2="26.3250438617265"/>
    <line x1="22.3563881825751" y1="26.3250438617265" x2="22.4932349911198" y2="27.4502288418219"/>
    <line x1="22.4932349911198" y1="27.4502288418219" x2="22.5565855715042" y2="27.6507238110504"/>
    <line x1="22.5565855715042" y1="27.6507238110504" x2="22.7012381266747" y2="27.9699131243597"/>
    <line x1="22.7012381266747" y1="27.9699131243597" x2="22.9562126642454" y2="28.389062430371"/>
    <line x1="22.9562126642454" y1="28.389062430371" x2="23.3469489179272" y2="28.8842519264757"/>
    <line x1="23.3469489179272" y1="28.8842519264757" x2="23.8944911864634" y2="29.4269963856625"/>
    <line x1="23.8944911864634" y1="29.4269963856625" x2="24.9081341533536" y2="29.171890559126"/>
    <line x1="24.9081341533536" y1="29.171890559126" x2="25.1170990090288" y2="28.4099416390831"/>
    <line x1="25.1170990090288" y1="28.4099416390831" x2="25.2078917828444" y2="27.7857268289284"/>
    <line x1="25.2078917828444" y1="27.7857268289284" x2="25.2191315566933" y2="27.2952456131586"/>
    <line x1="25.2191315566933" y1="27.2952456131586" x2="25.1848096875385" y2="26.946493281631"/>
    <line x1="25.1848096875385" y1="26.946493281631" x2="25.1394254148817" y2="26.7411842547559"/>
    <line x1="25.1394254148817" y1="26.7411842547559" x2="24.6953457374605" y2="25.6983220737643"/>
    <line x1="24.6953457374605" y1="25.6983220737643" x2="24.6756666733185" y2="25.5643106310454"/>
    <line x1="24.6756666733185" y1="25.5643106310454" x2="24.7256298252083" y2="25.4384137851821"/>
    <line x1="24.7256298252083" y1="25.4384137851821" x2="24.8318476069296" y2="25.354365494353"/>
    <line x1="24.8318476069296" y1="25.354365494353" x2="25.4157817045583" y2="25.017230985898"/>
    <line x1="25.4157817045583" y1="25.017230985898" x2="27.0825169834653" y2="23.7383000245761"/>
    <line x1="27.0825169834653" y1="23.7383000245761" x2="28.3614479447873" y2="22.071564745669"/>
    <line x1="28.3614479447873" y1="22.071564745669" x2="28.5784357553885" y2="21.547709830446"/>
    <line x1="28.5784357553885" y1="21.547709830446" x2="41.3919267893353" y2="21.547709830446"/>
    <line x1="22.8408155287689" y1="17.6594812627922" x2="22.8919267893353" y2="18.047709830446"/>
    <line x1="22.8919267893353" y1="18.047709830446" x2="22.8408155287689" y2="18.4359383980998"/>
    <line x1="22.8408155287689" y1="18.4359383980998" x2="22.6909648950119" y2="18.797709830446"/>
    <line x1="22.6909648950119" y1="18.797709830446" x2="22.4525869611151" y2="19.1083700022259"/>
    <line x1="22.4525869611151" y1="19.1083700022259" x2="22.1419267893353" y2="19.3467479361227"/>
    <line x1="22.1419267893353" y1="19.3467479361227" x2="21.7801553569891" y2="19.4965985698796"/>
    <line x1="21.7801553569891" y1="19.4965985698796" x2="21.3919267893353" y2="19.547709830446"/>
    <line x1="21.3919267893353" y1="19.547709830446" x2="21.0036982216815" y2="19.4965985698796"/>
    <line x1="21.0036982216815" y1="19.4965985698796" x2="20.6419267893353" y2="19.3467479361227"/>
    <line x1="20.6419267893353" y1="19.3467479361227" x2="20.3312666175555" y2="19.1083700022258"/>
    <line x1="20.3312666175555" y1="19.1083700022258" x2="20.0928886836586" y2="18.797709830446"/>
    <line x1="20.0928886836586" y1="18.797709830446" x2="19.9430380499017" y2="18.4359383980998"/>
    <line x1="19.9430380499017" y1="18.4359383980998" x2="19.8919267893353" y2="18.047709830446"/>
    <line x1="19.8919267893353" y1="18.047709830446" x2="19.9430380499017" y2="17.6594812627922"/>
    <line x1="19.9430380499017" y1="17.6594812627922" x2="20.0928886836586" y2="17.297709830446"/>
    <line x1="20.0928886836586" y1="17.297709830446" x2="20.3312666175555" y2="16.9870496586662"/>
    <line x1="20.3312666175555" y1="16.9870496586662" x2="20.6419267893353" y2="16.7486717247694"/>
    <line x1="20.6419267893353" y1="16.7486717247694" x2="21.0036982216815" y2="16.5988210910124"/>
    <line x1="21.0036982216815" y1="16.5988210910124" x2="21.3919267893353" y2="16.547709830446"/>
    <line x1="21.3919267893353" y1="16.547709830446" x2="21.7801553569891" y2="16.5988210910124"/>
    <line x1="21.7801553569891" y1="16.5988210910124" x2="22.1419267893353" y2="16.7486717247694"/>
    <line x1="22.1419267893353" y1="16.7486717247694" x2="22.4525869611151" y2="16.9870496586662"/>
    <line x1="22.4525869611151" y1="16.9870496586662" x2="22.6909648950119" y2="17.297709830446"/>
    <line x1="22.6909648950119" y1="17.297709830446" x2="22.8408155287689" y2="17.6594812627922"/>
    <line x1="39.9430380499017" y1="18.4359383980998" x2="39.8919267893353" y2="18.047709830446"/>
    <line x1="39.8919267893353" y1="18.047709830446" x2="39.9430380499017" y2="17.6594812627922"/>
    <line x1="39.9430380499017" y1="17.6594812627922" x2="40.0928886836586" y2="17.297709830446"/>
    <line x1="40.0928886836586" y1="17.297709830446" x2="40.3312666175555" y2="16.9870496586662"/>
    <line x1="40.3312666175555" y1="16.9870496586662" x2="40.6419267893353" y2="16.7486717247694"/>
    <line x1="40.6419267893353" y1="16.7486717247694" x2="41.0036982216815" y2="16.5988210910124"/>
    <line x1="41.0036982216815" y1="16.5988210910124" x2="41.3919267893353" y2="16.547709830446"/>
    <line x1="41.3919267893353" y1="16.547709830446" x2="41.7801553569891" y2="16.5988210910124"/>
    <line x1="41.7801553569891" y1="16.5988210910124" x2="42.1419267893353" y2="16.7486717247694"/>
    <line x1="42.1419267893353" y1="16.7486717247694" x2="42.4525869611151" y2="16.9870496586662"/>
    <line x1="42.4525869611151" y1="16.9870496586662" x2="42.6909648950119" y2="17.297709830446"/>
    <line x1="42.6909648950119" y1="17.297709830446" x2="42.8408155287689" y2="17.6594812627922"/>
    <line x1="42.8408155287689" y1="17.6594812627922" x2="42.8919267893353" y2="18.047709830446"/>
    <line x1="42.8919267893353" y1="18.047709830446" x2="42.8408155287689" y2="18.4359383980998"/>
    <line x1="42.8408155287689" y1="18.4359383980998" x2="42.6909648950119" y2="18.797709830446"/>
    <line x1="42.6909648950119" y1="18.797709830446" x2="42.4525869611151" y2="19.1083700022258"/>
    <line x1="42.4525869611151" y1="19.1083700022258" x2="42.1419267893353" y2="19.3467479361227"/>
    <line x1="42.1419267893353" y1="19.3467479361227" x2="41.7801553569891" y2="19.4965985698796"/>
    <line x1="41.7801553569891" y1="19.4965985698796" x2="41.3919267893353" y2="19.547709830446"/>
    <line x1="41.3919267893353" y1="19.547709830446" x2="41.0036982216815" y2="19.4965985698796"/>
    <line x1="41.0036982216815" y1="19.4965985698796" x2="40.6419267893353" y2="19.3467479361227"/>
    <line x1="40.6419267893353" y1="19.3467479361227" x2="40.3312666175555" y2="19.1083700022258"/>
    <line x1="40.3312666175555" y1="19.1083700022258" x2="40.0928886836586" y2="18.797709830446"/>
    <line x1="40.0928886836586" y1="18.797709830446" x2="39.9430380499017" y2="18.4359383980998"/>
  </g>
</svg>
