<?xml version="1.0" standalone="no"?>
<!DOCTYPE svg PUBLIC "-//W3C//DTD SVG 1.1//EN" "http://www.w3.org/Graphics/SVG/1.1/DTD/svg11.dtd">
<svg width="43.0mm" height="130.0mm"
 viewBox="0 0 43.0 130.0"
 xmlns="http://www.w3.org/2000/svg" version="1.1"
 xmlns:xlink="http://www.w3.org/1999/xlink">
<desc>Output from Flights of Ideas SVG Sketchup Plugin</desc>

<g id="text_annotations" font-size="10" stroke="rgb(255,0,0)" stroke-width="1">
</g>
  <g id="face0" fill="none" stroke="rgb(0,0,255)" stroke-width="1" stroke-miterlimit="4" stroke-dasharray="none" stroke-linejoin="round" stroke-linecap="round">
    <line x1="33.0" y1="120.0" x2="33.0" y2="10.0"/>
    <line x1="33.0" y1="10.0" x2="10.0" y2="10.0"/>
    <line x1="10.0" y1="10.0" x2="10.0" y2="120.0"/>
    <line x1="10.0" y1="120.0" x2="33.0" y2="120.0"/>
    <line x1="22.5" y1="87.0" x2="22.5" y2="90.0"/>
    <line x1="22.5" y1="90.0" x2="22.4659258262891" y2="90.2588190451025"/>
    <line x1="22.4659258262891" y1="90.2588190451025" x2="22.3660254037844" y2="90.5"/>
    <line x1="22.3660254037844" y1="90.5" x2="22.2071067811866" y2="90.7071067811866"/>
    <line x1="22.2071067811866" y1="90.7071067811866" x2="22.0" y2="90.8660254037844"/>
    <line x1="22.0" y1="90.8660254037844" x2="21.7588190451025" y2="90.9659258262891"/>
    <line x1="21.7588190451025" y1="90.9659258262891" x2="21.5" y2="91.0"/>
    <line x1="21.5" y1="91.0" x2="21.2411809548975" y2="90.9659258262891"/>
    <line x1="21.2411809548975" y1="90.9659258262891" x2="21.0" y2="90.8660254037844"/>
    <line x1="21.0" y1="90.8660254037844" x2="20.7928932188135" y2="90.7071067811866"/>
    <line x1="20.7928932188135" y1="90.7071067811866" x2="20.6339745962156" y2="90.5"/>
    <line x1="20.6339745962156" y1="90.5" x2="20.5340741737109" y2="90.2588190451025"/>
    <line x1="20.5340741737109" y1="90.2588190451025" x2="20.5" y2="90.0"/>
    <line x1="20.5" y1="90.0" x2="20.5" y2="87.0"/>
    <line x1="20.5" y1="87.0" x2="20.5340741737109" y2="86.7411809548975"/>
    <line x1="20.5340741737109" y1="86.7411809548975" x2="20.6339745962156" y2="86.5"/>
    <line x1="20.6339745962156" y1="86.5" x2="20.7928932188135" y2="86.2928932188134"/>
    <line x1="20.7928932188135" y1="86.2928932188134" x2="21.0" y2="86.1339745962156"/>
    <line x1="21.0" y1="86.1339745962156" x2="21.2411809548975" y2="86.0340741737109"/>
    <line x1="21.2411809548975" y1="86.0340741737109" x2="21.5" y2="86.0"/>
    <line x1="21.5" y1="86.0" x2="21.7588190451025" y2="86.0340741737109"/>
    <line x1="21.7588190451025" y1="86.0340741737109" x2="22.0" y2="86.1339745962156"/>
    <line x1="22.0" y1="86.1339745962156" x2="22.2071067811866" y2="86.2928932188134"/>
    <line x1="22.2071067811866" y1="86.2928932188134" x2="22.3660254037844" y2="86.5"/>
    <line x1="22.3660254037844" y1="86.5" x2="22.4659258262891" y2="86.7411809548975"/>
    <line x1="22.4659258262891" y1="86.7411809548975" x2="22.5" y2="87.0"/>
    <line x1="22.5" y1="14.0" x2="22.5" y2="17.0"/>
    <line x1="22.5" y1="17.0" x2="22.4659258262891" y2="17.2588190451025"/>
    <line x1="22.4659258262891" y1="17.2588190451025" x2="22.3660254037844" y2="17.5"/>
    <line x1="22.3660254037844" y1="17.5" x2="22.2071067811866" y2="17.7071067811866"/>
    <line x1="22.2071067811866" y1="17.7071067811866" x2="22.0" y2="17.8660254037845"/>
    <line x1="22.0" y1="17.8660254037845" x2="21.7588190451025" y2="17.9659258262891"/>
    <line x1="21.7588190451025" y1="17.9659258262891" x2="21.5" y2="18.0"/>
    <line x1="21.5" y1="18.0" x2="21.2411809548975" y2="17.9659258262891"/>
    <line x1="21.2411809548975" y1="17.9659258262891" x2="21.0" y2="17.8660254037845"/>
    <line x1="21.0" y1="17.8660254037845" x2="20.7928932188135" y2="17.7071067811866"/>
    <line x1="20.7928932188135" y1="17.7071067811866" x2="20.6339745962156" y2="17.5"/>
    <line x1="20.6339745962156" y1="17.5" x2="20.5340741737109" y2="17.2588190451025"/>
    <line x1="20.5340741737109" y1="17.2588190451025" x2="20.5" y2="17.0"/>
    <line x1="20.5" y1="17.0" x2="20.5" y2="14.0"/>
    <line x1="20.5" y1="14.0" x2="20.5340741737109" y2="13.7411809548975"/>
    <line x1="20.5340741737109" y1="13.7411809548975" x2="20.6339745962156" y2="13.5"/>
    <line x1="20.6339745962156" y1="13.5" x2="20.7928932188135" y2="13.2928932188135"/>
    <line x1="20.7928932188135" y1="13.2928932188135" x2="21.0" y2="13.1339745962156"/>
    <line x1="21.0" y1="13.1339745962156" x2="21.2411809548975" y2="13.034074173711"/>
    <line x1="21.2411809548975" y1="13.034074173711" x2="21.5" y2="13.0"/>
    <line x1="21.5" y1="13.0" x2="21.7588190451025" y2="13.0340741737109"/>
    <line x1="21.7588190451025" y1="13.0340741737109" x2="22.0" y2="13.1339745962156"/>
    <line x1="22.0" y1="13.1339745962156" x2="22.2071067811866" y2="13.2928932188135"/>
    <line x1="22.2071067811866" y1="13.2928932188135" x2="22.3660254037844" y2="13.5"/>
    <line x1="22.3660254037844" y1="13.5" x2="22.4659258262891" y2="13.7411809548975"/>
    <line x1="22.4659258262891" y1="13.7411809548975" x2="22.5" y2="14.0"/>
    <line x1="20.5" y1="43.0" x2="20.5" y2="40.0"/>
    <line x1="20.5" y1="40.0" x2="20.5340741737109" y2="39.7411809548975"/>
    <line x1="20.5340741737109" y1="39.7411809548975" x2="20.6339745962156" y2="39.5"/>
    <line x1="20.6339745962156" y1="39.5" x2="20.7928932188135" y2="39.2928932188135"/>
    <line x1="20.7928932188135" y1="39.2928932188135" x2="21.0" y2="39.1339745962156"/>
    <line x1="21.0" y1="39.1339745962156" x2="21.2411809548975" y2="39.034074173711"/>
    <line x1="21.2411809548975" y1="39.034074173711" x2="21.5" y2="39.0"/>
    <line x1="21.5" y1="39.0" x2="21.7588190451025" y2="39.034074173711"/>
    <line x1="21.7588190451025" y1="39.034074173711" x2="22.0" y2="39.1339745962156"/>
    <line x1="22.0" y1="39.1339745962156" x2="22.2071067811866" y2="39.2928932188135"/>
    <line x1="22.2071067811866" y1="39.2928932188135" x2="22.3660254037844" y2="39.5"/>
    <line x1="22.3660254037844" y1="39.5" x2="22.4659258262891" y2="39.7411809548975"/>
    <line x1="22.4659258262891" y1="39.7411809548975" x2="22.5" y2="40.0"/>
    <line x1="22.5" y1="40.0" x2="22.5" y2="43.0"/>
    <line x1="22.5" y1="43.0" x2="22.4659258262891" y2="43.2588190451025"/>
    <line x1="22.4659258262891" y1="43.2588190451025" x2="22.3660254037844" y2="43.5"/>
    <line x1="22.3660254037844" y1="43.5" x2="22.2071067811865" y2="43.7071067811866"/>
    <line x1="22.2071067811865" y1="43.7071067811866" x2="22.0" y2="43.8660254037844"/>
    <line x1="22.0" y1="43.8660254037844" x2="21.7588190451025" y2="43.9659258262891"/>
    <line x1="21.7588190451025" y1="43.9659258262891" x2="21.5" y2="44.0"/>
    <line x1="21.5" y1="44.0" x2="21.2411809548975" y2="43.9659258262891"/>
    <line x1="21.2411809548975" y1="43.9659258262891" x2="21.0" y2="43.8660254037844"/>
    <line x1="21.0" y1="43.8660254037844" x2="20.7928932188135" y2="43.7071067811866"/>
    <line x1="20.7928932188135" y1="43.7071067811866" x2="20.6339745962156" y2="43.5"/>
    <line x1="20.6339745962156" y1="43.5" x2="20.5340741737109" y2="43.2588190451025"/>
    <line x1="20.5340741737109" y1="43.2588190451025" x2="20.5" y2="43.0"/>
    <line x1="20.5" y1="116.0" x2="20.5" y2="113.0"/>
    <line x1="20.5" y1="113.0" x2="20.5340741737109" y2="112.741180954897"/>
    <line x1="20.5340741737109" y1="112.741180954897" x2="20.6339745962156" y2="112.5"/>
    <line x1="20.6339745962156" y1="112.5" x2="20.7928932188135" y2="112.292893218813"/>
    <line x1="20.7928932188135" y1="112.292893218813" x2="21.0" y2="112.133974596216"/>
    <line x1="21.0" y1="112.133974596216" x2="21.2411809548975" y2="112.034074173711"/>
    <line x1="21.2411809548975" y1="112.034074173711" x2="21.5" y2="112.0"/>
    <line x1="21.5" y1="112.0" x2="21.7588190451025" y2="112.034074173711"/>
    <line x1="21.7588190451025" y1="112.034074173711" x2="22.0" y2="112.133974596216"/>
    <line x1="22.0" y1="112.133974596216" x2="22.2071067811866" y2="112.292893218813"/>
    <line x1="22.2071067811866" y1="112.292893218813" x2="22.3660254037844" y2="112.5"/>
    <line x1="22.3660254037844" y1="112.5" x2="22.4659258262891" y2="112.741180954897"/>
    <line x1="22.4659258262891" y1="112.741180954897" x2="22.5" y2="113.0"/>
    <line x1="22.5" y1="113.0" x2="22.5" y2="116.0"/>
    <line x1="22.5" y1="116.0" x2="22.4659258262891" y2="116.258819045103"/>
    <line x1="22.4659258262891" y1="116.258819045103" x2="22.3660254037844" y2="116.5"/>
    <line x1="22.3660254037844" y1="116.5" x2="22.2071067811866" y2="116.707106781187"/>
    <line x1="22.2071067811866" y1="116.707106781187" x2="22.0" y2="116.866025403784"/>
    <line x1="22.0" y1="116.866025403784" x2="21.7588190451025" y2="116.965925826289"/>
    <line x1="21.7588190451025" y1="116.965925826289" x2="21.5" y2="117.0"/>
    <line x1="21.5" y1="117.0" x2="21.2411809548975" y2="116.965925826289"/>
    <line x1="21.2411809548975" y1="116.965925826289" x2="21.0" y2="116.866025403784"/>
    <line x1="21.0" y1="116.866025403784" x2="20.7928932188135" y2="116.707106781187"/>
    <line x1="20.7928932188135" y1="116.707106781187" x2="20.6339745962156" y2="116.5"/>
    <line x1="20.6339745962156" y1="116.5" x2="20.5340741737109" y2="116.258819045103"/>
    <line x1="20.5340741737109" y1="116.258819045103" x2="20.5" y2="116.0"/>
    <line x1="20.2009618943234" y1="34.2517708249124" x2="20.4393398282202" y2="33.9411106531326"/>
    <line x1="20.4393398282202" y1="33.9411106531326" x2="20.75" y2="33.7027327192357"/>
    <line x1="20.75" y1="33.7027327192357" x2="21.1117714323462" y2="33.5528820854788"/>
    <line x1="21.1117714323462" y1="33.5528820854788" x2="21.5" y2="33.5017708249124"/>
    <line x1="21.5" y1="33.5017708249124" x2="21.8882285676538" y2="33.5528820854788"/>
    <line x1="21.8882285676538" y1="33.5528820854788" x2="22.25" y2="33.7027327192357"/>
    <line x1="22.25" y1="33.7027327192357" x2="22.5606601717798" y2="33.9411106531326"/>
    <line x1="22.5606601717798" y1="33.9411106531326" x2="22.7990381056767" y2="34.2517708249124"/>
    <line x1="22.7990381056767" y1="34.2517708249124" x2="22.9488887394336" y2="34.6135422572586"/>
    <line x1="22.9488887394336" y1="34.6135422572586" x2="23.0" y2="35.0017708249124"/>
    <line x1="23.0" y1="35.0017708249124" x2="22.9488887394336" y2="35.3899993925662"/>
    <line x1="22.9488887394336" y1="35.3899993925662" x2="22.7990381056767" y2="35.7517708249124"/>
    <line x1="22.7990381056767" y1="35.7517708249124" x2="22.5606601717798" y2="36.0624309966922"/>
    <line x1="22.5606601717798" y1="36.0624309966922" x2="22.25" y2="36.3008089305891"/>
    <line x1="22.25" y1="36.3008089305891" x2="21.8882285676538" y2="36.450659564346"/>
    <line x1="21.8882285676538" y1="36.450659564346" x2="21.5" y2="36.5017708249124"/>
    <line x1="21.5" y1="36.5017708249124" x2="21.1117714323462" y2="36.450659564346"/>
    <line x1="21.1117714323462" y1="36.450659564346" x2="20.75" y2="36.300808930589"/>
    <line x1="20.75" y1="36.300808930589" x2="20.4393398282202" y2="36.0624309966922"/>
    <line x1="20.4393398282202" y1="36.0624309966922" x2="20.2009618943234" y2="35.7517708249124"/>
    <line x1="20.2009618943234" y1="35.7517708249124" x2="20.0511112605664" y2="35.3899993925662"/>
    <line x1="20.0511112605664" y1="35.3899993925662" x2="20.0" y2="35.0017708249124"/>
    <line x1="20.0" y1="35.0017708249124" x2="20.0511112605664" y2="34.6135422572586"/>
    <line x1="20.0511112605664" y1="34.6135422572586" x2="20.2009618943234" y2="34.2517708249124"/>
    <line x1="22.440461296703" y1="108.96066017178" x2="22.1298011249232" y2="109.199038105677"/>
    <line x1="22.1298011249232" y1="109.199038105677" x2="21.768029692577" y2="109.348888739434"/>
    <line x1="21.768029692577" y1="109.348888739434" x2="21.3798011249232" y2="109.4"/>
    <line x1="21.3798011249232" y1="109.4" x2="20.9915725572694" y2="109.348888739434"/>
    <line x1="20.9915725572694" y1="109.348888739434" x2="20.6298011249232" y2="109.199038105677"/>
    <line x1="20.6298011249232" y1="109.199038105677" x2="20.3191409531434" y2="108.96066017178"/>
    <line x1="20.3191409531434" y1="108.96066017178" x2="20.0807630192465" y2="108.65"/>
    <line x1="20.0807630192465" y1="108.65" x2="19.9309123854896" y2="108.288228567654"/>
    <line x1="19.9309123854896" y1="108.288228567654" x2="19.8798011249232" y2="107.9"/>
    <line x1="19.8798011249232" y1="107.9" x2="19.9309123854896" y2="107.511771432346"/>
    <line x1="19.9309123854896" y1="107.511771432346" x2="20.0807630192465" y2="107.15"/>
    <line x1="20.0807630192465" y1="107.15" x2="20.3191409531434" y2="106.83933982822"/>
    <line x1="20.3191409531434" y1="106.83933982822" x2="20.6298011249232" y2="106.600961894323"/>
    <line x1="20.6298011249232" y1="106.600961894323" x2="20.9915725572694" y2="106.451111260566"/>
    <line x1="20.9915725572694" y1="106.451111260566" x2="21.3798011249232" y2="106.4"/>
    <line x1="21.3798011249232" y1="106.4" x2="21.768029692577" y2="106.451111260566"/>
    <line x1="21.768029692577" y1="106.451111260566" x2="22.1298011249232" y2="106.600961894323"/>
    <line x1="22.1298011249232" y1="106.600961894323" x2="22.440461296703" y2="106.83933982822"/>
    <line x1="22.440461296703" y1="106.83933982822" x2="22.6788392305998" y2="107.15"/>
    <line x1="22.6788392305998" y1="107.15" x2="22.8286898643568" y2="107.511771432346"/>
    <line x1="22.8286898643568" y1="107.511771432346" x2="22.8798011249232" y2="107.9"/>
    <line x1="22.8798011249232" y1="107.9" x2="22.8286898643568" y2="108.288228567654"/>
    <line x1="22.8286898643568" y1="108.288228567654" x2="22.6788392305998" y2="108.65"/>
    <line x1="22.6788392305998" y1="108.65" x2="22.440461296703" y2="108.96066017178"/>
    <line x1="21.5" y1="60.0" x2="20.2059047744874" y2="59.8296291314454"/>
    <line x1="20.2059047744874" y1="59.8296291314454" x2="19.0" y2="59.3301270189222"/>
    <line x1="19.0" y1="59.3301270189222" x2="17.9644660940673" y2="58.5355339059327"/>
    <line x1="17.9644660940673" y1="58.5355339059327" x2="17.1698729810778" y2="57.5"/>
    <line x1="17.1698729810778" y1="57.5" x2="16.6703708685547" y2="56.2940952255126"/>
    <line x1="16.6703708685547" y1="56.2940952255126" x2="16.5" y2="55.0"/>
    <line x1="16.5" y1="55.0" x2="16.6703708685547" y2="53.7059047744874"/>
    <line x1="16.6703708685547" y1="53.7059047744874" x2="17.1698729810778" y2="52.5"/>
    <line x1="17.1698729810778" y1="52.5" x2="17.9644660940673" y2="51.4644660940673"/>
    <line x1="17.9644660940673" y1="51.4644660940673" x2="19.0" y2="50.6698729810778"/>
    <line x1="19.0" y1="50.6698729810778" x2="20.2059047744874" y2="50.1703708685547"/>
    <line x1="20.2059047744874" y1="50.1703708685547" x2="21.5" y2="50.0"/>
    <line x1="21.5" y1="50.0" x2="22.7940952255126" y2="50.1703708685547"/>
    <line x1="22.7940952255126" y1="50.1703708685547" x2="24.0" y2="50.6698729810778"/>
    <line x1="24.0" y1="50.6698729810778" x2="25.0355339059327" y2="51.4644660940673"/>
    <line x1="25.0355339059327" y1="51.4644660940673" x2="25.8301270189222" y2="52.5"/>
    <line x1="25.8301270189222" y1="52.5" x2="26.3296291314454" y2="53.7059047744874"/>
    <line x1="26.3296291314454" y1="53.7059047744874" x2="26.5" y2="55.0"/>
    <line x1="26.5" y1="55.0" x2="26.3296291314454" y2="56.2940952255126"/>
    <line x1="26.3296291314454" y1="56.2940952255126" x2="25.8301270189222" y2="57.5"/>
    <line x1="25.8301270189222" y1="57.5" x2="25.0355339059327" y2="58.5355339059328"/>
    <line x1="25.0355339059327" y1="58.5355339059328" x2="24.0" y2="59.3301270189222"/>
    <line x1="24.0" y1="59.3301270189222" x2="22.7940952255126" y2="59.8296291314454"/>
    <line x1="22.7940952255126" y1="59.8296291314454" x2="21.5" y2="60.0"/>
    <line x1="24.0" y1="70.6698729810778" x2="25.0355339059327" y2="71.4644660940673"/>
    <line x1="25.0355339059327" y1="71.4644660940673" x2="25.8301270189222" y2="72.5"/>
    <line x1="25.8301270189222" y1="72.5" x2="26.3296291314454" y2="73.7059047744874"/>
    <line x1="26.3296291314454" y1="73.7059047744874" x2="26.5" y2="75.0"/>
    <line x1="26.5" y1="75.0" x2="26.3296291314453" y2="76.2940952255126"/>
    <line x1="26.3296291314453" y1="76.2940952255126" x2="25.8301270189222" y2="77.5"/>
    <line x1="25.8301270189222" y1="77.5" x2="25.0355339059327" y2="78.5355339059327"/>
    <line x1="25.0355339059327" y1="78.5355339059327" x2="24.0" y2="79.3301270189222"/>
    <line x1="24.0" y1="79.3301270189222" x2="22.7940952255126" y2="79.8296291314453"/>
    <line x1="22.7940952255126" y1="79.8296291314453" x2="21.5" y2="80.0"/>
    <line x1="21.5" y1="80.0" x2="20.2059047744874" y2="79.8296291314453"/>
    <line x1="20.2059047744874" y1="79.8296291314453" x2="19.0" y2="79.3301270189222"/>
    <line x1="19.0" y1="79.3301270189222" x2="17.9644660940673" y2="78.5355339059327"/>
    <line x1="17.9644660940673" y1="78.5355339059327" x2="17.1698729810778" y2="77.5"/>
    <line x1="17.1698729810778" y1="77.5" x2="16.6703708685547" y2="76.2940952255126"/>
    <line x1="16.6703708685547" y1="76.2940952255126" x2="16.5" y2="75.0"/>
    <line x1="16.5" y1="75.0" x2="16.6703708685547" y2="73.7059047744874"/>
    <line x1="16.6703708685547" y1="73.7059047744874" x2="17.1698729810778" y2="72.5"/>
    <line x1="17.1698729810778" y1="72.5" x2="17.9644660940673" y2="71.4644660940673"/>
    <line x1="17.9644660940673" y1="71.4644660940673" x2="19.0" y2="70.6698729810778"/>
    <line x1="19.0" y1="70.6698729810778" x2="20.2059047744874" y2="70.1703708685547"/>
    <line x1="20.2059047744874" y1="70.1703708685547" x2="21.5" y2="70.0"/>
    <line x1="21.5" y1="70.0" x2="22.7940952255126" y2="70.1703708685546"/>
    <line x1="22.7940952255126" y1="70.1703708685546" x2="24.0" y2="70.6698729810778"/>
  </g>
</svg>
