<?xml version="1.0" standalone="no"?>
<!DOCTYPE svg PUBLIC "-//W3C//DTD SVG 1.1//EN" "http://www.w3.org/Graphics/SVG/1.1/DTD/svg11.dtd">
<svg width="44.0mm" height="81.0000000000001mm"
 viewBox="0 0 44.0 81.0000000000001"
 xmlns="http://www.w3.org/2000/svg" version="1.1"
 xmlns:xlink="http://www.w3.org/1999/xlink">
<desc>Output from Flights of Ideas SVG Sketchup Plugin</desc>

<g id="text_annotations" font-size="10" stroke="rgb(255,0,0)" stroke-width="1">
</g>
  <g id="face0" fill="none" stroke="rgb(0,0,255)" stroke-width="1" stroke-miterlimit="4" stroke-dasharray="none" stroke-linejoin="round" stroke-linecap="round">
    <line x1="34.0" y1="48.0" x2="22.0" y2="48.0"/>
    <line x1="22.0" y1="48.0" x2="22.0" y2="24.9282032302755"/>
    <line x1="22.0" y1="24.9282032302755" x2="23.6568542494924" y2="23.6568542494924"/>
    <line x1="23.6568542494924" y1="23.6568542494924" x2="24.9282032302755" y2="22.0"/>
    <line x1="24.9282032302755" y1="22.0" x2="25.7274066103125" y2="20.0705523608202"/>
    <line x1="25.7274066103125" y1="20.0705523608202" x2="26.0" y2="18.0"/>
    <line x1="26.0" y1="18.0" x2="25.7274066103125" y2="15.9294476391798"/>
    <line x1="25.7274066103125" y1="15.9294476391798" x2="24.9282032302755" y2="14.0"/>
    <line x1="24.9282032302755" y1="14.0" x2="23.6568542494924" y2="12.3431457505076"/>
    <line x1="23.6568542494924" y1="12.3431457505076" x2="22.0" y2="11.0717967697245"/>
    <line x1="22.0" y1="11.0717967697245" x2="20.0705523608202" y2="10.2725933896875"/>
    <line x1="20.0705523608202" y1="10.2725933896875" x2="18.0" y2="10.0"/>
    <line x1="18.0" y1="10.0" x2="15.9294476391798" y2="10.2725933896875"/>
    <line x1="15.9294476391798" y1="10.2725933896875" x2="14.0" y2="11.0717967697245"/>
    <line x1="14.0" y1="11.0717967697245" x2="12.3431457505076" y2="12.3431457505076"/>
    <line x1="12.3431457505076" y1="12.3431457505076" x2="11.0717967697245" y2="14.0"/>
    <line x1="11.0717967697245" y1="14.0" x2="10.2725933896875" y2="15.9294476391798"/>
    <line x1="10.2725933896875" y1="15.9294476391798" x2="10.0" y2="18.0"/>
    <line x1="10.0" y1="18.0" x2="10.0" y2="52.0"/>
    <line x1="10.0" y1="52.0" x2="10.0" y2="63.0"/>
    <line x1="10.0" y1="63.0" x2="10.0" y2="71.0"/>
    <line x1="10.0" y1="71.0" x2="34.0" y2="71.0000000000001"/>
    <line x1="34.0" y1="71.0000000000001" x2="34.0" y2="48.0"/>
    <line x1="16.0" y1="52.0" x2="16.0" y2="57.0"/>
    <line x1="16.0" y1="57.0" x2="14.0" y2="57.0"/>
    <line x1="14.0" y1="57.0" x2="14.0" y2="52.0"/>
    <line x1="14.0" y1="52.0" x2="16.0" y2="52.0"/>
    <line x1="16.0" y1="67.0" x2="14.0" y2="67.0"/>
    <line x1="14.0" y1="67.0" x2="14.0" y2="62.0"/>
    <line x1="14.0" y1="62.0" x2="16.0" y2="62.0"/>
    <line x1="16.0" y1="62.0" x2="16.0" y2="67.0"/>
    <line x1="18.0" y1="16.5" x2="18.3882285676538" y2="16.5511112605664"/>
    <line x1="18.3882285676538" y1="16.5511112605664" x2="18.75" y2="16.7009618943233"/>
    <line x1="18.75" y1="16.7009618943233" x2="19.0606601717798" y2="16.9393398282202"/>
    <line x1="19.0606601717798" y1="16.9393398282202" x2="19.2990381056767" y2="17.25"/>
    <line x1="19.2990381056767" y1="17.25" x2="19.4488887394336" y2="17.6117714323462"/>
    <line x1="19.4488887394336" y1="17.6117714323462" x2="19.5" y2="18.0"/>
    <line x1="19.5" y1="18.0" x2="19.4488887394336" y2="18.3882285676538"/>
    <line x1="19.4488887394336" y1="18.3882285676538" x2="19.2990381056767" y2="18.75"/>
    <line x1="19.2990381056767" y1="18.75" x2="19.0606601717798" y2="19.0606601717798"/>
    <line x1="19.0606601717798" y1="19.0606601717798" x2="18.75" y2="19.2990381056767"/>
    <line x1="18.75" y1="19.2990381056767" x2="18.3882285676538" y2="19.4488887394336"/>
    <line x1="18.3882285676538" y1="19.4488887394336" x2="18.0" y2="19.5"/>
    <line x1="18.0" y1="19.5" x2="17.6117714323462" y2="19.4488887394336"/>
    <line x1="17.6117714323462" y1="19.4488887394336" x2="17.25" y2="19.2990381056767"/>
    <line x1="17.25" y1="19.2990381056767" x2="16.9393398282202" y2="19.0606601717798"/>
    <line x1="16.9393398282202" y1="19.0606601717798" x2="16.7009618943233" y2="18.75"/>
    <line x1="16.7009618943233" y1="18.75" x2="16.5511112605664" y2="18.3882285676538"/>
    <line x1="16.5511112605664" y1="18.3882285676538" x2="16.5" y2="18.0"/>
    <line x1="16.5" y1="18.0" x2="16.5511112605664" y2="17.6117714323462"/>
    <line x1="16.5511112605664" y1="17.6117714323462" x2="16.7009618943233" y2="17.25"/>
    <line x1="16.7009618943233" y1="17.25" x2="16.9393398282202" y2="16.9393398282202"/>
    <line x1="16.9393398282202" y1="16.9393398282202" x2="17.25" y2="16.7009618943233"/>
    <line x1="17.25" y1="16.7009618943233" x2="17.6117714323462" y2="16.5511112605664"/>
    <line x1="17.6117714323462" y1="16.5511112605664" x2="18.0" y2="16.5"/>
    <line x1="30.4999999999993" y1="67.0" x2="28.4999999999993" y2="67.0"/>
    <line x1="28.4999999999993" y1="67.0" x2="28.4999999999993" y2="62.0"/>
    <line x1="28.4999999999993" y1="62.0" x2="30.4999999999993" y2="62.0"/>
    <line x1="30.4999999999993" y1="62.0" x2="30.4999999999993" y2="67.0"/>
    <line x1="30.4999999999993" y1="57.0" x2="28.4999999999993" y2="57.0"/>
    <line x1="28.4999999999993" y1="57.0" x2="28.4999999999993" y2="52.0"/>
    <line x1="28.4999999999993" y1="52.0" x2="30.4999999999993" y2="52.0"/>
    <line x1="30.4999999999993" y1="52.0" x2="30.4999999999993" y2="57.0"/>
    <line x1="14.5" y1="41.0" x2="14.5511112605664" y2="40.6117714323463"/>
    <line x1="14.5511112605664" y1="40.6117714323463" x2="14.7009618943233" y2="40.25"/>
    <line x1="14.7009618943233" y1="40.25" x2="14.9393398282202" y2="39.9393398282202"/>
    <line x1="14.9393398282202" y1="39.9393398282202" x2="15.25" y2="39.7009618943234"/>
    <line x1="15.25" y1="39.7009618943234" x2="15.6117714323462" y2="39.5511112605664"/>
    <line x1="15.6117714323462" y1="39.5511112605664" x2="16.0" y2="39.5"/>
    <line x1="16.0" y1="39.5" x2="16.3882285676538" y2="39.5511112605664"/>
    <line x1="16.3882285676538" y1="39.5511112605664" x2="16.75" y2="39.7009618943234"/>
    <line x1="16.75" y1="39.7009618943234" x2="17.0606601717798" y2="39.9393398282202"/>
    <line x1="17.0606601717798" y1="39.9393398282202" x2="17.2990381056767" y2="40.25"/>
    <line x1="17.2990381056767" y1="40.25" x2="17.4488887394336" y2="40.6117714323463"/>
    <line x1="17.4488887394336" y1="40.6117714323463" x2="17.5" y2="41.0"/>
    <line x1="17.5" y1="41.0" x2="17.4488887394336" y2="41.3882285676538"/>
    <line x1="17.4488887394336" y1="41.3882285676538" x2="17.2990381056767" y2="41.75"/>
    <line x1="17.2990381056767" y1="41.75" x2="17.0606601717798" y2="42.0606601717799"/>
    <line x1="17.0606601717798" y1="42.0606601717799" x2="16.75" y2="42.2990381056767"/>
    <line x1="16.75" y1="42.2990381056767" x2="16.3882285676538" y2="42.4488887394337"/>
    <line x1="16.3882285676538" y1="42.4488887394337" x2="16.0" y2="42.5"/>
    <line x1="16.0" y1="42.5" x2="15.6117714323462" y2="42.4488887394336"/>
    <line x1="15.6117714323462" y1="42.4488887394336" x2="15.25" y2="42.2990381056767"/>
    <line x1="15.25" y1="42.2990381056767" x2="14.9393398282202" y2="42.0606601717799"/>
    <line x1="14.9393398282202" y1="42.0606601717799" x2="14.7009618943233" y2="41.75"/>
    <line x1="14.7009618943233" y1="41.75" x2="14.5511112605664" y2="41.3882285676538"/>
    <line x1="14.5511112605664" y1="41.3882285676538" x2="14.5" y2="41.0"/>
  </g>
</svg>
