<?xml version="1.0" standalone="no"?>
<!DOCTYPE svg PUBLIC "-//W3C//DTD SVG 1.1//EN" "http://www.w3.org/Graphics/SVG/1.1/DTD/svg11.dtd">
<svg width="60.0mm" height="30.0mm"
 viewBox="0 0 60.0 30.0"
 xmlns="http://www.w3.org/2000/svg" version="1.1"
 xmlns:xlink="http://www.w3.org/1999/xlink">
<desc>Output from Flights of Ideas SVG Sketchup Plugin</desc>

<g id="text_annotations" font-size="10" stroke="rgb(255,0,0)" stroke-width="1">
</g>
  <g id="face0" fill="none" stroke="rgb(0,0,255)" stroke-width="1" stroke-miterlimit="4" stroke-dasharray="none" stroke-linejoin="round" stroke-linecap="round">
    <line x1="10.0" y1="10.0" x2="10.0" y2="20.0"/>
    <line x1="10.0" y1="20.0" x2="50.0" y2="20.0"/>
    <line x1="50.0" y1="20.0" x2="50.0" y2="10.0"/>
    <line x1="50.0" y1="10.0" x2="10.0" y2="10.0"/>
    <line x1="45.5588190451025" y1="15.9659258262891" x2="45.3" y2="16.0"/>
    <line x1="45.3" y1="16.0" x2="43.3" y2="16.0"/>
    <line x1="43.3" y1="16.0" x2="43.0411809548975" y2="15.9659258262891"/>
    <line x1="43.0411809548975" y1="15.9659258262891" x2="42.8" y2="15.8660254037844"/>
    <line x1="42.8" y1="15.8660254037844" x2="42.5928932188135" y2="15.7071067811866"/>
    <line x1="42.5928932188135" y1="15.7071067811866" x2="42.4339745962156" y2="15.5"/>
    <line x1="42.4339745962156" y1="15.5" x2="42.3340741737109" y2="15.2588190451025"/>
    <line x1="42.3340741737109" y1="15.2588190451025" x2="42.3" y2="15.0"/>
    <line x1="42.3" y1="15.0" x2="42.3340741737109" y2="14.7411809548975"/>
    <line x1="42.3340741737109" y1="14.7411809548975" x2="42.4339745962156" y2="14.5"/>
    <line x1="42.4339745962156" y1="14.5" x2="42.5928932188135" y2="14.2928932188134"/>
    <line x1="42.5928932188135" y1="14.2928932188134" x2="42.8" y2="14.1339745962156"/>
    <line x1="42.8" y1="14.1339745962156" x2="43.0411809548975" y2="14.034074173711"/>
    <line x1="43.0411809548975" y1="14.034074173711" x2="43.3" y2="14.0"/>
    <line x1="43.3" y1="14.0" x2="45.3" y2="14.0"/>
    <line x1="45.3" y1="14.0" x2="45.5588190451025" y2="14.0340741737109"/>
    <line x1="45.5588190451025" y1="14.0340741737109" x2="45.8" y2="14.1339745962156"/>
    <line x1="45.8" y1="14.1339745962156" x2="46.0071067811866" y2="14.2928932188135"/>
    <line x1="46.0071067811866" y1="14.2928932188135" x2="46.1660254037844" y2="14.5"/>
    <line x1="46.1660254037844" y1="14.5" x2="46.2659258262891" y2="14.7411809548975"/>
    <line x1="46.2659258262891" y1="14.7411809548975" x2="46.3" y2="15.0"/>
    <line x1="46.3" y1="15.0" x2="46.2659258262891" y2="15.2588190451025"/>
    <line x1="46.2659258262891" y1="15.2588190451025" x2="46.1660254037844" y2="15.5"/>
    <line x1="46.1660254037844" y1="15.5" x2="46.0071067811866" y2="15.7071067811865"/>
    <line x1="46.0071067811866" y1="15.7071067811865" x2="45.8" y2="15.8660254037844"/>
    <line x1="45.8" y1="15.8660254037844" x2="45.5588190451025" y2="15.9659258262891"/>
    <line x1="16.9588190451025" y1="15.9659258262891" x2="16.7" y2="16.0"/>
    <line x1="16.7" y1="16.0" x2="14.7" y2="16.0"/>
    <line x1="14.7" y1="16.0" x2="14.4411809548975" y2="15.9659258262891"/>
    <line x1="14.4411809548975" y1="15.9659258262891" x2="14.2" y2="15.8660254037844"/>
    <line x1="14.2" y1="15.8660254037844" x2="13.9928932188135" y2="15.7071067811865"/>
    <line x1="13.9928932188135" y1="15.7071067811865" x2="13.8339745962156" y2="15.5"/>
    <line x1="13.8339745962156" y1="15.5" x2="13.7340741737109" y2="15.2588190451025"/>
    <line x1="13.7340741737109" y1="15.2588190451025" x2="13.7" y2="15.0"/>
    <line x1="13.7" y1="15.0" x2="13.7340741737109" y2="14.7411809548975"/>
    <line x1="13.7340741737109" y1="14.7411809548975" x2="13.8339745962156" y2="14.5"/>
    <line x1="13.8339745962156" y1="14.5" x2="13.9928932188135" y2="14.2928932188135"/>
    <line x1="13.9928932188135" y1="14.2928932188135" x2="14.2" y2="14.1339745962156"/>
    <line x1="14.2" y1="14.1339745962156" x2="14.4411809548975" y2="14.0340741737109"/>
    <line x1="14.4411809548975" y1="14.0340741737109" x2="14.7" y2="14.0"/>
    <line x1="14.7" y1="14.0" x2="16.7" y2="14.0"/>
    <line x1="16.7" y1="14.0" x2="16.9588190451025" y2="14.0340741737109"/>
    <line x1="16.9588190451025" y1="14.0340741737109" x2="17.2" y2="14.1339745962156"/>
    <line x1="17.2" y1="14.1339745962156" x2="17.4071067811866" y2="14.2928932188135"/>
    <line x1="17.4071067811866" y1="14.2928932188135" x2="17.5660254037844" y2="14.5"/>
    <line x1="17.5660254037844" y1="14.5" x2="17.6659258262891" y2="14.7411809548975"/>
    <line x1="17.6659258262891" y1="14.7411809548975" x2="17.7" y2="15.0"/>
    <line x1="17.7" y1="15.0" x2="17.6659258262891" y2="15.2588190451025"/>
    <line x1="17.6659258262891" y1="15.2588190451025" x2="17.5660254037844" y2="15.5"/>
    <line x1="17.5660254037844" y1="15.5" x2="17.4071067811866" y2="15.7071067811865"/>
    <line x1="17.4071067811866" y1="15.7071067811865" x2="17.2" y2="15.8660254037844"/>
    <line x1="17.2" y1="15.8660254037844" x2="16.9588190451025" y2="15.9659258262891"/>
  </g>
</svg>
