<?xml version="1.0" standalone="no"?>
<!DOCTYPE svg PUBLIC "-//W3C//DTD SVG 1.1//EN" "http://www.w3.org/Graphics/SVG/1.1/DTD/svg11.dtd">
<svg width="68.7185165257814mm" height="71.8845251434436mm"
 viewBox="0 0 68.7185165257814 71.8845251434436"
 xmlns="http://www.w3.org/2000/svg" version="1.1"
 xmlns:xlink="http://www.w3.org/1999/xlink">
<desc>Output from Flights of Ideas SVG Sketchup Plugin</desc>

<g id="text_annotations" font-size="10" stroke="rgb(255,0,0)" stroke-width="1">
</g>
  <g id="face0" fill="none" stroke="rgb(0,0,255)" stroke-width="1" stroke-miterlimit="4" stroke-dasharray="none" stroke-linejoin="round" stroke-linecap="round">
    <line x1="13.0" y1="17.9999999999991" x2="13.0" y2="22.4999999999991"/>
    <line x1="13.0" y1="22.4999999999991" x2="15.0" y2="22.4999999999991"/>
    <line x1="15.0" y1="22.4999999999991" x2="15.0" y2="30.4999999999991"/>
    <line x1="15.0" y1="30.4999999999991" x2="13.0" y2="30.4999999999991"/>
    <line x1="13.0" y1="30.4999999999991" x2="13.0" y2="34.9999999999991"/>
    <line x1="13.0" y1="34.9999999999991" x2="10.0" y2="34.9999999999991"/>
    <line x1="10.0" y1="34.9999999999991" x2="10.0" y2="39.4999999999991"/>
    <line x1="10.0" y1="39.4999999999991" x2="21.4999999999997" y2="39.4999999999991"/>
    <line x1="21.4999999999997" y1="39.4999999999991" x2="24.7317197749871" y2="40.9050955543414"/>
    <line x1="24.7317197749871" y1="40.9050955543414" x2="24.7317197749871" y2="44.9050955543414"/>
    <line x1="24.7317197749871" y1="44.9050955543414" x2="28.4" y2="46.4999999999992"/>
    <line x1="28.4" y1="46.4999999999992" x2="28.4" y2="60.3999999999924"/>
    <line x1="28.4" y1="60.3999999999924" x2="28.5202034821397" y2="60.9705067057335"/>
    <line x1="28.5202034821397" y1="60.9705067057335" x2="28.8459440840898" y2="61.4540559159026"/>
    <line x1="28.8459440840898" y1="61.4540559159026" x2="29.3294932942589" y2="61.7797965178527"/>
    <line x1="29.3294932942589" y1="61.7797965178527" x2="29.7051973356049" y2="61.8845251434436"/>
    <line x1="29.7051973356049" y1="61.8845251434436" x2="43.0948026643951" y2="61.8845251434436"/>
    <line x1="43.0948026643951" y1="61.8845251434436" x2="43.2860207465647" y2="61.8442362579782"/>
    <line x1="43.2860207465647" y1="61.8442362579782" x2="43.8072961477792" y2="61.5830873837653"/>
    <line x1="43.8072961477792" y1="61.5830873837653" x2="43.9540559159102" y2="61.4540559159026"/>
    <line x1="43.9540559159102" y1="61.4540559159026" x2="44.2797965178603" y2="60.9705067057335"/>
    <line x1="44.2797965178603" y1="60.9705067057335" x2="44.4" y2="60.3999999999924"/>
    <line x1="44.4" y1="60.3999999999924" x2="44.4" y2="46.4999999999992"/>
    <line x1="44.4" y1="46.4999999999992" x2="47.9101881197997" y2="44.5820377053706"/>
    <line x1="47.9101881197997" y1="44.5820377053706" x2="47.9101881197997" y2="40.5820377053706"/>
    <line x1="47.9101881197997" y1="40.5820377053706" x2="58.7185165257814" y2="34.6763809020486"/>
    <line x1="58.7185165257814" y1="34.6763809020486" x2="58.7185165257814" y2="18.3236190979496"/>
    <line x1="58.7185165257814" y1="18.3236190979496" x2="44.4" y2="10.0"/>
    <line x1="44.4" y1="10.0" x2="28.4" y2="10.0"/>
    <line x1="28.4" y1="10.0" x2="20.8235294117658" y2="13.499999999999"/>
    <line x1="20.8235294117658" y1="13.499999999999" x2="10.0" y2="13.499999999999"/>
    <line x1="10.0" y1="13.499999999999" x2="10.0" y2="17.9999999999991"/>
    <line x1="10.0" y1="17.9999999999991" x2="13.0" y2="17.9999999999991"/>
    <line x1="28.7500000000001" y1="29.5310889132447" x2="28.4" y2="29.6760636600753"/>
    <line x1="28.4" y1="29.6760636600753" x2="27.9058666578589" y2="29.8807403920109"/>
    <line x1="27.9058666578589" y1="29.8807403920109" x2="27.0" y2="29.9999999999992"/>
    <line x1="27.0" y1="29.9999999999992" x2="26.0941333421412" y2="29.8807403920109"/>
    <line x1="26.0941333421412" y1="29.8807403920109" x2="25.2499999999999" y2="29.5310889132447"/>
    <line x1="25.2499999999999" y1="29.5310889132447" x2="24.525126265847" y2="28.9748737341521"/>
    <line x1="24.525126265847" y1="28.9748737341521" x2="23.9689110867544" y2="28.2499999999992"/>
    <line x1="23.9689110867544" y1="28.2499999999992" x2="23.6192596079882" y2="27.4058666578579"/>
    <line x1="23.6192596079882" y1="27.4058666578579" x2="23.4999999999999" y2="26.4999999999991"/>
    <line x1="23.4999999999999" y1="26.4999999999991" x2="23.6192596079882" y2="25.5941333421402"/>
    <line x1="23.6192596079882" y1="25.5941333421402" x2="23.9689110867544" y2="24.749999999999"/>
    <line x1="23.9689110867544" y1="24.749999999999" x2="24.525126265847" y2="24.0251262658461"/>
    <line x1="24.525126265847" y1="24.0251262658461" x2="25.2499999999999" y2="23.4689110867535"/>
    <line x1="25.2499999999999" y1="23.4689110867535" x2="26.0941333421412" y2="23.1192596079872"/>
    <line x1="26.0941333421412" y1="23.1192596079872" x2="27.0" y2="22.999999999999"/>
    <line x1="27.0" y1="22.999999999999" x2="27.9058666578589" y2="23.1192596079873"/>
    <line x1="27.9058666578589" y1="23.1192596079873" x2="28.4" y2="23.3239363399229"/>
    <line x1="28.4" y1="23.3239363399229" x2="28.7500000000001" y2="23.4689110867535"/>
    <line x1="28.7500000000001" y1="23.4689110867535" x2="29.474873734153" y2="24.0251262658461"/>
    <line x1="29.474873734153" y1="24.0251262658461" x2="30.0310889132456" y2="24.749999999999"/>
    <line x1="30.0310889132456" y1="24.749999999999" x2="30.3807403920118" y2="25.5941333421402"/>
    <line x1="30.3807403920118" y1="25.5941333421402" x2="30.5000000000001" y2="26.4999999999991"/>
    <line x1="30.5000000000001" y1="26.4999999999991" x2="30.3807403920118" y2="27.4058666578579"/>
    <line x1="30.3807403920118" y1="27.4058666578579" x2="30.0310889132456" y2="28.2499999999992"/>
    <line x1="30.0310889132456" y1="28.2499999999992" x2="29.474873734153" y2="28.9748737341521"/>
    <line x1="29.474873734153" y1="28.9748737341521" x2="28.7500000000001" y2="29.5310889132447"/>
    <line x1="53.2185165257814" y1="21.3236190979495" x2="53.167405265215" y2="21.7118476656034"/>
    <line x1="53.167405265215" y1="21.7118476656034" x2="53.017554631458" y2="22.0736190979495"/>
    <line x1="53.017554631458" y1="22.0736190979495" x2="52.7791766975612" y2="22.3842792697294"/>
    <line x1="52.7791766975612" y1="22.3842792697294" x2="52.4685165257814" y2="22.6226572036263"/>
    <line x1="52.4685165257814" y1="22.6226572036263" x2="52.1067450934352" y2="22.7725078373832"/>
    <line x1="52.1067450934352" y1="22.7725078373832" x2="51.7185165257814" y2="22.8236190979496"/>
    <line x1="51.7185165257814" y1="22.8236190979496" x2="51.3302879581276" y2="22.7725078373832"/>
    <line x1="51.3302879581276" y1="22.7725078373832" x2="50.9685165257814" y2="22.6226572036262"/>
    <line x1="50.9685165257814" y1="22.6226572036262" x2="50.6578563540016" y2="22.3842792697293"/>
    <line x1="50.6578563540016" y1="22.3842792697293" x2="50.4194784201047" y2="22.0736190979495"/>
    <line x1="50.4194784201047" y1="22.0736190979495" x2="50.2696277863478" y2="21.7118476656033"/>
    <line x1="50.2696277863478" y1="21.7118476656033" x2="50.2185165257814" y2="21.3236190979495"/>
    <line x1="50.2185165257814" y1="21.3236190979495" x2="50.2696277863478" y2="20.9353905302957"/>
    <line x1="50.2696277863478" y1="20.9353905302957" x2="50.4194784201047" y2="20.5736190979494"/>
    <line x1="50.4194784201047" y1="20.5736190979494" x2="50.6578563540016" y2="20.2629589261697"/>
    <line x1="50.6578563540016" y1="20.2629589261697" x2="50.9685165257814" y2="20.0245809922729"/>
    <line x1="50.9685165257814" y1="20.0245809922729" x2="51.3302879581276" y2="19.874730358516"/>
    <line x1="51.3302879581276" y1="19.874730358516" x2="51.7185165257814" y2="19.8236190979496"/>
    <line x1="51.7185165257814" y1="19.8236190979496" x2="52.1067450934352" y2="19.8747303585159"/>
    <line x1="52.1067450934352" y1="19.8747303585159" x2="52.4685165257814" y2="20.0245809922728"/>
    <line x1="52.4685165257814" y1="20.0245809922728" x2="52.7791766975612" y2="20.2629589261697"/>
    <line x1="52.7791766975612" y1="20.2629589261697" x2="53.017554631458" y2="20.5736190979495"/>
    <line x1="53.017554631458" y1="20.5736190979495" x2="53.167405265215" y2="20.9353905302958"/>
    <line x1="53.167405265215" y1="20.9353905302958" x2="53.2185165257814" y2="21.3236190979495"/>
    <line x1="53.2185165257814" y1="31.6763809020486" x2="53.167405265215" y2="32.0646094697024"/>
    <line x1="53.167405265215" y1="32.0646094697024" x2="53.017554631458" y2="32.4263809020486"/>
    <line x1="53.017554631458" y1="32.4263809020486" x2="52.7791766975612" y2="32.7370410738285"/>
    <line x1="52.7791766975612" y1="32.7370410738285" x2="52.4685165257814" y2="32.9754190077253"/>
    <line x1="52.4685165257814" y1="32.9754190077253" x2="52.1067450934352" y2="33.1252696414822"/>
    <line x1="52.1067450934352" y1="33.1252696414822" x2="51.7185165257814" y2="33.1763809020486"/>
    <line x1="51.7185165257814" y1="33.1763809020486" x2="51.3302879581276" y2="33.1252696414822"/>
    <line x1="51.3302879581276" y1="33.1252696414822" x2="50.9685165257814" y2="32.9754190077253"/>
    <line x1="50.9685165257814" y1="32.9754190077253" x2="50.6578563540016" y2="32.7370410738284"/>
    <line x1="50.6578563540016" y1="32.7370410738284" x2="50.4194784201047" y2="32.4263809020486"/>
    <line x1="50.4194784201047" y1="32.4263809020486" x2="50.2696277863478" y2="32.0646094697024"/>
    <line x1="50.2696277863478" y1="32.0646094697024" x2="50.2185165257814" y2="31.6763809020486"/>
    <line x1="50.2185165257814" y1="31.6763809020486" x2="50.2696277863478" y2="31.2881523343949"/>
    <line x1="50.2696277863478" y1="31.2881523343949" x2="50.4194784201047" y2="30.9263809020486"/>
    <line x1="50.4194784201047" y1="30.9263809020486" x2="50.6578563540016" y2="30.6157207302688"/>
    <line x1="50.6578563540016" y1="30.6157207302688" x2="50.9685165257814" y2="30.377342796372"/>
    <line x1="50.9685165257814" y1="30.377342796372" x2="51.3302879581276" y2="30.227492162615"/>
    <line x1="51.3302879581276" y1="30.227492162615" x2="51.7185165257814" y2="30.1763809020486"/>
    <line x1="51.7185165257814" y1="30.1763809020486" x2="52.1067450934352" y2="30.227492162615"/>
    <line x1="52.1067450934352" y1="30.227492162615" x2="52.4685165257814" y2="30.377342796372"/>
    <line x1="52.4685165257814" y1="30.377342796372" x2="52.7791766975612" y2="30.6157207302688"/>
    <line x1="52.7791766975612" y1="30.6157207302688" x2="53.017554631458" y2="30.9263809020486"/>
    <line x1="53.017554631458" y1="30.9263809020486" x2="53.167405265215" y2="31.2881523343949"/>
    <line x1="53.167405265215" y1="31.2881523343949" x2="53.2185165257814" y2="31.6763809020486"/>
    <line x1="36.4" y1="15.0" x2="36.7882285676538" y2="15.0511112605664"/>
    <line x1="36.7882285676538" y1="15.0511112605664" x2="37.15" y2="15.2009618943234"/>
    <line x1="37.15" y1="15.2009618943234" x2="37.4606601717798" y2="15.4393398282202"/>
    <line x1="37.4606601717798" y1="15.4393398282202" x2="37.6990381056767" y2="15.75"/>
    <line x1="37.6990381056767" y1="15.75" x2="37.8488887394336" y2="16.1117714323462"/>
    <line x1="37.8488887394336" y1="16.1117714323462" x2="37.9" y2="16.5"/>
    <line x1="37.9" y1="16.5" x2="37.8488887394336" y2="16.8882285676537"/>
    <line x1="37.8488887394336" y1="16.8882285676537" x2="37.6990381056767" y2="17.2500000000001"/>
    <line x1="37.6990381056767" y1="17.2500000000001" x2="37.4606601717798" y2="17.5606601717798"/>
    <line x1="37.4606601717798" y1="17.5606601717798" x2="37.15" y2="17.7990381056771"/>
    <line x1="37.15" y1="17.7990381056771" x2="36.7882285676538" y2="17.9488887394343"/>
    <line x1="36.7882285676538" y1="17.9488887394343" x2="36.4" y2="17.9999999999991"/>
    <line x1="36.4" y1="17.9999999999991" x2="36.0117714323462" y2="17.9488887394334"/>
    <line x1="36.0117714323462" y1="17.9488887394334" x2="35.65" y2="17.7990381056767"/>
    <line x1="35.65" y1="17.7990381056767" x2="35.3393398282202" y2="17.5606601717798"/>
    <line x1="35.3393398282202" y1="17.5606601717798" x2="35.1009618943234" y2="17.25"/>
    <line x1="35.1009618943234" y1="17.25" x2="34.9511112605664" y2="16.8882285676539"/>
    <line x1="34.9511112605664" y1="16.8882285676539" x2="34.9" y2="16.5"/>
    <line x1="34.9" y1="16.5" x2="34.9511112605664" y2="16.1117714323463"/>
    <line x1="34.9511112605664" y1="16.1117714323463" x2="35.1009618943234" y2="15.75"/>
    <line x1="35.1009618943234" y1="15.75" x2="35.3393398282202" y2="15.4393398282202"/>
    <line x1="35.3393398282202" y1="15.4393398282202" x2="35.65" y2="15.2009618943234"/>
    <line x1="35.65" y1="15.2009618943234" x2="36.0117714323462" y2="15.0511112605664"/>
    <line x1="36.0117714323462" y1="15.0511112605664" x2="36.4" y2="15.0"/>
    <line x1="35.4" y1="56.8999999999924" x2="35.4" y2="46.404330541015"/>
    <line x1="35.4" y1="46.404330541015" x2="33.65" y2="46.404330541015"/>
    <line x1="33.65" y1="46.404330541015" x2="33.65" y2="41.8194387792125"/>
    <line x1="33.65" y1="41.8194387792125" x2="33.4" y2="41.6961524227047"/>
    <line x1="33.4" y1="41.6961524227047" x2="32.7474314259477" y2="41.2601200417454"/>
    <line x1="32.7474314259477" y1="41.2601200417454" x2="32.1573593128807" y2="40.7426406871173"/>
    <line x1="32.1573593128807" y1="40.7426406871173" x2="31.6398799582526" y2="40.1525685740504"/>
    <line x1="31.6398799582526" y1="40.1525685740504" x2="31.2038475772934" y2="39.499999999998"/>
    <line x1="31.2038475772934" y1="39.499999999998" x2="30.8567228049323" y2="38.7961005941886"/>
    <line x1="30.8567228049323" y1="38.7961005941886" x2="30.6044450422656" y2="38.0529142706132"/>
    <line x1="30.6044450422656" y1="38.0529142706132" x2="30.4513308317571" y2="37.2831571533184"/>
    <line x1="30.4513308317571" y1="37.2831571533184" x2="30.4" y2="36.499999999998"/>
    <line x1="30.4" y1="36.499999999998" x2="30.4513308317571" y2="35.7168428466777"/>
    <line x1="30.4513308317571" y1="35.7168428466777" x2="30.6044450422656" y2="34.9470857293829"/>
    <line x1="30.6044450422656" y1="34.9470857293829" x2="30.8567228049323" y2="34.2038994058075"/>
    <line x1="30.8567228049323" y1="34.2038994058075" x2="31.2038475772934" y2="33.499999999998"/>
    <line x1="31.2038475772934" y1="33.499999999998" x2="31.6398799582526" y2="32.8474314259457"/>
    <line x1="31.6398799582526" y1="32.8474314259457" x2="32.1573593128807" y2="32.2573593128788"/>
    <line x1="32.1573593128807" y1="32.2573593128788" x2="32.7474314259477" y2="31.7398799582506"/>
    <line x1="32.7474314259477" y1="31.7398799582506" x2="33.4" y2="31.3038475772914"/>
    <line x1="33.4" y1="31.3038475772914" x2="34.1038994058095" y2="30.9567228049303"/>
    <line x1="34.1038994058095" y1="30.9567228049303" x2="34.8470857293849" y2="30.7044450422636"/>
    <line x1="34.8470857293849" y1="30.7044450422636" x2="35.4" y2="30.5944635557376"/>
    <line x1="35.4" y1="30.5944635557376" x2="35.4" y2="28.499999999998"/>
    <line x1="35.4" y1="28.499999999998" x2="35.4085551386262" y2="28.369473807778"/>
    <line x1="35.4085551386262" y1="28.369473807778" x2="35.4340741737109" y2="28.2411809548955"/>
    <line x1="35.4340741737109" y1="28.2411809548955" x2="35.4761204674887" y2="28.1173165676329"/>
    <line x1="35.4761204674887" y1="28.1173165676329" x2="35.5339745962156" y2="27.999999999998"/>
    <line x1="35.5339745962156" y1="27.999999999998" x2="35.6066466597088" y2="27.8912385709893"/>
    <line x1="35.6066466597088" y1="27.8912385709893" x2="35.6928932188135" y2="27.7928932188115"/>
    <line x1="35.6928932188135" y1="27.7928932188115" x2="35.7912385709913" y2="27.7066466597068"/>
    <line x1="35.7912385709913" y1="27.7066466597068" x2="35.9" y2="27.6339745962136"/>
    <line x1="35.9" y1="27.6339745962136" x2="36.0173165676349" y2="27.5761204674868"/>
    <line x1="36.0173165676349" y1="27.5761204674868" x2="36.1411809548975" y2="27.534074173709"/>
    <line x1="36.1411809548975" y1="27.534074173709" x2="36.26947380778" y2="27.5085551386242"/>
    <line x1="36.26947380778" y1="27.5085551386242" x2="36.4" y2="27.499999999998"/>
    <line x1="36.4" y1="27.499999999998" x2="36.5305261922201" y2="27.5085551386242"/>
    <line x1="36.5305261922201" y1="27.5085551386242" x2="36.6588190451025" y2="27.534074173709"/>
    <line x1="36.6588190451025" y1="27.534074173709" x2="36.7826834323651" y2="27.5761204674868"/>
    <line x1="36.7826834323651" y1="27.5761204674868" x2="36.9" y2="27.6339745962136"/>
    <line x1="36.9" y1="27.6339745962136" x2="37.0087614290087" y2="27.7066466597068"/>
    <line x1="37.0087614290087" y1="27.7066466597068" x2="37.1071067811865" y2="27.7928932188115"/>
    <line x1="37.1071067811865" y1="27.7928932188115" x2="37.1933533402912" y2="27.8912385709893"/>
    <line x1="37.1933533402912" y1="27.8912385709893" x2="37.2660254037845" y2="27.999999999998"/>
    <line x1="37.2660254037845" y1="27.999999999998" x2="37.3238795325113" y2="28.1173165676329"/>
    <line x1="37.3238795325113" y1="28.1173165676329" x2="37.3659258262891" y2="28.2411809548955"/>
    <line x1="37.3659258262891" y1="28.2411809548955" x2="37.3914448613738" y2="28.369473807778"/>
    <line x1="37.3914448613738" y1="28.369473807778" x2="37.4" y2="28.499999999998"/>
    <line x1="37.4" y1="28.499999999998" x2="37.4" y2="30.5944635557376"/>
    <line x1="37.4" y1="30.5944635557376" x2="37.9529142706151" y2="30.7044450422636"/>
    <line x1="37.9529142706151" y1="30.7044450422636" x2="38.6961005941905" y2="30.9567228049303"/>
    <line x1="38.6961005941905" y1="30.9567228049303" x2="39.4" y2="31.3038475772914"/>
    <line x1="39.4" y1="31.3038475772914" x2="40.0525685740523" y2="31.7398799582506"/>
    <line x1="40.0525685740523" y1="31.7398799582506" x2="40.6426406871193" y2="32.2573593128787"/>
    <line x1="40.6426406871193" y1="32.2573593128787" x2="41.1601200417474" y2="32.8474314259457"/>
    <line x1="41.1601200417474" y1="32.8474314259457" x2="41.5961524227066" y2="33.499999999998"/>
    <line x1="41.5961524227066" y1="33.499999999998" x2="41.9432771950677" y2="34.2038994058075"/>
    <line x1="41.9432771950677" y1="34.2038994058075" x2="42.1955549577344" y2="34.9470857293829"/>
    <line x1="42.1955549577344" y1="34.9470857293829" x2="42.3486691682429" y2="35.7168428466777"/>
    <line x1="42.3486691682429" y1="35.7168428466777" x2="42.4" y2="36.499999999998"/>
    <line x1="42.4" y1="36.499999999998" x2="42.3486691682429" y2="37.2831571533183"/>
    <line x1="42.3486691682429" y1="37.2831571533183" x2="42.1955549577344" y2="38.0529142706132"/>
    <line x1="42.1955549577344" y1="38.0529142706132" x2="41.9432771950677" y2="38.7961005941886"/>
    <line x1="41.9432771950677" y1="38.7961005941886" x2="41.5961524227066" y2="39.499999999998"/>
    <line x1="41.5961524227066" y1="39.499999999998" x2="41.1601200417474" y2="40.1525685740504"/>
    <line x1="41.1601200417474" y1="40.1525685740504" x2="40.6426406871193" y2="40.7426406871173"/>
    <line x1="40.6426406871193" y1="40.7426406871173" x2="40.0525685740523" y2="41.2601200417454"/>
    <line x1="40.0525685740523" y1="41.2601200417454" x2="39.4" y2="41.6961524227047"/>
    <line x1="39.4" y1="41.6961524227047" x2="39.15" y2="41.8194387792125"/>
    <line x1="39.15" y1="41.8194387792125" x2="39.15" y2="46.404330541015"/>
    <line x1="39.15" y1="46.404330541015" x2="37.4" y2="46.404330541015"/>
    <line x1="37.4" y1="46.404330541015" x2="37.4" y2="56.8999999999924"/>
    <line x1="37.4" y1="56.8999999999924" x2="37.3914448613738" y2="57.0305261922125"/>
    <line x1="37.3914448613738" y1="57.0305261922125" x2="37.3659258262891" y2="57.1588190450949"/>
    <line x1="37.3659258262891" y1="57.1588190450949" x2="37.3238795325113" y2="57.2826834323575"/>
    <line x1="37.3238795325113" y1="57.2826834323575" x2="37.2660254037845" y2="57.3999999999924"/>
    <line x1="37.2660254037845" y1="57.3999999999924" x2="37.1933533402912" y2="57.5087614290011"/>
    <line x1="37.1933533402912" y1="57.5087614290011" x2="37.1071067811865" y2="57.607106781179"/>
    <line x1="37.1071067811865" y1="57.607106781179" x2="37.0087614290087" y2="57.6933533402836"/>
    <line x1="37.0087614290087" y1="57.6933533402836" x2="36.9" y2="57.7660254037768"/>
    <line x1="36.9" y1="57.7660254037768" x2="36.7826834323651" y2="57.8238795325037"/>
    <line x1="36.7826834323651" y1="57.8238795325037" x2="36.6588190451025" y2="57.8659258262815"/>
    <line x1="36.6588190451025" y1="57.8659258262815" x2="36.5305261922201" y2="57.8914448613662"/>
    <line x1="36.5305261922201" y1="57.8914448613662" x2="36.4" y2="57.8999999999924"/>
    <line x1="36.4" y1="57.8999999999924" x2="36.2694738077799" y2="57.8914448613662"/>
    <line x1="36.2694738077799" y1="57.8914448613662" x2="36.1411809548975" y2="57.8659258262815"/>
    <line x1="36.1411809548975" y1="57.8659258262815" x2="36.0173165676349" y2="57.8238795325037"/>
    <line x1="36.0173165676349" y1="57.8238795325037" x2="35.9" y2="57.7660254037768"/>
    <line x1="35.9" y1="57.7660254037768" x2="35.7912385709913" y2="57.6933533402836"/>
    <line x1="35.7912385709913" y1="57.6933533402836" x2="35.6928932188135" y2="57.607106781179"/>
    <line x1="35.6928932188135" y1="57.607106781179" x2="35.6066466597088" y2="57.5087614290011"/>
    <line x1="35.6066466597088" y1="57.5087614290011" x2="35.5339745962156" y2="57.3999999999924"/>
    <line x1="35.5339745962156" y1="57.3999999999924" x2="35.4761204674887" y2="57.2826834323575"/>
    <line x1="35.4761204674887" y1="57.2826834323575" x2="35.4340741737109" y2="57.1588190450949"/>
    <line x1="35.4340741737109" y1="57.1588190450949" x2="35.4085551386262" y2="57.0305261922125"/>
    <line x1="35.4085551386262" y1="57.0305261922125" x2="35.4" y2="56.8999999999924"/>
  </g>
</svg>
